  0
SECTION
  2
HEADER
  9
$ACADVER
  1
AC1014
  9
$HANDSEED
  5
FFFF
  9
$INSUNITS
 70
     4
  9
$MEASUREMENT
 70
     1
  0
ENDSEC
  0
SECTION
  2
TABLES
  0
TABLE
  2
VPORT
  5
8
330
0
100
AcDbSymbolTable
 70
     4
  0
VPORT
  5
2E
330
8
100
AcDbSymbolTableRecord
100
AcDbViewportTableRecord
  2
*ACTIVE
 70
     0
 10
0.0
 20
0.0
 11
1.0
 21
1.0
 12
210.0
 22
148.5
 13
0.0
 23
0.0
 14
10.0
 24
10.0
 15
10.0
 25
10.0
 16
0.0
 26
0.0
 36
1.0
 17
0.0
 27
0.0
 37
0.0
 40
341.0
 41
1.24
 42
50.0
 43
0.0
 44
0.0
 50
0.0
 51
0.0
 71
     0
 72
   100
 73
     1
 74
     3
 75
     0
 76
     0
 77
     0
 78
     0
  0
ENDTAB
  0
TABLE
  2
LTYPE
  5
5
330
0
100
AcDbSymbolTable
 70
     1
  0
LTYPE
  5
14
330
5
100
AcDbSymbolTableRecord
100
AcDbLinetypeTableRecord
  2
BYBLOCK
 70
     0
  3

 72
    65
 73
     0
 40
0.0
  0
LTYPE
  5
15
330
5
100
AcDbSymbolTableRecord
100
AcDbLinetypeTableRecord
  2
BYLAYER
 70
     0
  3

 72
    65
 73
     0
 40
0.0
  0
LTYPE
  5
16
330
5
100
AcDbSymbolTableRecord
100
AcDbLinetypeTableRecord
  2
CONTINUOUS
 70
     0
  3
Solid line
 72
    65
 73
     0
 40
0.0
  0
ENDTAB
  0
TABLE
  2
LAYER
  5
2
100
AcDbSymbolTable
 70
4
  0
LAYER
  5
50
100
AcDbSymbolTableRecord
100
AcDbLayerTableRecord
  2
0
 70
0
  6
CONTINUOUS
  0
LAYER
  5
51
100
AcDbSymbolTableRecord
100
AcDbLayerTableRecord
  2
corte
 70
0
  6
CONTINUOUS
  0
LAYER
  5
52
100
AcDbSymbolTableRecord
100
AcDbLayerTableRecord
  2
contorno
 70
0
  6
CONTINUOUS
  0
LAYER
  5
53
100
AcDbSymbolTableRecord
100
AcDbLayerTableRecord
  2
raster
 70
0
  6
CONTINUOUS
  0
ENDTAB
  0
TABLE
  2
STYLE
  5
3
330
0
100
AcDbSymbolTable
 70
     1
  0
STYLE
  5
11
330
3
100
AcDbSymbolTableRecord
100
AcDbTextStyleTableRecord
  2
STANDARD
 70
     0
 40
0.0
 41
1.0
 50
0.0
 71
     0
 42
2.5
  3
txt
  4

  0
ENDTAB
  0
TABLE
  2
VIEW
  5
6
330
0
100
AcDbSymbolTable
 70
     0
  0
ENDTAB
  0
TABLE
  2
UCS
  5
7
330
0
100
AcDbSymbolTable
 70
     0
  0
ENDTAB
  0
TABLE
  2
APPID
  5
9
330
0
100
AcDbSymbolTable
 70
     2
  0
APPID
  5
12
330
9
100
AcDbSymbolTableRecord
100
AcDbRegAppTableRecord
  2
ACAD
 70
     0
  0
ENDTAB
  0
TABLE
  2
DIMSTYLE
  5
A
330
0
100
AcDbSymbolTable
 70
     1
  0
DIMSTYLE
105
27
330
A
100
AcDbSymbolTableRecord
100
AcDbDimStyleTableRecord
  2
ISO-25
 70
     0
  3

  4

  5

  6

  7

 40
1.0
 41
2.5
 42
0.625
 43
3.75
 44
1.25
 45
0.0
 46
0.0
 47
0.0
 48
0.0
140
2.5
141
2.5
142
0.0
143
0.03937007874016
144
1.0
145
0.0
146
1.0
147
0.625
 71
     0
 72
     0
 73
     0
 74
     0
 75
     0
 76
     0
 77
     1
 78
     8
170
     0
171
     3
172
     1
173
     0
174
     0
175
     0
176
     0
177
     0
178
     0
270
     2
271
     2
272
     2
273
     2
274
     3
340
11
275
     0
280
     0
281
     0
282
     0
283
     0
284
     8
285
     0
286
     0
287
     3
288
     0
  0
ENDTAB
  0
TABLE
  2
BLOCK_RECORD
  5
1
330
0
100
AcDbSymbolTable
 70
     1
  0
BLOCK_RECORD
  5
1F
330
1
100
AcDbSymbolTableRecord
100
AcDbBlockTableRecord
  2
*MODEL_SPACE
  0
BLOCK_RECORD
  5
1B
330
1
100
AcDbSymbolTableRecord
100
AcDbBlockTableRecord
  2
*PAPER_SPACE
  0
ENDTAB
  0
ENDSEC
  0
SECTION
  2
BLOCKS
  0
BLOCK
  5
20
330
1F
100
AcDbEntity
  8
0
100
AcDbBlockBegin
  2
*MODEL_SPACE
 70
     0
 10
0.0
 20
0.0
 30
0.0
  3
*MODEL_SPACE
  1

  0
ENDBLK
  5
21
330
1F
100
AcDbEntity
  8
0
100
AcDbBlockEnd
  0
BLOCK
  5
1C
330
1B
100
AcDbEntity
 67
     1
  8
0
100
AcDbBlockBegin
  2
*PAPER_SPACE
  1

  0
ENDBLK
  5
1D
330
1B
100
AcDbEntity
 67
     1
  8
0
100
AcDbBlockEnd
  0
ENDSEC
  0
SECTION
  2
ENTITIES
  0
LWPOLYLINE
  5
100
100
AcDbEntity
  8
corte
 62
1
100
AcDbPolyline
 90
2
 70
0
 10
200.878020
 20
132.097700
 30
0.0
 10
200.878020
 20
148.097050
 30
0.0
  0
LWPOLYLINE
  5
101
100
AcDbEntity
  8
corte
 62
1
100
AcDbPolyline
 90
2
 70
0
 10
200.878020
 20
197.097880
 30
0.0
 10
200.878020
 20
213.097240
 30
0.0
  0
LWPOLYLINE
  5
102
100
AcDbEntity
  8
corte
 62
1
100
AcDbPolyline
 90
2
 70
0
 10
200.878020
 20
154.097800
 30
0.0
 10
200.878020
 20
191.097130
 30
0.0
  0
LWPOLYLINE
  5
103
100
AcDbEntity
  8
corte
 62
1
100
AcDbPolyline
 90
2
 70
0
 10
202.364560
 20
132.597760
 30
0.0
 10
202.364560
 20
169.597090
 30
0.0
  0
LWPOLYLINE
  5
104
100
AcDbEntity
  8
corte
 62
1
100
AcDbPolyline
 90
2
 70
0
 10
202.364560
 20
175.597840
 30
0.0
 10
202.364560
 20
212.597170
 30
0.0
  0
LWPOLYLINE
  5
105
100
AcDbEntity
  8
corte
 62
1
100
AcDbPolyline
 90
2
 70
0
 10
197.904930
 20
132.097700
 30
0.0
 10
197.904930
 20
148.097050
 30
0.0
  0
LWPOLYLINE
  5
106
100
AcDbEntity
  8
corte
 62
1
100
AcDbPolyline
 90
2
 70
0
 10
197.904930
 20
197.097880
 30
0.0
 10
197.904930
 20
213.097240
 30
0.0
  0
LWPOLYLINE
  5
107
100
AcDbEntity
  8
corte
 62
1
100
AcDbPolyline
 90
2
 70
0
 10
197.904930
 20
154.097800
 30
0.0
 10
197.904930
 20
191.097130
 30
0.0
  0
LWPOLYLINE
  5
108
100
AcDbEntity
  8
corte
 62
1
100
AcDbPolyline
 90
2
 70
0
 10
199.391470
 20
132.597760
 30
0.0
 10
199.391470
 20
169.597090
 30
0.0
  0
LWPOLYLINE
  5
109
100
AcDbEntity
  8
corte
 62
1
100
AcDbPolyline
 90
2
 70
0
 10
199.391470
 20
175.597840
 30
0.0
 10
199.391470
 20
212.597170
 30
0.0
  0
LWPOLYLINE
  5
10a
100
AcDbEntity
  8
corte
 62
1
100
AcDbPolyline
 90
2
 70
0
 10
194.931850
 20
132.097700
 30
0.0
 10
194.931850
 20
148.097050
 30
0.0
  0
LWPOLYLINE
  5
10b
100
AcDbEntity
  8
corte
 62
1
100
AcDbPolyline
 90
2
 70
0
 10
194.931850
 20
197.097880
 30
0.0
 10
194.931850
 20
213.097240
 30
0.0
  0
LWPOLYLINE
  5
10c
100
AcDbEntity
  8
corte
 62
1
100
AcDbPolyline
 90
2
 70
0
 10
194.931850
 20
154.097800
 30
0.0
 10
194.931850
 20
191.097130
 30
0.0
  0
LWPOLYLINE
  5
10d
100
AcDbEntity
  8
corte
 62
1
100
AcDbPolyline
 90
2
 70
0
 10
196.418380
 20
132.597760
 30
0.0
 10
196.418380
 20
169.597090
 30
0.0
  0
LWPOLYLINE
  5
10e
100
AcDbEntity
  8
corte
 62
1
100
AcDbPolyline
 90
2
 70
0
 10
196.418380
 20
175.597840
 30
0.0
 10
196.418380
 20
212.597170
 30
0.0
  0
LWPOLYLINE
  5
10f
100
AcDbEntity
  8
corte
 62
1
100
AcDbPolyline
 90
2
 70
0
 10
191.958750
 20
132.097700
 30
0.0
 10
191.958750
 20
148.097050
 30
0.0
  0
LWPOLYLINE
  5
110
100
AcDbEntity
  8
corte
 62
1
100
AcDbPolyline
 90
2
 70
0
 10
191.958750
 20
197.097880
 30
0.0
 10
191.958750
 20
213.097240
 30
0.0
  0
LWPOLYLINE
  5
111
100
AcDbEntity
  8
corte
 62
1
100
AcDbPolyline
 90
2
 70
0
 10
191.958750
 20
154.097800
 30
0.0
 10
191.958750
 20
191.097130
 30
0.0
  0
LWPOLYLINE
  5
112
100
AcDbEntity
  8
corte
 62
1
100
AcDbPolyline
 90
2
 70
0
 10
193.445290
 20
132.597760
 30
0.0
 10
193.445290
 20
169.597090
 30
0.0
  0
LWPOLYLINE
  5
113
100
AcDbEntity
  8
corte
 62
1
100
AcDbPolyline
 90
2
 70
0
 10
193.445290
 20
175.597840
 30
0.0
 10
193.445290
 20
212.597170
 30
0.0
  0
LWPOLYLINE
  5
114
100
AcDbEntity
  8
corte
 62
1
100
AcDbPolyline
 90
2
 70
0
 10
188.985650
 20
132.097700
 30
0.0
 10
188.985650
 20
148.097050
 30
0.0
  0
LWPOLYLINE
  5
115
100
AcDbEntity
  8
corte
 62
1
100
AcDbPolyline
 90
2
 70
0
 10
188.985650
 20
197.097880
 30
0.0
 10
188.985650
 20
213.097240
 30
0.0
  0
LWPOLYLINE
  5
116
100
AcDbEntity
  8
corte
 62
1
100
AcDbPolyline
 90
2
 70
0
 10
188.985650
 20
154.097800
 30
0.0
 10
188.985650
 20
191.097130
 30
0.0
  0
LWPOLYLINE
  5
117
100
AcDbEntity
  8
corte
 62
1
100
AcDbPolyline
 90
2
 70
0
 10
190.472190
 20
132.597760
 30
0.0
 10
190.472190
 20
169.597090
 30
0.0
  0
LWPOLYLINE
  5
118
100
AcDbEntity
  8
corte
 62
1
100
AcDbPolyline
 90
2
 70
0
 10
190.472190
 20
175.597840
 30
0.0
 10
190.472190
 20
212.597170
 30
0.0
  0
LWPOLYLINE
  5
119
100
AcDbEntity
  8
corte
 62
1
100
AcDbPolyline
 90
2
 70
0
 10
186.012560
 20
132.097700
 30
0.0
 10
186.012560
 20
148.097050
 30
0.0
  0
LWPOLYLINE
  5
11a
100
AcDbEntity
  8
corte
 62
1
100
AcDbPolyline
 90
2
 70
0
 10
186.012560
 20
197.097880
 30
0.0
 10
186.012560
 20
213.097240
 30
0.0
  0
LWPOLYLINE
  5
11b
100
AcDbEntity
  8
corte
 62
1
100
AcDbPolyline
 90
2
 70
0
 10
186.012560
 20
154.097800
 30
0.0
 10
186.012560
 20
191.097130
 30
0.0
  0
LWPOLYLINE
  5
11c
100
AcDbEntity
  8
corte
 62
1
100
AcDbPolyline
 90
2
 70
0
 10
187.499120
 20
132.597760
 30
0.0
 10
187.499120
 20
169.597090
 30
0.0
  0
LWPOLYLINE
  5
11d
100
AcDbEntity
  8
corte
 62
1
100
AcDbPolyline
 90
2
 70
0
 10
187.499120
 20
175.597840
 30
0.0
 10
187.499120
 20
212.597170
 30
0.0
  0
LWPOLYLINE
  5
11e
100
AcDbEntity
  8
corte
 62
1
100
AcDbPolyline
 90
2
 70
0
 10
183.039460
 20
132.097700
 30
0.0
 10
183.039460
 20
148.097050
 30
0.0
  0
LWPOLYLINE
  5
11f
100
AcDbEntity
  8
corte
 62
1
100
AcDbPolyline
 90
2
 70
0
 10
183.039460
 20
197.097880
 30
0.0
 10
183.039460
 20
213.097240
 30
0.0
  0
LWPOLYLINE
  5
120
100
AcDbEntity
  8
corte
 62
1
100
AcDbPolyline
 90
2
 70
0
 10
183.039460
 20
154.097800
 30
0.0
 10
183.039460
 20
191.097130
 30
0.0
  0
LWPOLYLINE
  5
121
100
AcDbEntity
  8
corte
 62
1
100
AcDbPolyline
 90
2
 70
0
 10
184.526020
 20
132.597760
 30
0.0
 10
184.526020
 20
169.597090
 30
0.0
  0
LWPOLYLINE
  5
122
100
AcDbEntity
  8
corte
 62
1
100
AcDbPolyline
 90
2
 70
0
 10
184.526020
 20
175.597840
 30
0.0
 10
184.526020
 20
212.597170
 30
0.0
  0
LWPOLYLINE
  5
123
100
AcDbEntity
  8
corte
 62
1
100
AcDbPolyline
 90
2
 70
0
 10
180.066390
 20
132.097700
 30
0.0
 10
180.066390
 20
148.097050
 30
0.0
  0
LWPOLYLINE
  5
124
100
AcDbEntity
  8
corte
 62
1
100
AcDbPolyline
 90
2
 70
0
 10
180.066390
 20
197.097880
 30
0.0
 10
180.066390
 20
213.097240
 30
0.0
  0
LWPOLYLINE
  5
125
100
AcDbEntity
  8
corte
 62
1
100
AcDbPolyline
 90
2
 70
0
 10
180.066390
 20
154.097800
 30
0.0
 10
180.066390
 20
191.097130
 30
0.0
  0
LWPOLYLINE
  5
126
100
AcDbEntity
  8
corte
 62
1
100
AcDbPolyline
 90
2
 70
0
 10
181.552930
 20
132.597760
 30
0.0
 10
181.552930
 20
169.597090
 30
0.0
  0
LWPOLYLINE
  5
127
100
AcDbEntity
  8
corte
 62
1
100
AcDbPolyline
 90
2
 70
0
 10
181.552930
 20
175.597840
 30
0.0
 10
181.552930
 20
212.597170
 30
0.0
  0
LWPOLYLINE
  5
128
100
AcDbEntity
  8
corte
 62
1
100
AcDbPolyline
 90
2
 70
0
 10
177.093300
 20
132.097700
 30
0.0
 10
177.093300
 20
148.097050
 30
0.0
  0
LWPOLYLINE
  5
129
100
AcDbEntity
  8
corte
 62
1
100
AcDbPolyline
 90
2
 70
0
 10
177.093300
 20
197.097880
 30
0.0
 10
177.093300
 20
213.097240
 30
0.0
  0
LWPOLYLINE
  5
12a
100
AcDbEntity
  8
corte
 62
1
100
AcDbPolyline
 90
2
 70
0
 10
177.093300
 20
154.097800
 30
0.0
 10
177.093300
 20
191.097130
 30
0.0
  0
LWPOLYLINE
  5
12b
100
AcDbEntity
  8
corte
 62
1
100
AcDbPolyline
 90
2
 70
0
 10
178.579830
 20
132.597760
 30
0.0
 10
178.579830
 20
169.597090
 30
0.0
  0
LWPOLYLINE
  5
12c
100
AcDbEntity
  8
corte
 62
1
100
AcDbPolyline
 90
2
 70
0
 10
178.579830
 20
175.597840
 30
0.0
 10
178.579830
 20
212.597170
 30
0.0
  0
LWPOLYLINE
  5
12d
100
AcDbEntity
  8
corte
 62
1
100
AcDbPolyline
 90
2
 70
0
 10
174.120200
 20
132.097700
 30
0.0
 10
174.120200
 20
148.097050
 30
0.0
  0
LWPOLYLINE
  5
12e
100
AcDbEntity
  8
corte
 62
1
100
AcDbPolyline
 90
2
 70
0
 10
174.120200
 20
197.097880
 30
0.0
 10
174.120200
 20
213.097240
 30
0.0
  0
LWPOLYLINE
  5
12f
100
AcDbEntity
  8
corte
 62
1
100
AcDbPolyline
 90
2
 70
0
 10
174.120200
 20
154.097800
 30
0.0
 10
174.120200
 20
191.097130
 30
0.0
  0
LWPOLYLINE
  5
130
100
AcDbEntity
  8
corte
 62
1
100
AcDbPolyline
 90
2
 70
0
 10
175.606760
 20
132.597760
 30
0.0
 10
175.606760
 20
169.597090
 30
0.0
  0
LWPOLYLINE
  5
131
100
AcDbEntity
  8
corte
 62
1
100
AcDbPolyline
 90
2
 70
0
 10
175.606760
 20
175.597840
 30
0.0
 10
175.606760
 20
212.597170
 30
0.0
  0
LWPOLYLINE
  5
132
100
AcDbEntity
  8
corte
 62
1
100
AcDbPolyline
 90
2
 70
0
 10
203.851080
 20
132.097700
 30
0.0
 10
203.851080
 20
148.097050
 30
0.0
  0
LWPOLYLINE
  5
133
100
AcDbEntity
  8
corte
 62
1
100
AcDbPolyline
 90
2
 70
0
 10
203.851080
 20
154.097800
 30
0.0
 10
203.851080
 20
191.097130
 30
0.0
  0
LWPOLYLINE
  5
134
100
AcDbEntity
  8
corte
 62
1
100
AcDbPolyline
 90
2
 70
0
 10
203.851080
 20
197.097880
 30
0.0
 10
203.851080
 20
213.097240
 30
0.0
  0
LWPOLYLINE
  5
135
100
AcDbEntity
  8
corte
 62
1
100
AcDbPolyline
 90
2
 70
0
 10
172.633640
 20
175.597840
 30
0.0
 10
172.633640
 20
212.597170
 30
0.0
  0
LWPOLYLINE
  5
136
100
AcDbEntity
  8
corte
 62
1
100
AcDbPolyline
 90
2
 70
0
 10
172.633640
 20
132.597760
 30
0.0
 10
172.633640
 20
169.597090
 30
0.0
  0
LWPOLYLINE
  5
137
100
AcDbEntity
  8
corte
 62
1
100
AcDbPolyline
 90
2
 70
0
 10
171.147210
 20
197.097880
 30
0.0
 10
171.147210
 20
213.097240
 30
0.0
  0
LWPOLYLINE
  5
138
100
AcDbEntity
  8
corte
 62
1
100
AcDbPolyline
 90
2
 70
0
 10
171.147210
 20
154.097800
 30
0.0
 10
171.147210
 20
191.097130
 30
0.0
  0
LWPOLYLINE
  5
139
100
AcDbEntity
  8
corte
 62
1
100
AcDbPolyline
 90
2
 70
0
 10
171.147210
 20
132.097700
 30
0.0
 10
171.147210
 20
148.097050
 30
0.0
  0
LWPOLYLINE
  5
13a
100
AcDbEntity
  8
corte
 62
1
100
AcDbPolyline
 90
2
 70
0
 10
103.174160
 20
132.097700
 30
0.0
 10
103.174160
 20
146.848220
 30
0.0
  0
LWPOLYLINE
  5
13b
100
AcDbEntity
  8
corte
 62
1
100
AcDbPolyline
 90
2
 70
0
 10
103.174160
 20
193.348740
 30
0.0
 10
103.174160
 20
208.096610
 30
0.0
  0
LWPOLYLINE
  5
13c
100
AcDbEntity
  8
corte
 62
1
100
AcDbPolyline
 90
2
 70
0
 10
103.174160
 20
152.848970
 30
0.0
 10
103.174160
 20
187.347990
 30
0.0
  0
LWPOLYLINE
  5
13d
100
AcDbEntity
  8
corte
 62
1
100
AcDbPolyline
 90
2
 70
0
 10
104.660590
 20
132.597760
 30
0.0
 10
104.660590
 20
167.096780
 30
0.0
  0
LWPOLYLINE
  5
13e
100
AcDbEntity
  8
corte
 62
1
100
AcDbPolyline
 90
2
 70
0
 10
104.660590
 20
173.097530
 30
0.0
 10
104.660590
 20
207.596550
 30
0.0
  0
LWPOLYLINE
  5
13f
100
AcDbEntity
  8
corte
 62
1
100
AcDbPolyline
 90
2
 70
0
 10
100.201040
 20
132.097700
 30
0.0
 10
100.201040
 20
146.848220
 30
0.0
  0
LWPOLYLINE
  5
140
100
AcDbEntity
  8
corte
 62
1
100
AcDbPolyline
 90
2
 70
0
 10
100.201040
 20
193.348740
 30
0.0
 10
100.201040
 20
208.096610
 30
0.0
  0
LWPOLYLINE
  5
141
100
AcDbEntity
  8
corte
 62
1
100
AcDbPolyline
 90
2
 70
0
 10
100.201040
 20
152.848970
 30
0.0
 10
100.201040
 20
187.347990
 30
0.0
  0
LWPOLYLINE
  5
142
100
AcDbEntity
  8
corte
 62
1
100
AcDbPolyline
 90
2
 70
0
 10
101.687470
 20
132.597760
 30
0.0
 10
101.687470
 20
167.096780
 30
0.0
  0
LWPOLYLINE
  5
143
100
AcDbEntity
  8
corte
 62
1
100
AcDbPolyline
 90
2
 70
0
 10
101.687470
 20
173.097530
 30
0.0
 10
101.687470
 20
207.596550
 30
0.0
  0
LWPOLYLINE
  5
144
100
AcDbEntity
  8
corte
 62
1
100
AcDbPolyline
 90
2
 70
0
 10
97.227918
 20
132.097700
 30
0.0
 10
97.227918
 20
146.848220
 30
0.0
  0
LWPOLYLINE
  5
145
100
AcDbEntity
  8
corte
 62
1
100
AcDbPolyline
 90
2
 70
0
 10
97.227918
 20
193.348740
 30
0.0
 10
97.227918
 20
208.096610
 30
0.0
  0
LWPOLYLINE
  5
146
100
AcDbEntity
  8
corte
 62
1
100
AcDbPolyline
 90
2
 70
0
 10
97.227918
 20
152.848970
 30
0.0
 10
97.227918
 20
187.347990
 30
0.0
  0
LWPOLYLINE
  5
147
100
AcDbEntity
  8
corte
 62
1
100
AcDbPolyline
 90
2
 70
0
 10
98.714347
 20
132.597760
 30
0.0
 10
98.714347
 20
167.096780
 30
0.0
  0
LWPOLYLINE
  5
148
100
AcDbEntity
  8
corte
 62
1
100
AcDbPolyline
 90
2
 70
0
 10
98.714347
 20
173.097530
 30
0.0
 10
98.714347
 20
207.596550
 30
0.0
  0
LWPOLYLINE
  5
149
100
AcDbEntity
  8
corte
 62
1
100
AcDbPolyline
 90
2
 70
0
 10
94.254795
 20
132.097700
 30
0.0
 10
94.254795
 20
146.848220
 30
0.0
  0
LWPOLYLINE
  5
14a
100
AcDbEntity
  8
corte
 62
1
100
AcDbPolyline
 90
2
 70
0
 10
94.254795
 20
193.348740
 30
0.0
 10
94.254795
 20
208.096610
 30
0.0
  0
LWPOLYLINE
  5
14b
100
AcDbEntity
  8
corte
 62
1
100
AcDbPolyline
 90
2
 70
0
 10
94.254795
 20
152.848970
 30
0.0
 10
94.254795
 20
187.347990
 30
0.0
  0
LWPOLYLINE
  5
14c
100
AcDbEntity
  8
corte
 62
1
100
AcDbPolyline
 90
2
 70
0
 10
95.741224
 20
132.597760
 30
0.0
 10
95.741224
 20
167.096780
 30
0.0
  0
LWPOLYLINE
  5
14d
100
AcDbEntity
  8
corte
 62
1
100
AcDbPolyline
 90
2
 70
0
 10
95.741224
 20
173.097530
 30
0.0
 10
95.741224
 20
207.596550
 30
0.0
  0
LWPOLYLINE
  5
14e
100
AcDbEntity
  8
corte
 62
1
100
AcDbPolyline
 90
2
 70
0
 10
91.281672
 20
132.097700
 30
0.0
 10
91.281672
 20
146.848220
 30
0.0
  0
LWPOLYLINE
  5
14f
100
AcDbEntity
  8
corte
 62
1
100
AcDbPolyline
 90
2
 70
0
 10
91.281672
 20
193.348740
 30
0.0
 10
91.281672
 20
208.096610
 30
0.0
  0
LWPOLYLINE
  5
150
100
AcDbEntity
  8
corte
 62
1
100
AcDbPolyline
 90
2
 70
0
 10
91.281672
 20
152.848970
 30
0.0
 10
91.281672
 20
187.347990
 30
0.0
  0
LWPOLYLINE
  5
151
100
AcDbEntity
  8
corte
 62
1
100
AcDbPolyline
 90
2
 70
0
 10
92.768101
 20
132.597760
 30
0.0
 10
92.768101
 20
167.096780
 30
0.0
  0
LWPOLYLINE
  5
152
100
AcDbEntity
  8
corte
 62
1
100
AcDbPolyline
 90
2
 70
0
 10
92.768101
 20
173.097530
 30
0.0
 10
92.768101
 20
207.596550
 30
0.0
  0
LWPOLYLINE
  5
153
100
AcDbEntity
  8
corte
 62
1
100
AcDbPolyline
 90
2
 70
0
 10
88.308549
 20
132.097700
 30
0.0
 10
88.308549
 20
146.848220
 30
0.0
  0
LWPOLYLINE
  5
154
100
AcDbEntity
  8
corte
 62
1
100
AcDbPolyline
 90
2
 70
0
 10
88.308549
 20
193.348740
 30
0.0
 10
88.308549
 20
208.096610
 30
0.0
  0
LWPOLYLINE
  5
155
100
AcDbEntity
  8
corte
 62
1
100
AcDbPolyline
 90
2
 70
0
 10
88.308549
 20
152.848970
 30
0.0
 10
88.308549
 20
187.347990
 30
0.0
  0
LWPOLYLINE
  5
156
100
AcDbEntity
  8
corte
 62
1
100
AcDbPolyline
 90
2
 70
0
 10
89.795243
 20
132.597760
 30
0.0
 10
89.795243
 20
167.096780
 30
0.0
  0
LWPOLYLINE
  5
157
100
AcDbEntity
  8
corte
 62
1
100
AcDbPolyline
 90
2
 70
0
 10
89.795243
 20
173.097530
 30
0.0
 10
89.795243
 20
207.596550
 30
0.0
  0
LWPOLYLINE
  5
158
100
AcDbEntity
  8
corte
 62
1
100
AcDbPolyline
 90
2
 70
0
 10
85.335426
 20
132.097700
 30
0.0
 10
85.335426
 20
146.848220
 30
0.0
  0
LWPOLYLINE
  5
159
100
AcDbEntity
  8
corte
 62
1
100
AcDbPolyline
 90
2
 70
0
 10
85.335426
 20
193.348740
 30
0.0
 10
85.335426
 20
208.096610
 30
0.0
  0
LWPOLYLINE
  5
15a
100
AcDbEntity
  8
corte
 62
1
100
AcDbPolyline
 90
2
 70
0
 10
85.335426
 20
152.848970
 30
0.0
 10
85.335426
 20
187.347990
 30
0.0
  0
LWPOLYLINE
  5
15b
100
AcDbEntity
  8
corte
 62
1
100
AcDbPolyline
 90
2
 70
0
 10
86.822120
 20
132.597760
 30
0.0
 10
86.822120
 20
167.096780
 30
0.0
  0
LWPOLYLINE
  5
15c
100
AcDbEntity
  8
corte
 62
1
100
AcDbPolyline
 90
2
 70
0
 10
86.822120
 20
173.097530
 30
0.0
 10
86.822120
 20
207.596550
 30
0.0
  0
LWPOLYLINE
  5
15d
100
AcDbEntity
  8
corte
 62
1
100
AcDbPolyline
 90
2
 70
0
 10
82.362303
 20
132.097700
 30
0.0
 10
82.362303
 20
146.848220
 30
0.0
  0
LWPOLYLINE
  5
15e
100
AcDbEntity
  8
corte
 62
1
100
AcDbPolyline
 90
2
 70
0
 10
82.362303
 20
193.348740
 30
0.0
 10
82.362303
 20
208.096610
 30
0.0
  0
LWPOLYLINE
  5
15f
100
AcDbEntity
  8
corte
 62
1
100
AcDbPolyline
 90
2
 70
0
 10
82.362303
 20
152.848970
 30
0.0
 10
82.362303
 20
187.347990
 30
0.0
  0
LWPOLYLINE
  5
160
100
AcDbEntity
  8
corte
 62
1
100
AcDbPolyline
 90
2
 70
0
 10
83.848997
 20
132.597760
 30
0.0
 10
83.848997
 20
167.096780
 30
0.0
  0
LWPOLYLINE
  5
161
100
AcDbEntity
  8
corte
 62
1
100
AcDbPolyline
 90
2
 70
0
 10
83.848997
 20
173.097530
 30
0.0
 10
83.848997
 20
207.596550
 30
0.0
  0
LWPOLYLINE
  5
162
100
AcDbEntity
  8
corte
 62
1
100
AcDbPolyline
 90
2
 70
0
 10
79.389445
 20
132.097700
 30
0.0
 10
79.389445
 20
146.848220
 30
0.0
  0
LWPOLYLINE
  5
163
100
AcDbEntity
  8
corte
 62
1
100
AcDbPolyline
 90
2
 70
0
 10
79.389445
 20
193.348740
 30
0.0
 10
79.389445
 20
208.096610
 30
0.0
  0
LWPOLYLINE
  5
164
100
AcDbEntity
  8
corte
 62
1
100
AcDbPolyline
 90
2
 70
0
 10
79.389445
 20
152.848970
 30
0.0
 10
79.389445
 20
187.347990
 30
0.0
  0
LWPOLYLINE
  5
165
100
AcDbEntity
  8
corte
 62
1
100
AcDbPolyline
 90
2
 70
0
 10
80.875874
 20
132.597760
 30
0.0
 10
80.875874
 20
167.096780
 30
0.0
  0
LWPOLYLINE
  5
166
100
AcDbEntity
  8
corte
 62
1
100
AcDbPolyline
 90
2
 70
0
 10
80.875874
 20
173.097530
 30
0.0
 10
80.875874
 20
207.596550
 30
0.0
  0
LWPOLYLINE
  5
167
100
AcDbEntity
  8
corte
 62
1
100
AcDbPolyline
 90
2
 70
0
 10
76.416322
 20
132.097700
 30
0.0
 10
76.416322
 20
146.848220
 30
0.0
  0
LWPOLYLINE
  5
168
100
AcDbEntity
  8
corte
 62
1
100
AcDbPolyline
 90
2
 70
0
 10
76.416322
 20
193.348740
 30
0.0
 10
76.416322
 20
208.096610
 30
0.0
  0
LWPOLYLINE
  5
169
100
AcDbEntity
  8
corte
 62
1
100
AcDbPolyline
 90
2
 70
0
 10
76.416322
 20
152.848970
 30
0.0
 10
76.416322
 20
187.347990
 30
0.0
  0
LWPOLYLINE
  5
16a
100
AcDbEntity
  8
corte
 62
1
100
AcDbPolyline
 90
2
 70
0
 10
77.902751
 20
132.597760
 30
0.0
 10
77.902751
 20
167.096780
 30
0.0
  0
LWPOLYLINE
  5
16b
100
AcDbEntity
  8
corte
 62
1
100
AcDbPolyline
 90
2
 70
0
 10
77.902751
 20
173.097530
 30
0.0
 10
77.902751
 20
207.596550
 30
0.0
  0
LWPOLYLINE
  5
16c
100
AcDbEntity
  8
corte
 62
1
100
AcDbPolyline
 90
2
 70
0
 10
106.147020
 20
193.348740
 30
0.0
 10
106.147020
 20
208.096610
 30
0.0
  0
LWPOLYLINE
  5
16d
100
AcDbEntity
  8
corte
 62
1
100
AcDbPolyline
 90
2
 70
0
 10
106.147020
 20
152.848970
 30
0.0
 10
106.147020
 20
187.347990
 30
0.0
  0
LWPOLYLINE
  5
16e
100
AcDbEntity
  8
corte
 62
1
100
AcDbPolyline
 90
2
 70
0
 10
106.147020
 20
132.097700
 30
0.0
 10
106.147020
 20
146.848220
 30
0.0
  0
LWPOLYLINE
  5
16f
100
AcDbEntity
  8
corte
 62
1
100
AcDbPolyline
 90
2
 70
0
 10
74.929628
 20
173.097530
 30
0.0
 10
74.929628
 20
207.596550
 30
0.0
  0
LWPOLYLINE
  5
170
100
AcDbEntity
  8
corte
 62
1
100
AcDbPolyline
 90
2
 70
0
 10
74.929628
 20
132.597760
 30
0.0
 10
74.929628
 20
167.096780
 30
0.0
  0
LWPOLYLINE
  5
171
100
AcDbEntity
  8
corte
 62
1
100
AcDbPolyline
 90
2
 70
0
 10
73.443199
 20
193.348740
 30
0.0
 10
73.443199
 20
208.096610
 30
0.0
  0
LWPOLYLINE
  5
172
100
AcDbEntity
  8
corte
 62
1
100
AcDbPolyline
 90
2
 70
0
 10
73.443199
 20
152.848970
 30
0.0
 10
73.443199
 20
187.347990
 30
0.0
  0
LWPOLYLINE
  5
173
100
AcDbEntity
  8
corte
 62
1
100
AcDbPolyline
 90
2
 70
0
 10
73.443199
 20
132.097700
 30
0.0
 10
73.443199
 20
146.848220
 30
0.0
  0
LWPOLYLINE
  5
174
100
AcDbEntity
  8
corte
 62
1
100
AcDbPolyline
 90
2
 70
0
 10
202.364560
 20
221.947550
 30
0.0
 10
202.364560
 20
256.446570
 30
0.0
  0
LWPOLYLINE
  5
175
100
AcDbEntity
  8
corte
 62
1
100
AcDbPolyline
 90
2
 70
0
 10
202.364560
 20
262.447320
 30
0.0
 10
202.364560
 20
296.948990
 30
0.0
  0
LWPOLYLINE
  5
176
100
AcDbEntity
  8
corte
 62
1
100
AcDbPolyline
 90
2
 70
0
 10
200.878020
 20
282.698530
 30
0.0
 10
200.878020
 20
297.446400
 30
0.0
  0
LWPOLYLINE
  5
177
100
AcDbEntity
  8
corte
 62
1
100
AcDbPolyline
 90
2
 70
0
 10
200.878020
 20
242.198760
 30
0.0
 10
200.878020
 20
276.697780
 30
0.0
  0
LWPOLYLINE
  5
178
100
AcDbEntity
  8
corte
 62
1
100
AcDbPolyline
 90
2
 70
0
 10
200.878020
 20
221.447490
 30
0.0
 10
200.878020
 20
236.198010
 30
0.0
  0
LWPOLYLINE
  5
179
100
AcDbEntity
  8
corte
 62
1
100
AcDbPolyline
 90
2
 70
0
 10
199.391470
 20
221.947550
 30
0.0
 10
199.391470
 20
256.446570
 30
0.0
  0
LWPOLYLINE
  5
17a
100
AcDbEntity
  8
corte
 62
1
100
AcDbPolyline
 90
2
 70
0
 10
199.391470
 20
262.447320
 30
0.0
 10
199.391470
 20
296.948990
 30
0.0
  0
LWPOLYLINE
  5
17b
100
AcDbEntity
  8
corte
 62
1
100
AcDbPolyline
 90
2
 70
0
 10
197.904930
 20
282.698530
 30
0.0
 10
197.904930
 20
297.446400
 30
0.0
  0
LWPOLYLINE
  5
17c
100
AcDbEntity
  8
corte
 62
1
100
AcDbPolyline
 90
2
 70
0
 10
197.904930
 20
242.198760
 30
0.0
 10
197.904930
 20
276.697780
 30
0.0
  0
LWPOLYLINE
  5
17d
100
AcDbEntity
  8
corte
 62
1
100
AcDbPolyline
 90
2
 70
0
 10
197.904930
 20
221.447490
 30
0.0
 10
197.904930
 20
236.198010
 30
0.0
  0
LWPOLYLINE
  5
17e
100
AcDbEntity
  8
corte
 62
1
100
AcDbPolyline
 90
2
 70
0
 10
196.418380
 20
221.947550
 30
0.0
 10
196.418380
 20
256.446570
 30
0.0
  0
LWPOLYLINE
  5
17f
100
AcDbEntity
  8
corte
 62
1
100
AcDbPolyline
 90
2
 70
0
 10
196.418380
 20
262.447320
 30
0.0
 10
196.418380
 20
296.948990
 30
0.0
  0
LWPOLYLINE
  5
180
100
AcDbEntity
  8
corte
 62
1
100
AcDbPolyline
 90
2
 70
0
 10
194.931850
 20
282.698530
 30
0.0
 10
194.931850
 20
297.446400
 30
0.0
  0
LWPOLYLINE
  5
181
100
AcDbEntity
  8
corte
 62
1
100
AcDbPolyline
 90
2
 70
0
 10
194.931850
 20
242.198760
 30
0.0
 10
194.931850
 20
276.697780
 30
0.0
  0
LWPOLYLINE
  5
182
100
AcDbEntity
  8
corte
 62
1
100
AcDbPolyline
 90
2
 70
0
 10
194.931850
 20
221.447490
 30
0.0
 10
194.931850
 20
236.198010
 30
0.0
  0
LWPOLYLINE
  5
183
100
AcDbEntity
  8
corte
 62
1
100
AcDbPolyline
 90
2
 70
0
 10
193.445290
 20
221.947550
 30
0.0
 10
193.445290
 20
256.446570
 30
0.0
  0
LWPOLYLINE
  5
184
100
AcDbEntity
  8
corte
 62
1
100
AcDbPolyline
 90
2
 70
0
 10
193.445290
 20
262.447320
 30
0.0
 10
193.445290
 20
296.948990
 30
0.0
  0
LWPOLYLINE
  5
185
100
AcDbEntity
  8
corte
 62
1
100
AcDbPolyline
 90
2
 70
0
 10
191.958750
 20
282.698530
 30
0.0
 10
191.958750
 20
297.446400
 30
0.0
  0
LWPOLYLINE
  5
186
100
AcDbEntity
  8
corte
 62
1
100
AcDbPolyline
 90
2
 70
0
 10
191.958750
 20
242.198760
 30
0.0
 10
191.958750
 20
276.697780
 30
0.0
  0
LWPOLYLINE
  5
187
100
AcDbEntity
  8
corte
 62
1
100
AcDbPolyline
 90
2
 70
0
 10
191.958750
 20
221.447490
 30
0.0
 10
191.958750
 20
236.198010
 30
0.0
  0
LWPOLYLINE
  5
188
100
AcDbEntity
  8
corte
 62
1
100
AcDbPolyline
 90
2
 70
0
 10
190.472190
 20
221.947550
 30
0.0
 10
190.472190
 20
256.446570
 30
0.0
  0
LWPOLYLINE
  5
189
100
AcDbEntity
  8
corte
 62
1
100
AcDbPolyline
 90
2
 70
0
 10
190.472190
 20
262.447320
 30
0.0
 10
190.472190
 20
296.948990
 30
0.0
  0
LWPOLYLINE
  5
18a
100
AcDbEntity
  8
corte
 62
1
100
AcDbPolyline
 90
2
 70
0
 10
188.985650
 20
282.698530
 30
0.0
 10
188.985650
 20
297.446400
 30
0.0
  0
LWPOLYLINE
  5
18b
100
AcDbEntity
  8
corte
 62
1
100
AcDbPolyline
 90
2
 70
0
 10
188.985650
 20
242.198760
 30
0.0
 10
188.985650
 20
276.697780
 30
0.0
  0
LWPOLYLINE
  5
18c
100
AcDbEntity
  8
corte
 62
1
100
AcDbPolyline
 90
2
 70
0
 10
188.985650
 20
221.447490
 30
0.0
 10
188.985650
 20
236.198010
 30
0.0
  0
LWPOLYLINE
  5
18d
100
AcDbEntity
  8
corte
 62
1
100
AcDbPolyline
 90
2
 70
0
 10
187.499120
 20
221.947550
 30
0.0
 10
187.499120
 20
256.446570
 30
0.0
  0
LWPOLYLINE
  5
18e
100
AcDbEntity
  8
corte
 62
1
100
AcDbPolyline
 90
2
 70
0
 10
187.499120
 20
262.447320
 30
0.0
 10
187.499120
 20
296.948990
 30
0.0
  0
LWPOLYLINE
  5
18f
100
AcDbEntity
  8
corte
 62
1
100
AcDbPolyline
 90
2
 70
0
 10
186.012560
 20
282.698530
 30
0.0
 10
186.012560
 20
297.446400
 30
0.0
  0
LWPOLYLINE
  5
190
100
AcDbEntity
  8
corte
 62
1
100
AcDbPolyline
 90
2
 70
0
 10
186.012560
 20
242.198760
 30
0.0
 10
186.012560
 20
276.697780
 30
0.0
  0
LWPOLYLINE
  5
191
100
AcDbEntity
  8
corte
 62
1
100
AcDbPolyline
 90
2
 70
0
 10
186.012560
 20
221.447490
 30
0.0
 10
186.012560
 20
236.198010
 30
0.0
  0
LWPOLYLINE
  5
192
100
AcDbEntity
  8
corte
 62
1
100
AcDbPolyline
 90
2
 70
0
 10
184.526020
 20
221.947550
 30
0.0
 10
184.526020
 20
256.446570
 30
0.0
  0
LWPOLYLINE
  5
193
100
AcDbEntity
  8
corte
 62
1
100
AcDbPolyline
 90
2
 70
0
 10
184.526020
 20
262.447320
 30
0.0
 10
184.526020
 20
296.948990
 30
0.0
  0
LWPOLYLINE
  5
194
100
AcDbEntity
  8
corte
 62
1
100
AcDbPolyline
 90
2
 70
0
 10
183.039460
 20
282.698530
 30
0.0
 10
183.039460
 20
297.446400
 30
0.0
  0
LWPOLYLINE
  5
195
100
AcDbEntity
  8
corte
 62
1
100
AcDbPolyline
 90
2
 70
0
 10
183.039460
 20
242.198760
 30
0.0
 10
183.039460
 20
276.697780
 30
0.0
  0
LWPOLYLINE
  5
196
100
AcDbEntity
  8
corte
 62
1
100
AcDbPolyline
 90
2
 70
0
 10
183.039460
 20
221.447490
 30
0.0
 10
183.039460
 20
236.198010
 30
0.0
  0
LWPOLYLINE
  5
197
100
AcDbEntity
  8
corte
 62
1
100
AcDbPolyline
 90
2
 70
0
 10
181.552930
 20
221.947550
 30
0.0
 10
181.552930
 20
256.446570
 30
0.0
  0
LWPOLYLINE
  5
198
100
AcDbEntity
  8
corte
 62
1
100
AcDbPolyline
 90
2
 70
0
 10
181.552930
 20
262.447320
 30
0.0
 10
181.552930
 20
296.948990
 30
0.0
  0
LWPOLYLINE
  5
199
100
AcDbEntity
  8
corte
 62
1
100
AcDbPolyline
 90
2
 70
0
 10
180.066390
 20
282.698530
 30
0.0
 10
180.066390
 20
297.446400
 30
0.0
  0
LWPOLYLINE
  5
19a
100
AcDbEntity
  8
corte
 62
1
100
AcDbPolyline
 90
2
 70
0
 10
180.066390
 20
242.198760
 30
0.0
 10
180.066390
 20
276.697780
 30
0.0
  0
LWPOLYLINE
  5
19b
100
AcDbEntity
  8
corte
 62
1
100
AcDbPolyline
 90
2
 70
0
 10
180.066390
 20
221.447490
 30
0.0
 10
180.066390
 20
236.198010
 30
0.0
  0
LWPOLYLINE
  5
19c
100
AcDbEntity
  8
corte
 62
1
100
AcDbPolyline
 90
2
 70
0
 10
178.579830
 20
221.947550
 30
0.0
 10
178.579830
 20
256.446570
 30
0.0
  0
LWPOLYLINE
  5
19d
100
AcDbEntity
  8
corte
 62
1
100
AcDbPolyline
 90
2
 70
0
 10
178.579830
 20
262.447320
 30
0.0
 10
178.579830
 20
296.948990
 30
0.0
  0
LWPOLYLINE
  5
19e
100
AcDbEntity
  8
corte
 62
1
100
AcDbPolyline
 90
2
 70
0
 10
177.093300
 20
282.698530
 30
0.0
 10
177.093300
 20
297.446400
 30
0.0
  0
LWPOLYLINE
  5
19f
100
AcDbEntity
  8
corte
 62
1
100
AcDbPolyline
 90
2
 70
0
 10
177.093300
 20
242.198760
 30
0.0
 10
177.093300
 20
276.697780
 30
0.0
  0
LWPOLYLINE
  5
1a0
100
AcDbEntity
  8
corte
 62
1
100
AcDbPolyline
 90
2
 70
0
 10
177.093300
 20
221.447490
 30
0.0
 10
177.093300
 20
236.198010
 30
0.0
  0
LWPOLYLINE
  5
1a1
100
AcDbEntity
  8
corte
 62
1
100
AcDbPolyline
 90
2
 70
0
 10
175.606760
 20
221.947550
 30
0.0
 10
175.606760
 20
256.446570
 30
0.0
  0
LWPOLYLINE
  5
1a2
100
AcDbEntity
  8
corte
 62
1
100
AcDbPolyline
 90
2
 70
0
 10
175.606760
 20
262.447320
 30
0.0
 10
175.606760
 20
296.948990
 30
0.0
  0
LWPOLYLINE
  5
1a3
100
AcDbEntity
  8
corte
 62
1
100
AcDbPolyline
 90
2
 70
0
 10
174.120200
 20
282.698530
 30
0.0
 10
174.120200
 20
297.446400
 30
0.0
  0
LWPOLYLINE
  5
1a4
100
AcDbEntity
  8
corte
 62
1
100
AcDbPolyline
 90
2
 70
0
 10
174.120200
 20
242.198760
 30
0.0
 10
174.120200
 20
276.697780
 30
0.0
  0
LWPOLYLINE
  5
1a5
100
AcDbEntity
  8
corte
 62
1
100
AcDbPolyline
 90
2
 70
0
 10
174.120200
 20
221.447490
 30
0.0
 10
174.120200
 20
236.198010
 30
0.0
  0
LWPOLYLINE
  5
1a6
100
AcDbEntity
  8
corte
 62
1
100
AcDbPolyline
 90
2
 70
0
 10
203.851080
 20
282.698530
 30
0.0
 10
203.851080
 20
297.446400
 30
0.0
  0
LWPOLYLINE
  5
1a7
100
AcDbEntity
  8
corte
 62
1
100
AcDbPolyline
 90
2
 70
0
 10
203.851080
 20
242.198760
 30
0.0
 10
203.851080
 20
276.697780
 30
0.0
  0
LWPOLYLINE
  5
1a8
100
AcDbEntity
  8
corte
 62
1
100
AcDbPolyline
 90
2
 70
0
 10
203.851080
 20
221.447490
 30
0.0
 10
203.851080
 20
236.198010
 30
0.0
  0
LWPOLYLINE
  5
1a9
100
AcDbEntity
  8
corte
 62
1
100
AcDbPolyline
 90
2
 70
0
 10
172.633640
 20
262.447320
 30
0.0
 10
172.633640
 20
296.948990
 30
0.0
  0
LWPOLYLINE
  5
1aa
100
AcDbEntity
  8
corte
 62
1
100
AcDbPolyline
 90
2
 70
0
 10
172.633640
 20
221.947550
 30
0.0
 10
172.633640
 20
256.446570
 30
0.0
  0
LWPOLYLINE
  5
1ab
100
AcDbEntity
  8
corte
 62
1
100
AcDbPolyline
 90
2
 70
0
 10
171.147210
 20
282.698530
 30
0.0
 10
171.147210
 20
297.446400
 30
0.0
  0
LWPOLYLINE
  5
1ac
100
AcDbEntity
  8
corte
 62
1
100
AcDbPolyline
 90
2
 70
0
 10
171.147210
 20
242.198760
 30
0.0
 10
171.147210
 20
276.697780
 30
0.0
  0
LWPOLYLINE
  5
1ad
100
AcDbEntity
  8
corte
 62
1
100
AcDbPolyline
 90
2
 70
0
 10
171.147210
 20
221.447490
 30
0.0
 10
171.147210
 20
236.198010
 30
0.0
  0
LWPOLYLINE
  5
1ae
100
AcDbEntity
  8
corte
 62
1
100
AcDbPolyline
 90
2
 70
0
 10
104.660590
 20
221.947550
 30
0.0
 10
104.660590
 20
258.946880
 30
0.0
  0
LWPOLYLINE
  5
1af
100
AcDbEntity
  8
corte
 62
1
100
AcDbPolyline
 90
2
 70
0
 10
104.660590
 20
264.947630
 30
0.0
 10
104.660590
 20
301.946970
 30
0.0
  0
LWPOLYLINE
  5
1b0
100
AcDbEntity
  8
corte
 62
1
100
AcDbPolyline
 90
2
 70
0
 10
103.174160
 20
286.447670
 30
0.0
 10
103.174160
 20
302.447030
 30
0.0
  0
LWPOLYLINE
  5
1b1
100
AcDbEntity
  8
corte
 62
1
100
AcDbPolyline
 90
2
 70
0
 10
103.174160
 20
221.447490
 30
0.0
 10
103.174160
 20
237.446840
 30
0.0
  0
LWPOLYLINE
  5
1b2
100
AcDbEntity
  8
corte
 62
1
100
AcDbPolyline
 90
2
 70
0
 10
103.174160
 20
243.447590
 30
0.0
 10
103.174160
 20
280.446920
 30
0.0
  0
LWPOLYLINE
  5
1b3
100
AcDbEntity
  8
corte
 62
1
100
AcDbPolyline
 90
2
 70
0
 10
101.687470
 20
221.947550
 30
0.0
 10
101.687470
 20
258.946880
 30
0.0
  0
LWPOLYLINE
  5
1b4
100
AcDbEntity
  8
corte
 62
1
100
AcDbPolyline
 90
2
 70
0
 10
101.687470
 20
264.947630
 30
0.0
 10
101.687470
 20
301.946970
 30
0.0
  0
LWPOLYLINE
  5
1b5
100
AcDbEntity
  8
corte
 62
1
100
AcDbPolyline
 90
2
 70
0
 10
100.201040
 20
286.447670
 30
0.0
 10
100.201040
 20
302.447030
 30
0.0
  0
LWPOLYLINE
  5
1b6
100
AcDbEntity
  8
corte
 62
1
100
AcDbPolyline
 90
2
 70
0
 10
100.201040
 20
221.447490
 30
0.0
 10
100.201040
 20
237.446840
 30
0.0
  0
LWPOLYLINE
  5
1b7
100
AcDbEntity
  8
corte
 62
1
100
AcDbPolyline
 90
2
 70
0
 10
100.201040
 20
243.447590
 30
0.0
 10
100.201040
 20
280.446920
 30
0.0
  0
LWPOLYLINE
  5
1b8
100
AcDbEntity
  8
corte
 62
1
100
AcDbPolyline
 90
2
 70
0
 10
98.714347
 20
221.947550
 30
0.0
 10
98.714347
 20
258.946880
 30
0.0
  0
LWPOLYLINE
  5
1b9
100
AcDbEntity
  8
corte
 62
1
100
AcDbPolyline
 90
2
 70
0
 10
98.714347
 20
264.947630
 30
0.0
 10
98.714347
 20
301.946970
 30
0.0
  0
LWPOLYLINE
  5
1ba
100
AcDbEntity
  8
corte
 62
1
100
AcDbPolyline
 90
2
 70
0
 10
97.227918
 20
286.447670
 30
0.0
 10
97.227918
 20
302.447030
 30
0.0
  0
LWPOLYLINE
  5
1bb
100
AcDbEntity
  8
corte
 62
1
100
AcDbPolyline
 90
2
 70
0
 10
97.227918
 20
221.447490
 30
0.0
 10
97.227918
 20
237.446840
 30
0.0
  0
LWPOLYLINE
  5
1bc
100
AcDbEntity
  8
corte
 62
1
100
AcDbPolyline
 90
2
 70
0
 10
97.227918
 20
243.447590
 30
0.0
 10
97.227918
 20
280.446920
 30
0.0
  0
LWPOLYLINE
  5
1bd
100
AcDbEntity
  8
corte
 62
1
100
AcDbPolyline
 90
2
 70
0
 10
95.741224
 20
221.947550
 30
0.0
 10
95.741224
 20
258.946880
 30
0.0
  0
LWPOLYLINE
  5
1be
100
AcDbEntity
  8
corte
 62
1
100
AcDbPolyline
 90
2
 70
0
 10
95.741224
 20
264.947630
 30
0.0
 10
95.741224
 20
301.946970
 30
0.0
  0
LWPOLYLINE
  5
1bf
100
AcDbEntity
  8
corte
 62
1
100
AcDbPolyline
 90
2
 70
0
 10
94.254795
 20
286.447670
 30
0.0
 10
94.254795
 20
302.447030
 30
0.0
  0
LWPOLYLINE
  5
1c0
100
AcDbEntity
  8
corte
 62
1
100
AcDbPolyline
 90
2
 70
0
 10
94.254795
 20
221.447490
 30
0.0
 10
94.254795
 20
237.446840
 30
0.0
  0
LWPOLYLINE
  5
1c1
100
AcDbEntity
  8
corte
 62
1
100
AcDbPolyline
 90
2
 70
0
 10
94.254795
 20
243.447590
 30
0.0
 10
94.254795
 20
280.446920
 30
0.0
  0
LWPOLYLINE
  5
1c2
100
AcDbEntity
  8
corte
 62
1
100
AcDbPolyline
 90
2
 70
0
 10
92.768101
 20
221.947550
 30
0.0
 10
92.768101
 20
258.946880
 30
0.0
  0
LWPOLYLINE
  5
1c3
100
AcDbEntity
  8
corte
 62
1
100
AcDbPolyline
 90
2
 70
0
 10
92.768101
 20
264.947630
 30
0.0
 10
92.768101
 20
301.946970
 30
0.0
  0
LWPOLYLINE
  5
1c4
100
AcDbEntity
  8
corte
 62
1
100
AcDbPolyline
 90
2
 70
0
 10
91.281672
 20
286.447670
 30
0.0
 10
91.281672
 20
302.447030
 30
0.0
  0
LWPOLYLINE
  5
1c5
100
AcDbEntity
  8
corte
 62
1
100
AcDbPolyline
 90
2
 70
0
 10
91.281672
 20
221.447490
 30
0.0
 10
91.281672
 20
237.446840
 30
0.0
  0
LWPOLYLINE
  5
1c6
100
AcDbEntity
  8
corte
 62
1
100
AcDbPolyline
 90
2
 70
0
 10
91.281672
 20
243.447590
 30
0.0
 10
91.281672
 20
280.446920
 30
0.0
  0
LWPOLYLINE
  5
1c7
100
AcDbEntity
  8
corte
 62
1
100
AcDbPolyline
 90
2
 70
0
 10
89.795243
 20
221.947550
 30
0.0
 10
89.795243
 20
258.946880
 30
0.0
  0
LWPOLYLINE
  5
1c8
100
AcDbEntity
  8
corte
 62
1
100
AcDbPolyline
 90
2
 70
0
 10
89.795243
 20
264.947630
 30
0.0
 10
89.795243
 20
301.946970
 30
0.0
  0
LWPOLYLINE
  5
1c9
100
AcDbEntity
  8
corte
 62
1
100
AcDbPolyline
 90
2
 70
0
 10
88.308549
 20
286.447670
 30
0.0
 10
88.308549
 20
302.447030
 30
0.0
  0
LWPOLYLINE
  5
1ca
100
AcDbEntity
  8
corte
 62
1
100
AcDbPolyline
 90
2
 70
0
 10
88.308549
 20
221.447490
 30
0.0
 10
88.308549
 20
237.446840
 30
0.0
  0
LWPOLYLINE
  5
1cb
100
AcDbEntity
  8
corte
 62
1
100
AcDbPolyline
 90
2
 70
0
 10
88.308549
 20
243.447590
 30
0.0
 10
88.308549
 20
280.446920
 30
0.0
  0
LWPOLYLINE
  5
1cc
100
AcDbEntity
  8
corte
 62
1
100
AcDbPolyline
 90
2
 70
0
 10
86.822120
 20
221.947550
 30
0.0
 10
86.822120
 20
258.946880
 30
0.0
  0
LWPOLYLINE
  5
1cd
100
AcDbEntity
  8
corte
 62
1
100
AcDbPolyline
 90
2
 70
0
 10
86.822120
 20
264.947630
 30
0.0
 10
86.822120
 20
301.946970
 30
0.0
  0
LWPOLYLINE
  5
1ce
100
AcDbEntity
  8
corte
 62
1
100
AcDbPolyline
 90
2
 70
0
 10
85.335426
 20
286.447670
 30
0.0
 10
85.335426
 20
302.447030
 30
0.0
  0
LWPOLYLINE
  5
1cf
100
AcDbEntity
  8
corte
 62
1
100
AcDbPolyline
 90
2
 70
0
 10
85.335426
 20
221.447490
 30
0.0
 10
85.335426
 20
237.446840
 30
0.0
  0
LWPOLYLINE
  5
1d0
100
AcDbEntity
  8
corte
 62
1
100
AcDbPolyline
 90
2
 70
0
 10
85.335426
 20
243.447590
 30
0.0
 10
85.335426
 20
280.446920
 30
0.0
  0
LWPOLYLINE
  5
1d1
100
AcDbEntity
  8
corte
 62
1
100
AcDbPolyline
 90
2
 70
0
 10
83.848997
 20
221.947550
 30
0.0
 10
83.848997
 20
258.946880
 30
0.0
  0
LWPOLYLINE
  5
1d2
100
AcDbEntity
  8
corte
 62
1
100
AcDbPolyline
 90
2
 70
0
 10
83.848997
 20
264.947630
 30
0.0
 10
83.848997
 20
301.946970
 30
0.0
  0
LWPOLYLINE
  5
1d3
100
AcDbEntity
  8
corte
 62
1
100
AcDbPolyline
 90
2
 70
0
 10
82.362303
 20
286.447670
 30
0.0
 10
82.362303
 20
302.447030
 30
0.0
  0
LWPOLYLINE
  5
1d4
100
AcDbEntity
  8
corte
 62
1
100
AcDbPolyline
 90
2
 70
0
 10
82.362303
 20
221.447490
 30
0.0
 10
82.362303
 20
237.446840
 30
0.0
  0
LWPOLYLINE
  5
1d5
100
AcDbEntity
  8
corte
 62
1
100
AcDbPolyline
 90
2
 70
0
 10
82.362303
 20
243.447590
 30
0.0
 10
82.362303
 20
280.446920
 30
0.0
  0
LWPOLYLINE
  5
1d6
100
AcDbEntity
  8
corte
 62
1
100
AcDbPolyline
 90
2
 70
0
 10
80.875874
 20
221.947550
 30
0.0
 10
80.875874
 20
258.946880
 30
0.0
  0
LWPOLYLINE
  5
1d7
100
AcDbEntity
  8
corte
 62
1
100
AcDbPolyline
 90
2
 70
0
 10
80.875874
 20
264.947630
 30
0.0
 10
80.875874
 20
301.946970
 30
0.0
  0
LWPOLYLINE
  5
1d8
100
AcDbEntity
  8
corte
 62
1
100
AcDbPolyline
 90
2
 70
0
 10
79.389445
 20
286.447670
 30
0.0
 10
79.389445
 20
302.447030
 30
0.0
  0
LWPOLYLINE
  5
1d9
100
AcDbEntity
  8
corte
 62
1
100
AcDbPolyline
 90
2
 70
0
 10
79.389445
 20
221.447490
 30
0.0
 10
79.389445
 20
237.446840
 30
0.0
  0
LWPOLYLINE
  5
1da
100
AcDbEntity
  8
corte
 62
1
100
AcDbPolyline
 90
2
 70
0
 10
79.389445
 20
243.447590
 30
0.0
 10
79.389445
 20
280.446920
 30
0.0
  0
LWPOLYLINE
  5
1db
100
AcDbEntity
  8
corte
 62
1
100
AcDbPolyline
 90
2
 70
0
 10
77.902751
 20
221.947550
 30
0.0
 10
77.902751
 20
258.946880
 30
0.0
  0
LWPOLYLINE
  5
1dc
100
AcDbEntity
  8
corte
 62
1
100
AcDbPolyline
 90
2
 70
0
 10
77.902751
 20
264.947630
 30
0.0
 10
77.902751
 20
301.946970
 30
0.0
  0
LWPOLYLINE
  5
1dd
100
AcDbEntity
  8
corte
 62
1
100
AcDbPolyline
 90
2
 70
0
 10
76.416322
 20
286.447670
 30
0.0
 10
76.416322
 20
302.447030
 30
0.0
  0
LWPOLYLINE
  5
1de
100
AcDbEntity
  8
corte
 62
1
100
AcDbPolyline
 90
2
 70
0
 10
76.416322
 20
221.447490
 30
0.0
 10
76.416322
 20
237.446840
 30
0.0
  0
LWPOLYLINE
  5
1df
100
AcDbEntity
  8
corte
 62
1
100
AcDbPolyline
 90
2
 70
0
 10
76.416322
 20
243.447590
 30
0.0
 10
76.416322
 20
280.446920
 30
0.0
  0
LWPOLYLINE
  5
1e0
100
AcDbEntity
  8
corte
 62
1
100
AcDbPolyline
 90
2
 70
0
 10
106.147020
 20
286.447670
 30
0.0
 10
106.147020
 20
302.447030
 30
0.0
  0
LWPOLYLINE
  5
1e1
100
AcDbEntity
  8
corte
 62
1
100
AcDbPolyline
 90
2
 70
0
 10
106.147020
 20
243.447590
 30
0.0
 10
106.147020
 20
280.446920
 30
0.0
  0
LWPOLYLINE
  5
1e2
100
AcDbEntity
  8
corte
 62
1
100
AcDbPolyline
 90
2
 70
0
 10
106.147020
 20
221.447490
 30
0.0
 10
106.147020
 20
237.446840
 30
0.0
  0
LWPOLYLINE
  5
1e3
100
AcDbEntity
  8
corte
 62
1
100
AcDbPolyline
 90
2
 70
0
 10
74.929628
 20
264.947630
 30
0.0
 10
74.929628
 20
301.946970
 30
0.0
  0
LWPOLYLINE
  5
1e4
100
AcDbEntity
  8
corte
 62
1
100
AcDbPolyline
 90
2
 70
0
 10
74.929628
 20
221.947550
 30
0.0
 10
74.929628
 20
258.946880
 30
0.0
  0
LWPOLYLINE
  5
1e5
100
AcDbEntity
  8
corte
 62
1
100
AcDbPolyline
 90
2
 70
0
 10
73.443199
 20
286.447670
 30
0.0
 10
73.443199
 20
302.447030
 30
0.0
  0
LWPOLYLINE
  5
1e6
100
AcDbEntity
  8
corte
 62
1
100
AcDbPolyline
 90
2
 70
0
 10
73.443199
 20
243.447590
 30
0.0
 10
73.443199
 20
280.446920
 30
0.0
  0
LWPOLYLINE
  5
1e7
100
AcDbEntity
  8
corte
 62
1
100
AcDbPolyline
 90
2
 70
0
 10
73.443199
 20
221.447490
 30
0.0
 10
73.443199
 20
237.446840
 30
0.0
  0
LWPOLYLINE
  5
1e8
100
AcDbEntity
  8
corte
 62
1
100
AcDbPolyline
 90
3
 70
0
 10
106.147020
 20
207.596550
 30
0.0
 10
106.147020
 20
212.597170
 30
0.0
 10
171.147210
 20
212.597170
 30
0.0
  0
LWPOLYLINE
  5
1e9
100
AcDbEntity
  8
corte
 62
1
100
AcDbPolyline
 90
2
 70
0
 10
106.147020
 20
207.596550
 30
0.0
 10
73.443199
 20
207.596550
 30
0.0
  0
LWPOLYLINE
  5
1ea
100
AcDbEntity
  8
corte
 62
1
100
AcDbPolyline
 90
2
 70
0
 10
50.943033
 20
207.596550
 30
0.0
 10
73.443199
 20
207.596550
 30
0.0
  0
LWPOLYLINE
  5
1eb
100
AcDbEntity
  8
corte
 62
1
100
AcDbPolyline
 90
2
 70
0
 10
50.943033
 20
200.098260
 30
0.0
 10
50.943033
 20
207.596550
 30
0.0
  0
LWPOLYLINE
  5
1ec
100
AcDbEntity
  8
corte
 62
1
100
AcDbPolyline
 90
2
 70
0
 10
53.943143
 20
200.098260
 30
0.0
 10
50.943033
 20
200.098260
 30
0.0
  0
LWPOLYLINE
  5
1ed
100
AcDbEntity
  8
corte
 62
1
100
AcDbPolyline
 90
2
 70
0
 10
53.943143
 20
190.097010
 30
0.0
 10
53.943143
 20
200.098260
 30
0.0
  0
LWPOLYLINE
  5
1ee
100
AcDbEntity
  8
corte
 62
1
100
AcDbPolyline
 90
2
 70
0
 10
50.943033
 20
190.097010
 30
0.0
 10
53.943143
 20
190.097010
 30
0.0
  0
LWPOLYLINE
  5
1ef
100
AcDbEntity
  8
corte
 62
1
100
AcDbPolyline
 90
2
 70
0
 10
50.943033
 20
177.598090
 30
0.0
 10
50.943033
 20
190.097010
 30
0.0
  0
LWPOLYLINE
  5
1f0
100
AcDbEntity
  8
corte
 62
1
100
AcDbPolyline
 90
2
 70
0
 10
53.943143
 20
177.598090
 30
0.0
 10
50.943033
 20
177.598090
 30
0.0
  0
LWPOLYLINE
  5
1f1
100
AcDbEntity
  8
corte
 62
1
100
AcDbPolyline
 90
2
 70
0
 10
53.943143
 20
167.596840
 30
0.0
 10
53.943143
 20
177.598090
 30
0.0
  0
LWPOLYLINE
  5
1f2
100
AcDbEntity
  8
corte
 62
1
100
AcDbPolyline
 90
2
 70
0
 10
50.943033
 20
167.596840
 30
0.0
 10
53.943143
 20
167.596840
 30
0.0
  0
LWPOLYLINE
  5
1f3
100
AcDbEntity
  8
corte
 62
1
100
AcDbPolyline
 90
2
 70
0
 10
50.943033
 20
155.097930
 30
0.0
 10
50.943033
 20
167.596840
 30
0.0
  0
LWPOLYLINE
  5
1f4
100
AcDbEntity
  8
corte
 62
1
100
AcDbPolyline
 90
2
 70
0
 10
53.943143
 20
155.097930
 30
0.0
 10
50.943033
 20
155.097930
 30
0.0
  0
LWPOLYLINE
  5
1f5
100
AcDbEntity
  8
corte
 62
1
100
AcDbPolyline
 90
2
 70
0
 10
53.943143
 20
145.096680
 30
0.0
 10
53.943143
 20
155.097930
 30
0.0
  0
LWPOLYLINE
  5
1f6
100
AcDbEntity
  8
corte
 62
1
100
AcDbPolyline
 90
2
 70
0
 10
50.943033
 20
145.096680
 30
0.0
 10
53.943143
 20
145.096680
 30
0.0
  0
LWPOLYLINE
  5
1f7
100
AcDbEntity
  8
corte
 62
1
100
AcDbPolyline
 90
2
 70
0
 10
50.943033
 20
132.597760
 30
0.0
 10
50.943033
 20
145.096680
 30
0.0
  0
LWPOLYLINE
  5
1f8
100
AcDbEntity
  8
corte
 62
1
100
AcDbPolyline
 90
3
 70
0
 10
50.943033
 20
132.597760
 30
0.0
 10
60.943224
 20
132.597760
 30
0.0
 10
60.943224
 20
129.597380
 30
0.0
  0
LWPOLYLINE
  5
1f9
100
AcDbEntity
  8
corte
 62
1
100
AcDbPolyline
 90
2
 70
0
 10
70.943151
 20
129.597380
 30
0.0
 10
60.943224
 20
129.597380
 30
0.0
  0
LWPOLYLINE
  5
1fa
100
AcDbEntity
  8
corte
 62
1
100
AcDbPolyline
 90
2
 70
0
 10
70.943151
 20
132.597760
 30
0.0
 10
73.443199
 20
132.597760
 30
0.0
  0
LWPOLYLINE
  5
1fb
100
AcDbEntity
  8
corte
 62
1
100
AcDbPolyline
 90
2
 70
0
 10
70.943151
 20
129.597380
 30
0.0
 10
70.943151
 20
132.597760
 30
0.0
  0
LWPOLYLINE
  5
1fc
100
AcDbEntity
  8
corte
 62
1
100
AcDbPolyline
 90
15
 70
0
 10
73.443199
 20
132.597760
 30
0.0
 10
106.147020
 20
132.597760
 30
0.0
 10
108.647070
 20
132.597760
 30
0.0
 10
108.647070
 20
129.597380
 30
0.0
 10
118.647000
 20
129.597380
 30
0.0
 10
118.647000
 20
132.597760
 30
0.0
 10
133.647020
 20
132.597760
 30
0.0
 10
133.647020
 20
129.597380
 30
0.0
 10
143.647210
 20
129.597380
 30
0.0
 10
143.647210
 20
132.597760
 30
0.0
 10
158.647230
 20
132.597760
 30
0.0
 10
158.647230
 20
129.597380
 30
0.0
 10
168.647160
 20
129.597380
 30
0.0
 10
168.647160
 20
132.597760
 30
0.0
 10
171.147210
 20
132.597760
 30
0.0
  0
LWPOLYLINE
  5
1fd
100
AcDbEntity
  8
corte
 62
1
100
AcDbPolyline
 90
2
 70
0
 10
203.851080
 20
132.597760
 30
0.0
 10
206.351080
 20
132.597760
 30
0.0
  0
LWPOLYLINE
  5
1fe
100
AcDbEntity
  8
corte
 62
1
100
AcDbPolyline
 90
2
 70
0
 10
171.147210
 20
132.597760
 30
0.0
 10
203.851080
 20
132.597760
 30
0.0
  0
LWPOLYLINE
  5
1ff
100
AcDbEntity
  8
corte
 62
1
100
AcDbPolyline
 90
2
 70
0
 10
206.351080
 20
132.597760
 30
0.0
 10
206.351080
 20
129.597380
 30
0.0
  0
LWPOLYLINE
  5
200
100
AcDbEntity
  8
corte
 62
1
100
AcDbPolyline
 90
2
 70
0
 10
216.351090
 20
129.597380
 30
0.0
 10
206.351080
 20
129.597380
 30
0.0
  0
LWPOLYLINE
  5
201
100
AcDbEntity
  8
corte
 62
1
100
AcDbPolyline
 90
4
 70
0
 10
216.351090
 20
129.597380
 30
0.0
 10
216.351090
 20
132.597760
 30
0.0
 10
226.351090
 20
132.597760
 30
0.0
 10
226.351090
 20
145.096680
 30
0.0
  0
LWPOLYLINE
  5
202
100
AcDbEntity
  8
corte
 62
1
100
AcDbPolyline
 90
2
 70
0
 10
223.351090
 20
145.096680
 30
0.0
 10
226.351090
 20
145.096680
 30
0.0
  0
LWPOLYLINE
  5
203
100
AcDbEntity
  8
corte
 62
1
100
AcDbPolyline
 90
2
 70
0
 10
223.351090
 20
155.097930
 30
0.0
 10
223.351090
 20
145.096680
 30
0.0
  0
LWPOLYLINE
  5
204
100
AcDbEntity
  8
corte
 62
1
100
AcDbPolyline
 90
2
 70
0
 10
226.351090
 20
155.097930
 30
0.0
 10
223.351090
 20
155.097930
 30
0.0
  0
LWPOLYLINE
  5
205
100
AcDbEntity
  8
corte
 62
1
100
AcDbPolyline
 90
2
 70
0
 10
226.351090
 20
155.097930
 30
0.0
 10
226.351090
 20
167.596840
 30
0.0
  0
LWPOLYLINE
  5
206
100
AcDbEntity
  8
corte
 62
1
100
AcDbPolyline
 90
2
 70
0
 10
223.351090
 20
167.596840
 30
0.0
 10
226.351090
 20
167.596840
 30
0.0
  0
LWPOLYLINE
  5
207
100
AcDbEntity
  8
corte
 62
1
100
AcDbPolyline
 90
2
 70
0
 10
223.351090
 20
177.598090
 30
0.0
 10
223.351090
 20
167.596840
 30
0.0
  0
LWPOLYLINE
  5
208
100
AcDbEntity
  8
corte
 62
1
100
AcDbPolyline
 90
2
 70
0
 10
226.351090
 20
177.598090
 30
0.0
 10
223.351090
 20
177.598090
 30
0.0
  0
LWPOLYLINE
  5
209
100
AcDbEntity
  8
corte
 62
1
100
AcDbPolyline
 90
2
 70
0
 10
226.351090
 20
177.598090
 30
0.0
 10
226.351090
 20
190.097010
 30
0.0
  0
LWPOLYLINE
  5
20a
100
AcDbEntity
  8
corte
 62
1
100
AcDbPolyline
 90
2
 70
0
 10
223.351090
 20
190.097010
 30
0.0
 10
226.351090
 20
190.097010
 30
0.0
  0
LWPOLYLINE
  5
20b
100
AcDbEntity
  8
corte
 62
1
100
AcDbPolyline
 90
2
 70
0
 10
223.351090
 20
200.098260
 30
0.0
 10
223.351090
 20
190.097010
 30
0.0
  0
LWPOLYLINE
  5
20c
100
AcDbEntity
  8
corte
 62
1
100
AcDbPolyline
 90
2
 70
0
 10
226.351090
 20
200.098260
 30
0.0
 10
223.351090
 20
200.098260
 30
0.0
  0
LWPOLYLINE
  5
20d
100
AcDbEntity
  8
corte
 62
1
100
AcDbPolyline
 90
2
 70
0
 10
226.351090
 20
200.098260
 30
0.0
 10
226.351090
 20
212.597170
 30
0.0
  0
LWPOLYLINE
  5
20e
100
AcDbEntity
  8
corte
 62
1
100
AcDbPolyline
 90
3
 70
0
 10
171.147210
 20
212.597170
 30
0.0
 10
203.851080
 20
212.597170
 30
0.0
 10
226.351090
 20
212.597170
 30
0.0
  0
LWPOLYLINE
  5
20f
100
AcDbEntity
  8
corte
 62
1
100
AcDbPolyline
 90
4
 70
0
 10
133.647020
 20
221.947550
 30
0.0
 10
133.647020
 20
218.947170
 30
0.0
 10
143.647210
 20
218.947170
 30
0.0
 10
143.647210
 20
221.947550
 30
0.0
  0
LWPOLYLINE
  5
210
100
AcDbEntity
  8
corte
 62
1
100
AcDbPolyline
 90
2
 70
0
 10
158.647230
 20
221.947550
 30
0.0
 10
158.647230
 20
218.947170
 30
0.0
  0
LWPOLYLINE
  5
211
100
AcDbEntity
  8
corte
 62
1
100
AcDbPolyline
 90
2
 70
0
 10
143.647210
 20
221.947550
 30
0.0
 10
158.647230
 20
221.947550
 30
0.0
  0
LWPOLYLINE
  5
212
100
AcDbEntity
  8
corte
 62
1
100
AcDbPolyline
 90
5
 70
0
 10
158.647230
 20
218.947170
 30
0.0
 10
168.647160
 20
218.947170
 30
0.0
 10
168.647160
 20
221.947550
 30
0.0
 10
171.147210
 20
221.947550
 30
0.0
 10
203.851080
 20
221.947550
 30
0.0
  0
LWPOLYLINE
  5
213
100
AcDbEntity
  8
corte
 62
1
100
AcDbPolyline
 90
3
 70
0
 10
206.351080
 20
218.947170
 30
0.0
 10
206.351080
 20
221.947550
 30
0.0
 10
203.851080
 20
221.947550
 30
0.0
  0
LWPOLYLINE
  5
214
100
AcDbEntity
  8
corte
 62
1
100
AcDbPolyline
 90
2
 70
0
 10
206.351080
 20
218.947170
 30
0.0
 10
216.351090
 20
218.947170
 30
0.0
  0
LWPOLYLINE
  5
215
100
AcDbEntity
  8
corte
 62
1
100
AcDbPolyline
 90
2
 70
0
 10
216.351090
 20
221.947550
 30
0.0
 10
216.351090
 20
218.947170
 30
0.0
  0
LWPOLYLINE
  5
216
100
AcDbEntity
  8
corte
 62
1
100
AcDbPolyline
 90
2
 70
0
 10
226.351090
 20
221.947550
 30
0.0
 10
216.351090
 20
221.947550
 30
0.0
  0
LWPOLYLINE
  5
217
100
AcDbEntity
  8
corte
 62
1
100
AcDbPolyline
 90
14
 70
0
 10
226.351090
 20
221.947550
 30
0.0
 10
226.351090
 20
234.446470
 30
0.0
 10
229.351040
 20
234.446470
 30
0.0
 10
229.351040
 20
244.447720
 30
0.0
 10
226.351090
 20
244.447720
 30
0.0
 10
226.351090
 20
256.946630
 30
0.0
 10
229.351040
 20
256.946630
 30
0.0
 10
229.351040
 20
266.947880
 30
0.0
 10
226.351090
 20
266.947880
 30
0.0
 10
226.351090
 20
279.446800
 30
0.0
 10
229.351040
 20
279.446800
 30
0.0
 10
229.351040
 20
289.448050
 30
0.0
 10
226.351090
 20
289.448050
 30
0.0
 10
226.351090
 20
296.948990
 30
0.0
  0
LWPOLYLINE
  5
218
100
AcDbEntity
  8
corte
 62
1
100
AcDbPolyline
 90
2
 70
0
 10
203.851080
 20
296.948990
 30
0.0
 10
226.351090
 20
296.948990
 30
0.0
  0
LWPOLYLINE
  5
219
100
AcDbEntity
  8
corte
 62
1
100
AcDbPolyline
 90
4
 70
0
 10
203.851080
 20
296.948990
 30
0.0
 10
171.147210
 20
296.948990
 30
0.0
 10
171.147210
 20
301.946970
 30
0.0
 10
106.147020
 20
301.946970
 30
0.0
  0
LWPOLYLINE
  5
21a
100
AcDbEntity
  8
corte
 62
1
100
AcDbPolyline
 90
2
 70
0
 10
118.647000
 20
221.947550
 30
0.0
 10
133.647020
 20
221.947550
 30
0.0
  0
LWPOLYLINE
  5
21b
100
AcDbEntity
  8
corte
 62
1
100
AcDbPolyline
 90
2
 70
0
 10
118.647000
 20
218.947170
 30
0.0
 10
118.647000
 20
221.947550
 30
0.0
  0
LWPOLYLINE
  5
21c
100
AcDbEntity
  8
corte
 62
1
100
AcDbPolyline
 90
2
 70
0
 10
108.647070
 20
218.947170
 30
0.0
 10
118.647000
 20
218.947170
 30
0.0
  0
LWPOLYLINE
  5
21d
100
AcDbEntity
  8
corte
 62
1
100
AcDbPolyline
 90
2
 70
0
 10
108.647070
 20
221.947550
 30
0.0
 10
108.647070
 20
218.947170
 30
0.0
  0
LWPOLYLINE
  5
21e
100
AcDbEntity
  8
corte
 62
1
100
AcDbPolyline
 90
2
 70
0
 10
106.147020
 20
221.947550
 30
0.0
 10
108.647070
 20
221.947550
 30
0.0
  0
LWPOLYLINE
  5
21f
100
AcDbEntity
  8
corte
 62
1
100
AcDbPolyline
 90
2
 70
0
 10
73.443199
 20
221.947550
 30
0.0
 10
106.147020
 20
221.947550
 30
0.0
  0
LWPOLYLINE
  5
220
100
AcDbEntity
  8
corte
 62
1
100
AcDbPolyline
 90
3
 70
0
 10
73.443199
 20
221.947550
 30
0.0
 10
70.943151
 20
221.947550
 30
0.0
 10
70.943151
 20
218.947170
 30
0.0
  0
LWPOLYLINE
  5
221
100
AcDbEntity
  8
corte
 62
1
100
AcDbPolyline
 90
2
 70
0
 10
60.943224
 20
218.947170
 30
0.0
 10
70.943151
 20
218.947170
 30
0.0
  0
LWPOLYLINE
  5
222
100
AcDbEntity
  8
corte
 62
1
100
AcDbPolyline
 90
11
 70
0
 10
60.943224
 20
218.947170
 30
0.0
 10
60.943224
 20
221.947550
 30
0.0
 10
50.943033
 20
221.947550
 30
0.0
 10
50.943033
 20
234.446470
 30
0.0
 10
47.943187
 20
234.446470
 30
0.0
 10
47.943187
 20
244.447720
 30
0.0
 10
50.943033
 20
244.447720
 30
0.0
 10
50.943033
 20
256.946630
 30
0.0
 10
47.943187
 20
256.946630
 30
0.0
 10
47.943187
 20
266.947880
 30
0.0
 10
50.943033
 20
266.947880
 30
0.0
  0
LWPOLYLINE
  5
223
100
AcDbEntity
  8
corte
 62
1
100
AcDbPolyline
 90
2
 70
0
 10
106.147020
 20
301.946970
 30
0.0
 10
73.443199
 20
301.946970
 30
0.0
  0
LWPOLYLINE
  5
224
100
AcDbEntity
  8
corte
 62
1
100
AcDbPolyline
 90
3
 70
0
 10
50.943033
 20
266.947880
 30
0.0
 10
50.943033
 20
279.446800
 30
0.0
 10
47.943187
 20
279.446800
 30
0.0
  0
LWPOLYLINE
  5
225
100
AcDbEntity
  8
corte
 62
1
100
AcDbPolyline
 90
2
 70
0
 10
47.943187
 20
289.448050
 30
0.0
 10
50.943033
 20
289.448050
 30
0.0
  0
LWPOLYLINE
  5
226
100
AcDbEntity
  8
corte
 62
1
100
AcDbPolyline
 90
2
 70
0
 10
47.943187
 20
279.446800
 30
0.0
 10
47.943187
 20
289.448050
 30
0.0
  0
LWPOLYLINE
  5
227
100
AcDbEntity
  8
corte
 62
1
100
AcDbPolyline
 90
2
 70
0
 10
50.943033
 20
289.448050
 30
0.0
 10
50.943033
 20
301.946970
 30
0.0
  0
LWPOLYLINE
  5
228
100
AcDbEntity
  8
corte
 62
1
100
AcDbPolyline
 90
2
 70
0
 10
73.443199
 20
301.946970
 30
0.0
 10
50.943033
 20
301.946970
 30
0.0
  0
SPLINE
  5
229
100
AcDbEntity
  8
corte
 62
1
100
AcDbSpline
 70
8
 71
3
 72
8
 73
4
 74
0
 40
0
 40
0
 40
0
 40
0
 40
1
 40
1
 40
1
 40
1
 10
108.169820
 20
308.296960
 30
0.0
 10
114.137192
 20
308.296960
 30
0.0
 10
119.860155
 20
310.667489
 30
0.0
 10
124.079724
 20
314.887058
 30
0.0
  0
SPLINE
  5
22a
100
AcDbEntity
  8
corte
 62
1
100
AcDbSpline
 70
8
 71
3
 72
8
 73
4
 74
0
 40
0
 40
0
 40
0
 40
0
 40
1
 40
1
 40
1
 40
1
 10
124.079724
 20
314.887058
 30
0.0
 10
128.299292
 20
319.106628
 30
0.0
 10
130.669821
 20
324.829591
 30
0.0
 10
130.669820
 20
330.796963
 30
0.0
  0
LWPOLYLINE
  5
22b
100
AcDbEntity
  8
corte
 62
1
100
AcDbPolyline
 90
2
 70
0
 10
105.669820
 20
308.296960
 30
0.0
 10
108.169820
 20
308.296960
 30
0.0
  0
SPLINE
  5
22c
100
AcDbEntity
  8
corte
 62
1
100
AcDbSpline
 70
8
 71
3
 72
8
 73
4
 74
0
 40
0
 40
0
 40
0
 40
0
 40
1
 40
1
 40
1
 40
1
 10
130.669820
 20
375.796952
 30
0.0
 10
130.669822
 20
381.764324
 30
0.0
 10
128.299294
 20
387.487290
 30
0.0
 10
124.079725
 20
391.706860
 30
0.0
  0
SPLINE
  5
22d
100
AcDbEntity
  8
corte
 62
1
100
AcDbSpline
 70
8
 71
3
 72
8
 73
4
 74
0
 40
0
 40
0
 40
0
 40
0
 40
1
 40
1
 40
1
 40
1
 10
124.079725
 20
391.706860
 30
0.0
 10
119.860157
 20
395.926430
 30
0.0
 10
114.137192
 20
398.296960
 30
0.0
 10
108.169820
 20
398.296960
 30
0.0
  0
LWPOLYLINE
  5
22e
100
AcDbEntity
  8
corte
 62
1
100
AcDbPolyline
 90
10
 70
0
 10
130.669820
 20
330.796963
 30
0.0
 10
130.669820
 20
333.296958
 30
0.0
 10
127.669820
 20
333.296958
 30
0.0
 10
127.669820
 20
343.296965
 30
0.0
 10
130.669820
 20
343.296965
 30
0.0
 10
130.669820
 20
363.296951
 30
0.0
 10
127.669820
 20
363.296951
 30
0.0
 10
127.669820
 20
373.296957
 30
0.0
 10
130.669820
 20
373.296957
 30
0.0
 10
130.669820
 20
375.796952
 30
0.0
  0
SPLINE
  5
22f
100
AcDbEntity
  8
corte
 62
1
100
AcDbSpline
 70
8
 71
3
 72
8
 73
4
 74
0
 40
0
 40
0
 40
0
 40
0
 40
1
 40
1
 40
1
 40
1
 10
43.169824
 20
398.296960
 30
0.0
 10
37.202452
 20
398.296959
 30
0.0
 10
31.479488
 20
395.926429
 30
0.0
 10
27.259920
 20
391.706859
 30
0.0
  0
SPLINE
  5
230
100
AcDbEntity
  8
corte
 62
1
100
AcDbSpline
 70
8
 71
3
 72
8
 73
4
 74
0
 40
0
 40
0
 40
0
 40
0
 40
1
 40
1
 40
1
 40
1
 10
27.259920
 20
391.706859
 30
0.0
 10
23.040352
 20
387.487289
 30
0.0
 10
20.669824
 20
381.764324
 30
0.0
 10
20.669826
 20
375.796952
 30
0.0
  0
LWPOLYLINE
  5
231
100
AcDbEntity
  8
corte
 62
1
100
AcDbPolyline
 90
14
 70
0
 10
108.169820
 20
398.296960
 30
0.0
 10
105.669820
 20
398.296960
 30
0.0
 10
105.669820
 20
395.296955
 30
0.0
 10
95.669824
 20
395.296955
 30
0.0
 10
95.669824
 20
398.296960
 30
0.0
 10
80.669824
 20
398.296960
 30
0.0
 10
80.669824
 20
395.296955
 30
0.0
 10
70.669824
 20
395.296955
 30
0.0
 10
70.669824
 20
398.296960
 30
0.0
 10
55.669824
 20
398.296960
 30
0.0
 10
55.669824
 20
395.296955
 30
0.0
 10
45.669824
 20
395.296955
 30
0.0
 10
45.669824
 20
398.296960
 30
0.0
 10
43.169824
 20
398.296960
 30
0.0
  0
SPLINE
  5
232
100
AcDbEntity
  8
corte
 62
1
100
AcDbSpline
 70
8
 71
3
 72
8
 73
4
 74
0
 40
0
 40
0
 40
0
 40
0
 40
1
 40
1
 40
1
 40
1
 10
20.669826
 20
330.796963
 30
0.0
 10
20.669825
 20
324.829592
 30
0.0
 10
23.040353
 20
319.106628
 30
0.0
 10
27.259922
 20
314.887059
 30
0.0
  0
SPLINE
  5
233
100
AcDbEntity
  8
corte
 62
1
100
AcDbSpline
 70
8
 71
3
 72
8
 73
4
 74
0
 40
0
 40
0
 40
0
 40
0
 40
1
 40
1
 40
1
 40
1
 10
27.259922
 20
314.887059
 30
0.0
 10
31.479490
 20
310.667490
 30
0.0
 10
37.202453
 20
308.296961
 30
0.0
 10
43.169824
 20
308.296960
 30
0.0
  0
LWPOLYLINE
  5
234
100
AcDbEntity
  8
corte
 62
1
100
AcDbPolyline
 90
10
 70
0
 10
20.669826
 20
375.796952
 30
0.0
 10
20.669826
 20
373.296957
 30
0.0
 10
23.669825
 20
373.296957
 30
0.0
 10
23.669825
 20
363.296951
 30
0.0
 10
20.669826
 20
363.296951
 30
0.0
 10
20.669826
 20
343.296965
 30
0.0
 10
23.669825
 20
343.296965
 30
0.0
 10
23.669825
 20
333.296958
 30
0.0
 10
20.669826
 20
333.296958
 30
0.0
 10
20.669826
 20
330.796963
 30
0.0
  0
LWPOLYLINE
  5
235
100
AcDbEntity
  8
corte
 62
1
100
AcDbPolyline
 90
13
 70
0
 10
43.169824
 20
308.296960
 30
0.0
 10
45.669824
 20
308.296960
 30
0.0
 10
45.669824
 20
311.296960
 30
0.0
 10
55.669824
 20
311.296960
 30
0.0
 10
55.669824
 20
308.296960
 30
0.0
 10
70.669824
 20
308.296960
 30
0.0
 10
70.669824
 20
311.296960
 30
0.0
 10
80.669824
 20
311.296960
 30
0.0
 10
80.669824
 20
308.296960
 30
0.0
 10
95.669824
 20
308.296960
 30
0.0
 10
95.669824
 20
311.296960
 30
0.0
 10
105.669820
 20
311.296960
 30
0.0
 10
105.669820
 20
308.296960
 30
0.0
  0
SPLINE
  5
236
100
AcDbEntity
  8
corte
 62
1
100
AcDbSpline
 70
8
 71
3
 72
8
 73
4
 74
0
 40
0
 40
0
 40
0
 40
0
 40
1
 40
1
 40
1
 40
1
 10
246.710640
 20
375.796950
 30
0.0
 10
246.710640
 20
381.233888
 30
0.0
 10
244.550825
 20
386.448143
 30
0.0
 10
240.706329
 20
390.292639
 30
0.0
  0
SPLINE
  5
237
100
AcDbEntity
  8
corte
 62
1
100
AcDbSpline
 70
8
 71
3
 72
8
 73
4
 74
0
 40
0
 40
0
 40
0
 40
0
 40
1
 40
1
 40
1
 40
1
 10
240.706329
 20
390.292639
 30
0.0
 10
236.861833
 20
394.137135
 30
0.0
 10
231.647578
 20
396.296950
 30
0.0
 10
226.210640
 20
396.296950
 30
0.0
  0
LWPOLYLINE
  5
238
100
AcDbEntity
  8
corte
 62
1
100
AcDbPolyline
 90
2
 70
0
 10
246.710640
 20
330.796940
 30
0.0
 10
246.710640
 20
375.796950
 30
0.0
  0
SPLINE
  5
239
100
AcDbEntity
  8
corte
 62
1
100
AcDbSpline
 70
8
 71
3
 72
8
 73
4
 74
0
 40
0
 40
0
 40
0
 40
0
 40
1
 40
1
 40
1
 40
1
 10
161.210640
 20
398.296930
 30
0.0
 10
148.784241
 20
398.296930
 30
0.0
 10
138.710651
 20
388.223349
 30
0.0
 10
138.710640
 20
375.796950
 30
0.0
  0
LWPOLYLINE
  5
23a
100
AcDbEntity
  8
corte
 62
1
100
AcDbPolyline
 90
3
 70
0
 10
226.210640
 20
396.296950
 30
0.0
 10
161.210640
 20
396.296950
 30
0.0
 10
161.210640
 20
398.296930
 30
0.0
  0
SPLINE
  5
23b
100
AcDbEntity
  8
corte
 62
1
100
AcDbSpline
 70
8
 71
3
 72
8
 73
4
 74
0
 40
0
 40
0
 40
0
 40
0
 40
1
 40
1
 40
1
 40
1
 10
138.710640
 20
330.796940
 30
0.0
 10
138.710651
 20
318.370541
 30
0.0
 10
148.784241
 20
308.296960
 30
0.0
 10
161.210640
 20
308.296960
 30
0.0
  0
LWPOLYLINE
  5
23c
100
AcDbEntity
  8
corte
 62
1
100
AcDbPolyline
 90
2
 70
0
 10
138.710640
 20
375.796950
 30
0.0
 10
138.710640
 20
330.796940
 30
0.0
  0
SPLINE
  5
23d
100
AcDbEntity
  8
corte
 62
1
100
AcDbSpline
 70
8
 71
3
 72
8
 73
4
 74
0
 40
0
 40
0
 40
0
 40
0
 40
1
 40
1
 40
1
 40
1
 10
226.210640
 20
310.296940
 30
0.0
 10
231.647578
 20
310.296940
 30
0.0
 10
236.861833
 20
312.456755
 30
0.0
 10
240.706329
 20
316.301251
 30
0.0
  0
SPLINE
  5
23e
100
AcDbEntity
  8
corte
 62
1
100
AcDbSpline
 70
8
 71
3
 72
8
 73
4
 74
0
 40
0
 40
0
 40
0
 40
0
 40
1
 40
1
 40
1
 40
1
 10
240.706329
 20
316.301251
 30
0.0
 10
244.550825
 20
320.145747
 30
0.0
 10
246.710640
 20
325.360002
 30
0.0
 10
246.710640
 20
330.796940
 30
0.0
  0
LWPOLYLINE
  5
23f
100
AcDbEntity
  8
corte
 62
1
100
AcDbPolyline
 90
3
 70
0
 10
161.210640
 20
308.296960
 30
0.0
 10
161.210640
 20
310.296940
 30
0.0
 10
226.210640
 20
310.296940
 30
0.0
  0
SPLINE
  5
240
100
AcDbEntity
  8
contorno
 62
3
100
AcDbSpline
 70
8
 71
3
 72
8
 73
4
 74
0
 40
0
 40
0
 40
0
 40
0
 40
1
 40
1
 40
1
 40
1
 10
159.721940
 20
396.182874
 30
0.0
 10
155.056560
 20
395.745698
 30
0.0
 10
150.214390
 20
393.425325
 30
0.0
 10
146.898440
 20
390.109375
 30
0.0
  0
SPLINE
  5
241
100
AcDbEntity
  8
contorno
 62
3
100
AcDbSpline
 70
8
 71
3
 72
8
 73
4
 74
0
 40
0
 40
0
 40
0
 40
0
 40
1
 40
1
 40
1
 40
1
 10
146.898440
 20
390.109375
 30
0.0
 10
143.151180
 20
386.362116
 30
0.0
 10
140.968750
 20
381.096300
 30
0.0
 10
140.968750
 20
375.796875
 30
0.0
  0
LWPOLYLINE
  5
242
100
AcDbEntity
  8
corte
 62
1
100
AcDbPolyline
 90
1
 70
1
 10
246.710640
 20
330.796940
 30
0.0
  0
SPLINE
  5
243
100
AcDbEntity
  8
contorno
 62
3
100
AcDbSpline
 70
8
 71
3
 72
8
 73
4
 74
0
 40
0
 40
0
 40
0
 40
0
 40
1
 40
1
 40
1
 40
1
 10
140.968750
 20
330.796875
 30
0.0
 10
140.968750
 20
325.497451
 30
0.0
 10
143.151180
 20
320.231633
 30
0.0
 10
146.898440
 20
316.484380
 30
0.0
  0
SPLINE
  5
244
100
AcDbEntity
  8
contorno
 62
3
100
AcDbSpline
 70
8
 71
3
 72
8
 73
4
 74
0
 40
0
 40
0
 40
0
 40
0
 40
1
 40
1
 40
1
 40
1
 10
146.898440
 20
316.484380
 30
0.0
 10
150.214390
 20
313.168430
 30
0.0
 10
154.993730
 20
311.043170
 30
0.0
 10
159.659110
 20
310.605990
 30
0.0
  0
SPLINE
  5
245
100
AcDbEntity
  8
contorno
 62
3
100
AcDbSpline
 70
8
 71
3
 72
8
 73
4
 74
0
 40
0
 40
0
 40
0
 40
0
 40
1
 40
1
 40
1
 40
1
 10
159.659110
 20
310.605990
 30
0.0
 10
159.827620
 20
311.530440
 30
0.0
 10
159.955760
 20
312.386180
 30
0.0
 10
160.880210
 20
312.554690
 30
0.0
  0
LWPOLYLINE
  5
246
100
AcDbEntity
  8
contorno
 62
3
100
AcDbPolyline
 90
2
 70
0
 10
140.968750
 20
375.796875
 30
0.0
 10
140.968750
 20
330.796875
 30
0.0
  0
SPLINE
  5
247
100
AcDbEntity
  8
contorno
 62
3
100
AcDbSpline
 70
8
 71
3
 72
8
 73
4
 74
0
 40
0
 40
0
 40
0
 40
0
 40
1
 40
1
 40
1
 40
1
 10
226.210940
 20
312.554690
 30
0.0
 10
230.986760
 20
312.554690
 30
0.0
 10
235.732360
 20
314.521420
 30
0.0
 10
239.109380
 20
317.898440
 30
0.0
  0
SPLINE
  5
248
100
AcDbEntity
  8
contorno
 62
3
100
AcDbSpline
 70
8
 71
3
 72
8
 73
4
 74
0
 40
0
 40
0
 40
0
 40
0
 40
1
 40
1
 40
1
 40
1
 10
239.109380
 20
317.898440
 30
0.0
 10
242.486390
 20
321.275455
 30
0.0
 10
244.453120
 20
326.021050
 30
0.0
 10
244.453120
 20
330.796875
 30
0.0
  0
LWPOLYLINE
  5
249
100
AcDbEntity
  8
contorno
 62
3
100
AcDbPolyline
 90
2
 70
0
 10
160.880210
 20
312.554690
 30
0.0
 10
226.210940
 20
312.554690
 30
0.0
  0
SPLINE
  5
24a
100
AcDbEntity
  8
contorno
 62
3
100
AcDbSpline
 70
8
 71
3
 72
8
 73
4
 74
0
 40
0
 40
0
 40
0
 40
0
 40
1
 40
1
 40
1
 40
1
 10
244.453120
 20
375.796875
 30
0.0
 10
244.453120
 20
380.572701
 30
0.0
 10
242.486390
 20
385.318294
 30
0.0
 10
239.109380
 20
388.695312
 30
0.0
  0
SPLINE
  5
24b
100
AcDbEntity
  8
contorno
 62
3
100
AcDbSpline
 70
8
 71
3
 72
8
 73
4
 74
0
 40
0
 40
0
 40
0
 40
0
 40
1
 40
1
 40
1
 40
1
 10
239.109380
 20
388.695312
 30
0.0
 10
235.732360
 20
392.072331
 30
0.0
 10
230.986760
 20
394.039062
 30
0.0
 10
226.210940
 20
394.039062
 30
0.0
  0
LWPOLYLINE
  5
24c
100
AcDbEntity
  8
contorno
 62
3
100
AcDbPolyline
 90
2
 70
0
 10
244.453120
 20
330.796875
 30
0.0
 10
244.453120
 20
375.796875
 30
0.0
  0
SPLINE
  5
24d
100
AcDbEntity
  8
contorno
 62
3
100
AcDbSpline
 70
8
 71
3
 72
8
 73
4
 74
0
 40
0
 40
0
 40
0
 40
0
 40
1
 40
1
 40
1
 40
1
 10
160.696450
 20
394.039062
 30
0.0
 10
159.771990
 20
394.207572
 30
0.0
 10
159.890450
 20
395.258422
 30
0.0
 10
159.721940
 20
396.182874
 30
0.0
  0
LWPOLYLINE
  5
24e
100
AcDbEntity
  8
contorno
 62
3
100
AcDbPolyline
 90
2
 70
0
 10
226.210940
 20
394.039062
 30
0.0
 10
160.696450
 20
394.039062
 30
0.0
  0
LWPOLYLINE
  5
24f
100
AcDbEntity
  8
contorno
 62
3
100
AcDbPolyline
 90
1
 70
1
 10
159.721940
 20
396.182874
 30
0.0
  0
LWPOLYLINE
  5
250
100
AcDbEntity
  8
raster
 62
7
100
AcDbPolyline
 90
4
 70
1
 10
50.943030
 20
296.948990
 30
0.0
 10
50.943030
 20
299.946720
 30
0.0
 10
171.147210
 20
299.946720
 30
0.0
 10
171.147210
 20
296.948990
 30
0.0
  0
SPLINE
  5
251
100
AcDbEntity
  8
raster
 62
7
100
AcDbSpline
 70
8
 71
3
 72
8
 73
4
 74
0
 40
0
 40
0
 40
0
 40
0
 40
1
 40
1
 40
1
 40
1
 10
201.101680
 20
371.356799
 30
0.0
 10
200.895160
 20
371.356799
 30
0.0
 10
200.751490
 20
371.266169
 30
0.0
 10
200.655240
 20
371.075156
 30
0.0
  0
LWPOLYLINE
  5
252
100
AcDbEntity
  8
raster
 62
7
100
AcDbPolyline
 90
4
 70
1
 10
106.147020
 20
207.596550
 30
0.0
 10
106.147020
 20
210.596920
 30
0.0
 10
226.351090
 20
210.596920
 30
0.0
 10
226.351090
 20
207.596550
 30
0.0
  0
SPLINE
  5
253
100
AcDbEntity
  8
raster
 62
7
100
AcDbSpline
 70
8
 71
3
 72
8
 73
4
 74
0
 40
0
 40
0
 40
0
 40
0
 40
1
 40
1
 40
1
 40
1
 10
200.419740
 20
368.321754
 30
0.0
 10
200.324540
 20
368.284284
 30
0.0
 10
199.249760
 20
369.189884
 30
0.0
 10
198.958650
 20
369.552887
 30
0.0
  0
SPLINE
  5
254
100
AcDbEntity
  8
raster
 62
7
100
AcDbSpline
 70
8
 71
3
 72
8
 73
4
 74
0
 40
0
 40
0
 40
0
 40
0
 40
1
 40
1
 40
1
 40
1
 10
198.958650
 20
369.552887
 30
0.0
 10
198.836330
 20
369.705434
 30
0.0
 10
198.592320
 20
370.042290
 30
0.0
 10
198.416260
 20
370.301400
 30
0.0
  0
LWPOLYLINE
  5
255
100
AcDbEntity
  8
raster
 62
7
100
AcDbPolyline
 90
5
 70
0
 10
200.655240
 20
371.075156
 30
0.0
 10
200.573040
 20
370.912263
 30
0.0
 10
200.533440
 20
369.631473
 30
0.0
 10
200.493840
 20
368.350944
 30
0.0
 10
200.419740
 20
368.321754
 30
0.0
  0
SPLINE
  5
256
100
AcDbEntity
  8
raster
 62
7
100
AcDbSpline
 70
8
 71
3
 72
8
 73
4
 74
0
 40
0
 40
0
 40
0
 40
0
 40
1
 40
1
 40
1
 40
1
 10
197.906420
 20
370.836834
 30
0.0
 10
197.355290
 20
371.023506
 30
0.0
 10
197.025060
 20
370.495754
 30
0.0
 10
197.320250
 20
369.899951
 30
0.0
  0
SPLINE
  5
257
100
AcDbEntity
  8
raster
 62
7
100
AcDbSpline
 70
8
 71
3
 72
8
 73
4
 74
0
 40
0
 40
0
 40
0
 40
0
 40
1
 40
1
 40
1
 40
1
 10
197.320250
 20
369.899951
 30
0.0
 10
197.727150
 20
369.078660
 30
0.0
 10
198.476570
 20
368.246601
 30
0.0
 10
199.541740
 20
367.433210
 30
0.0
  0
LWPOLYLINE
  5
258
100
AcDbEntity
  8
raster
 62
7
100
AcDbPolyline
 90
3
 70
0
 10
198.416260
 20
370.301400
 30
0.0
 10
198.096100
 20
370.772464
 30
0.0
 10
197.906420
 20
370.836834
 30
0.0
  0
SPLINE
  5
259
100
AcDbEntity
  8
raster
 62
7
100
AcDbSpline
 70
8
 71
3
 72
8
 73
4
 74
0
 40
0
 40
0
 40
0
 40
0
 40
1
 40
1
 40
1
 40
1
 10
200.424790
 20
366.647920
 30
0.0
 10
200.502390
 20
366.527565
 30
0.0
 10
200.593040
 20
366.287042
 30
0.0
 10
200.626260
 20
366.113533
 30
0.0
  0
LWPOLYLINE
  5
25a
100
AcDbEntity
  8
raster
 62
7
100
AcDbPolyline
 90
3
 70
0
 10
199.541740
 20
367.433210
 30
0.0
 10
200.283650
 20
366.866774
 30
0.0
 10
200.424790
 20
366.647920
 30
0.0
  0
SPLINE
  5
25b
100
AcDbEntity
  8
raster
 62
7
100
AcDbSpline
 70
8
 71
3
 72
8
 73
4
 74
0
 40
0
 40
0
 40
0
 40
0
 40
1
 40
1
 40
1
 40
1
 10
200.650960
 20
364.012510
 30
0.0
 10
200.650960
 20
364.012510
 30
0.0
 10
200.582260
 20
363.962790
 30
0.0
 10
200.553060
 20
363.291848
 30
0.0
  0
SPLINE
  5
25c
100
AcDbEntity
  8
raster
 62
7
100
AcDbSpline
 70
8
 71
3
 72
8
 73
4
 74
0
 40
0
 40
0
 40
0
 40
0
 40
1
 40
1
 40
1
 40
1
 10
200.553060
 20
363.291848
 30
0.0
 10
200.452900
 20
362.928179
 30
0.0
 10
199.715080
 20
362.707358
 30
0.0
 10
199.579380
 20
362.849416
 30
0.0
  0
SPLINE
  5
25d
100
AcDbEntity
  8
raster
 62
7
100
AcDbSpline
 70
8
 71
3
 72
8
 73
4
 74
0
 40
0
 40
0
 40
0
 40
0
 40
1
 40
1
 40
1
 40
1
 10
199.579380
 20
362.849416
 30
0.0
 10
199.363300
 20
363.060457
 30
0.0
 10
198.983710
 20
363.196643
 30
0.0
 10
198.659580
 20
363.456318
 30
0.0
  0
SPLINE
  5
25e
100
AcDbEntity
  8
raster
 62
7
100
AcDbSpline
 70
8
 71
3
 72
8
 73
4
 74
0
 40
0
 40
0
 40
0
 40
0
 40
1
 40
1
 40
1
 40
1
 10
198.659580
 20
363.456318
 30
0.0
 10
197.424590
 20
364.445718
 30
0.0
 10
197.384530
 20
364.495710
 30
0.0
 10
197.142950
 20
365.351100
 30
0.0
  0
SPLINE
  5
25f
100
AcDbEntity
  8
raster
 62
7
100
AcDbSpline
 70
8
 71
3
 72
8
 73
4
 74
0
 40
0
 40
0
 40
0
 40
0
 40
1
 40
1
 40
1
 40
1
 10
197.142950
 20
365.351100
 30
0.0
 10
196.814100
 20
366.515525
 30
0.0
 10
196.336390
 20
367.365358
 30
0.0
 10
195.579730
 20
368.132591
 30
0.0
  0
LWPOLYLINE
  5
260
100
AcDbEntity
  8
raster
 62
7
100
AcDbPolyline
 90
3
 70
0
 10
200.626260
 20
366.113533
 30
0.0
 10
200.686560
 20
365.798264
 30
0.0
 10
200.650960
 20
364.012510
 30
0.0
  0
SPLINE
  5
261
100
AcDbEntity
  8
raster
 62
7
100
AcDbSpline
 70
8
 71
3
 72
8
 73
4
 74
0
 40
0
 40
0
 40
0
 40
0
 40
1
 40
1
 40
1
 40
1
 10
194.642250
 20
368.864809
 30
0.0
 10
194.392920
 20
368.997359
 30
0.0
 10
194.087360
 20
369.122402
 30
0.0
 10
193.963200
 20
369.142775
 30
0.0
  0
LWPOLYLINE
  5
262
100
AcDbEntity
  8
raster
 62
7
100
AcDbPolyline
 90
3
 70
0
 10
195.579730
 20
368.132591
 30
0.0
 10
195.095420
 20
368.623890
 30
0.0
 10
194.642250
 20
368.864809
 30
0.0
  0
SPLINE
  5
263
100
AcDbEntity
  8
raster
 62
7
100
AcDbSpline
 70
8
 71
3
 72
8
 73
4
 74
0
 40
0
 40
0
 40
0
 40
0
 40
1
 40
1
 40
1
 40
1
 10
193.558300
 20
369.084985
 30
0.0
 10
193.459900
 20
369.032745
 30
0.0
 10
193.336910
 20
368.898516
 30
0.0
 10
193.285000
 20
368.786794
 30
0.0
  0
LWPOLYLINE
  5
264
100
AcDbEntity
  8
raster
 62
7
100
AcDbPolyline
 90
3
 70
0
 10
193.963200
 20
369.142775
 30
0.0
 10
193.737320
 20
369.179835
 30
0.0
 10
193.558300
 20
369.084985
 30
0.0
  0
SPLINE
  5
265
100
AcDbEntity
  8
raster
 62
7
100
AcDbSpline
 70
8
 71
3
 72
8
 73
4
 74
0
 40
0
 40
0
 40
0
 40
0
 40
1
 40
1
 40
1
 40
1
 10
195.626020
 20
366.171084
 30
0.0
 10
195.752890
 20
365.920811
 30
0.0
 10
195.892390
 20
365.612192
 30
0.0
 10
195.936080
 20
365.485106
 30
0.0
  0
LWPOLYLINE
  5
266
100
AcDbEntity
  8
raster
 62
7
100
AcDbPolyline
 90
9
 70
0
 10
193.285000
 20
368.786794
 30
0.0
 10
193.190700
 20
368.583705
 30
0.0
 10
193.301250
 20
368.371685
 30
0.0
 10
193.411810
 20
368.159928
 30
0.0
 10
193.953930
 20
367.886166
 30
0.0
 10
194.496050
 20
367.612668
 30
0.0
 10
194.945570
 20
367.119529
 30
0.0
 10
195.395360
 20
366.626129
 30
0.0
 10
195.626020
 20
366.171084
 30
0.0
  0
SPLINE
  5
267
100
AcDbEntity
  8
raster
 62
7
100
AcDbSpline
 70
8
 71
3
 72
8
 73
4
 74
0
 40
0
 40
0
 40
0
 40
0
 40
1
 40
1
 40
1
 40
1
 10
195.961280
 20
365.219738
 30
0.0
 10
195.931580
 20
365.200878
 30
0.0
 10
195.699370
 20
365.237028
 30
0.0
 10
195.445260
 20
365.300138
 30
0.0
  0
SPLINE
  5
268
100
AcDbEntity
  8
raster
 62
7
100
AcDbSpline
 70
8
 71
3
 72
8
 73
4
 74
0
 40
0
 40
0
 40
0
 40
0
 40
1
 40
1
 40
1
 40
1
 10
195.445260
 20
365.300138
 30
0.0
 10
195.191130
 20
365.363248
 30
0.0
 10
194.616980
 20
365.470149
 30
0.0
 10
194.169370
 20
365.537904
 30
0.0
  0
SPLINE
  5
269
100
AcDbEntity
  8
raster
 62
7
100
AcDbSpline
 70
8
 71
3
 72
8
 73
4
 74
0
 40
0
 40
0
 40
0
 40
0
 40
1
 40
1
 40
1
 40
1
 10
194.169370
 20
365.537904
 30
0.0
 10
193.127610
 20
365.695602
 30
0.0
 10
192.645640
 20
365.829598
 30
0.0
 10
192.091820
 20
366.115379
 30
0.0
  0
SPLINE
  5
26a
100
AcDbEntity
  8
raster
 62
7
100
AcDbSpline
 70
8
 71
3
 72
8
 73
4
 74
0
 40
0
 40
0
 40
0
 40
0
 40
1
 40
1
 40
1
 40
1
 10
192.091820
 20
366.115379
 30
0.0
 10
191.846640
 20
366.241891
 30
0.0
 10
191.585800
 20
366.345525
 30
0.0
 10
191.512100
 20
366.345525
 30
0.0
  0
SPLINE
  5
26b
100
AcDbEntity
  8
raster
 62
7
100
AcDbSpline
 70
8
 71
3
 72
8
 73
4
 74
0
 40
0
 40
0
 40
0
 40
0
 40
1
 40
1
 40
1
 40
1
 10
191.512100
 20
366.345525
 30
0.0
 10
191.325370
 20
366.345525
 30
0.0
 10
191.102120
 20
366.149224
 30
0.0
 10
191.028630
 20
365.920695
 30
0.0
  0
LWPOLYLINE
  5
26c
100
AcDbEntity
  8
raster
 62
7
100
AcDbPolyline
 90
3
 70
0
 10
195.936080
 20
365.485106
 30
0.0
 10
196.015480
 20
365.253908
 30
0.0
 10
195.961280
 20
365.219738
 30
0.0
  0
SPLINE
  5
26d
100
AcDbEntity
  8
raster
 62
7
100
AcDbSpline
 70
8
 71
3
 72
8
 73
4
 74
0
 40
0
 40
0
 40
0
 40
0
 40
1
 40
1
 40
1
 40
1
 10
191.028330
 20
365.561550
 30
0.0
 10
191.120130
 20
365.312843
 30
0.0
 10
191.297280
 20
365.143681
 30
0.0
 10
191.667820
 20
364.950974
 30
0.0
  0
SPLINE
  5
26e
100
AcDbEntity
  8
raster
 62
7
100
AcDbSpline
 70
8
 71
3
 72
8
 73
4
 74
0
 40
0
 40
0
 40
0
 40
0
 40
1
 40
1
 40
1
 40
1
 10
191.667820
 20
364.950974
 30
0.0
 10
192.025220
 20
364.765095
 30
0.0
 10
192.861710
 20
364.531146
 30
0.0
 10
193.376100
 20
364.473071
 30
0.0
  0
SPLINE
  5
26f
100
AcDbEntity
  8
raster
 62
7
100
AcDbSpline
 70
8
 71
3
 72
8
 73
4
 74
0
 40
0
 40
0
 40
0
 40
0
 40
1
 40
1
 40
1
 40
1
 10
193.376100
 20
364.473071
 30
0.0
 10
193.929890
 20
364.410541
 30
0.0
 10
194.863100
 20
364.264762
 30
0.0
 10
195.095320
 20
364.204566
 30
0.0
  0
SPLINE
  5
270
100
AcDbEntity
  8
raster
 62
7
100
AcDbSpline
 70
8
 71
3
 72
8
 73
4
 74
0
 40
0
 40
0
 40
0
 40
0
 40
1
 40
1
 40
1
 40
1
 10
195.095320
 20
364.204566
 30
0.0
 10
195.452470
 20
364.111986
 30
0.0
 10
196.470550
 20
363.691888
 30
0.0
 10
196.470550
 20
363.637077
 30
0.0
  0
SPLINE
  5
271
100
AcDbEntity
  8
raster
 62
7
100
AcDbSpline
 70
8
 71
3
 72
8
 73
4
 74
0
 40
0
 40
0
 40
0
 40
0
 40
1
 40
1
 40
1
 40
1
 10
196.470550
 20
363.637077
 30
0.0
 10
196.470550
 20
363.561907
 30
0.0
 10
196.408050
 20
363.533997
 30
0.0
 10
195.899800
 20
363.381968
 30
0.0
  0
SPLINE
  5
272
100
AcDbEntity
  8
raster
 62
7
100
AcDbSpline
 70
8
 71
3
 72
8
 73
4
 74
0
 40
0
 40
0
 40
0
 40
0
 40
1
 40
1
 40
1
 40
1
 10
195.899800
 20
363.381968
 30
0.0
 10
195.642620
 20
363.305038
 30
0.0
 10
195.087620
 20
363.086965
 30
0.0
 10
194.666570
 20
362.897238
 30
0.0
  0
SPLINE
  5
273
100
AcDbEntity
  8
raster
 62
7
100
AcDbSpline
 70
8
 71
3
 72
8
 73
4
 74
0
 40
0
 40
0
 40
0
 40
0
 40
1
 40
1
 40
1
 40
1
 10
194.666570
 20
362.897238
 30
0.0
 10
194.245520
 20
362.707510
 30
0.0
 10
193.727890
 20
362.496450
 30
0.0
 10
193.516110
 20
362.428267
 30
0.0
  0
LWPOLYLINE
  5
274
100
AcDbEntity
  8
raster
 62
7
100
AcDbPolyline
 90
3
 70
0
 10
191.028630
 20
365.920695
 30
0.0
 10
190.966830
 20
365.728379
 30
0.0
 10
191.028330
 20
365.561550
 30
0.0
  0
SPLINE
  5
275
100
AcDbEntity
  8
raster
 62
7
100
AcDbSpline
 70
8
 71
3
 72
8
 73
4
 74
0
 40
0
 40
0
 40
0
 40
0
 40
1
 40
1
 40
1
 40
1
 10
191.714670
 20
362.305542
 30
0.0
 10
191.533860
 20
362.342042
 30
0.0
 10
191.235400
 20
362.448796
 30
0.0
 10
191.051620
 20
362.542521
 30
0.0
  0
SPLINE
  5
276
100
AcDbEntity
  8
raster
 62
7
100
AcDbSpline
 70
8
 71
3
 72
8
 73
4
 74
0
 40
0
 40
0
 40
0
 40
0
 40
1
 40
1
 40
1
 40
1
 10
191.051620
 20
362.542521
 30
0.0
 10
190.680380
 20
362.731841
 30
0.0
 10
190.612350
 20
362.743133
 30
0.0
 10
190.370330
 20
362.656541
 30
0.0
  0
LWPOLYLINE
  5
277
100
AcDbEntity
  8
raster
 62
7
100
AcDbPolyline
 90
5
 70
0
 10
193.516110
 20
362.428267
 30
0.0
 10
193.130860
 20
362.304262
 30
0.0
 10
192.587060
 20
362.271672
 30
0.0
 10
192.043250
 20
362.239332
 30
0.0
 10
191.714670
 20
362.305542
 30
0.0
  0
SPLINE
  5
278
100
AcDbEntity
  8
raster
 62
7
100
AcDbSpline
 70
8
 71
3
 72
8
 73
4
 74
0
 40
0
 40
0
 40
0
 40
0
 40
1
 40
1
 40
1
 40
1
 10
190.050690
 20
362.036773
 30
0.0
 10
190.135490
 20
361.665832
 30
0.0
 10
190.667350
 20
361.291698
 30
0.0
 10
191.348460
 20
361.123796
 30
0.0
  0
LWPOLYLINE
  5
279
100
AcDbEntity
  8
raster
 62
7
100
AcDbPolyline
 90
5
 70
0
 10
190.370330
 20
362.656541
 30
0.0
 10
190.203090
 20
362.596641
 30
0.0
 10
190.109090
 20
362.394606
 30
0.0
 10
190.015090
 20
362.192570
 30
0.0
 10
190.050690
 20
362.036773
 30
0.0
  0
SPLINE
  5
27a
100
AcDbEntity
  8
raster
 62
7
100
AcDbSpline
 70
8
 71
3
 72
8
 73
4
 74
0
 40
0
 40
0
 40
0
 40
0
 40
1
 40
1
 40
1
 40
1
 10
193.278150
 20
361.133936
 30
0.0
 10
193.838240
 20
361.282894
 30
0.0
 10
194.090640
 20
361.380173
 30
0.0
 10
194.944610
 20
361.776040
 30
0.0
  0
SPLINE
  5
27b
100
AcDbEntity
  8
raster
 62
7
100
AcDbSpline
 70
8
 71
3
 72
8
 73
4
 74
0
 40
0
 40
0
 40
0
 40
0
 40
1
 40
1
 40
1
 40
1
 10
194.944610
 20
361.776040
 30
0.0
 10
195.883400
 20
362.211226
 30
0.0
 10
196.518810
 20
362.421010
 30
0.0
 10
197.043210
 20
362.468327
 30
0.0
  0
LWPOLYLINE
  5
27c
100
AcDbEntity
  8
raster
 62
7
100
AcDbPolyline
 90
5
 70
0
 10
191.348460
 20
361.123796
 30
0.0
 10
191.727830
 20
361.030266
 30
0.0
 10
192.327190
 20
361.035466
 30
0.0
 10
192.926550
 20
361.040666
 30
0.0
 10
193.278150
 20
361.133936
 30
0.0
  0
SPLINE
  5
27d
100
AcDbEntity
  8
raster
 62
7
100
AcDbSpline
 70
8
 71
3
 72
8
 73
4
 74
0
 40
0
 40
0
 40
0
 40
0
 40
1
 40
1
 40
1
 40
1
 10
197.726470
 20
362.343024
 30
0.0
 10
198.228220
 20
362.082481
 30
0.0
 10
198.615710
 20
360.628660
 30
0.0
 10
198.886750
 20
360.024199
 30
0.0
  0
SPLINE
  5
27e
100
AcDbEntity
  8
raster
 62
7
100
AcDbSpline
 70
8
 71
3
 72
8
 73
4
 74
0
 40
0
 40
0
 40
0
 40
0
 40
1
 40
1
 40
1
 40
1
 10
198.886750
 20
360.024199
 30
0.0
 10
199.183530
 20
359.405519
 30
0.0
 10
199.995760
 20
359.715244
 30
0.0
 10
200.384250
 20
358.959471
 30
0.0
  0
SPLINE
  5
27f
100
AcDbEntity
  8
raster
 62
7
100
AcDbSpline
 70
8
 71
3
 72
8
 73
4
 74
0
 40
0
 40
0
 40
0
 40
0
 40
1
 40
1
 40
1
 40
1
 10
200.384250
 20
358.959471
 30
0.0
 10
200.623690
 20
359.085402
 30
0.0
 10
200.552110
 20
354.377081
 30
0.0
 10
200.555470
 20
353.164930
 30
0.0
  0
LWPOLYLINE
  5
280
100
AcDbEntity
  8
raster
 62
7
100
AcDbPolyline
 90
3
 70
0
 10
197.043210
 20
362.468327
 30
0.0
 10
197.419780
 20
362.502237
 30
0.0
 10
197.726470
 20
362.343024
 30
0.0
  0
SPLINE
  5
281
100
AcDbEntity
  8
raster
 62
7
100
AcDbSpline
 70
8
 71
3
 72
8
 73
4
 74
0
 40
0
 40
0
 40
0
 40
0
 40
1
 40
1
 40
1
 40
1
 10
200.483370
 20
346.215020
 30
0.0
 10
200.381690
 20
345.186371
 30
0.0
 10
200.197280
 20
345.212833
 30
0.0
 10
199.935920
 20
344.703816
 30
0.0
  0
SPLINE
  5
282
100
AcDbEntity
  8
raster
 62
7
100
AcDbSpline
 70
8
 71
3
 72
8
 73
4
 74
0
 40
0
 40
0
 40
0
 40
0
 40
1
 40
1
 40
1
 40
1
 10
199.935920
 20
344.703816
 30
0.0
 10
199.737860
 20
344.238080
 30
0.0
 10
199.233690
 20
343.862591
 30
0.0
 10
198.855890
 20
343.694948
 30
0.0
  0
LWPOLYLINE
  5
283
100
AcDbEntity
  8
raster
 62
7
100
AcDbPolyline
 90
3
 70
0
 10
200.555470
 20
353.164930
 30
0.0
 10
200.572270
 20
347.116700
 30
0.0
 10
200.483370
 20
346.215020
 30
0.0
  0
SPLINE
  5
284
100
AcDbEntity
  8
raster
 62
7
100
AcDbSpline
 70
8
 71
3
 72
8
 73
4
 74
0
 40
0
 40
0
 40
0
 40
0
 40
1
 40
1
 40
1
 40
1
 10
198.433600
 20
343.432747
 30
0.0
 10
197.830310
 20
343.058459
 30
0.0
 10
197.356950
 20
342.880607
 30
0.0
 10
196.629910
 20
342.754909
 30
0.0
  0
SPLINE
  5
285
100
AcDbEntity
  8
raster
 62
7
100
AcDbSpline
 70
8
 71
3
 72
8
 73
4
 74
0
 40
0
 40
0
 40
0
 40
0
 40
1
 40
1
 40
1
 40
1
 10
196.629910
 20
342.754909
 30
0.0
 10
195.771920
 20
342.606571
 30
0.0
 10
195.333630
 20
342.484522
 30
0.0
 10
194.956410
 20
342.289096
 30
0.0
  0
SPLINE
  5
286
100
AcDbEntity
  8
raster
 62
7
100
AcDbSpline
 70
8
 71
3
 72
8
 73
4
 74
0
 40
0
 40
0
 40
0
 40
0
 40
1
 40
1
 40
1
 40
1
 10
194.956410
 20
342.289096
 30
0.0
 10
194.298160
 20
341.948066
 30
0.0
 10
193.739080
 20
341.348308
 30
0.0
 10
193.605610
 20
340.839632
 30
0.0
  0
LWPOLYLINE
  5
287
100
AcDbEntity
  8
raster
 62
7
100
AcDbPolyline
 90
2
 70
0
 10
198.855890
 20
343.694948
 30
0.0
 10
198.433600
 20
343.432747
 30
0.0
  0
SPLINE
  5
288
100
AcDbEntity
  8
raster
 62
7
100
AcDbSpline
 70
8
 71
3
 72
8
 73
4
 74
0
 40
0
 40
0
 40
0
 40
0
 40
1
 40
1
 40
1
 40
1
 10
193.627710
 20
340.428204
 30
0.0
 10
193.671210
 20
340.321478
 30
0.0
 10
193.776110
 20
340.177945
 30
0.0
 10
193.861160
 20
340.109254
 30
0.0
  0
LWPOLYLINE
  5
289
100
AcDbEntity
  8
raster
 62
7
100
AcDbPolyline
 90
3
 70
0
 10
193.605610
 20
340.839632
 30
0.0
 10
193.548610
 20
340.622359
 30
0.0
 10
193.627710
 20
340.428204
 30
0.0
  0
SPLINE
  5
28a
100
AcDbEntity
  8
raster
 62
7
100
AcDbSpline
 70
8
 71
3
 72
8
 73
4
 74
0
 40
0
 40
0
 40
0
 40
0
 40
1
 40
1
 40
1
 40
1
 10
194.986090
 20
340.444757
 30
0.0
 10
195.517160
 20
340.958141
 30
0.0
 10
195.771740
 20
341.110389
 30
0.0
 10
196.475780
 20
341.335659
 30
0.0
  0
LWPOLYLINE
  5
28b
100
AcDbEntity
  8
raster
 62
7
100
AcDbPolyline
 90
5
 70
0
 10
193.861160
 20
340.109254
 30
0.0
 10
194.016060
 20
339.984455
 30
0.0
 10
194.262980
 20
339.984455
 30
0.0
 10
194.509920
 20
339.984455
 30
0.0
 10
194.986090
 20
340.444757
 30
0.0
  0
SPLINE
  5
28c
100
AcDbEntity
  8
raster
 62
7
100
AcDbSpline
 70
8
 71
3
 72
8
 73
4
 74
0
 40
0
 40
0
 40
0
 40
0
 40
1
 40
1
 40
1
 40
1
 10
197.378440
 20
341.222914
 30
0.0
 10
197.328240
 20
340.583002
 30
0.0
 10
197.004270
 20
339.914614
 30
0.0
 10
196.421040
 20
339.246684
 30
0.0
  0
SPLINE
  5
28d
100
AcDbEntity
  8
raster
 62
7
100
AcDbSpline
 70
8
 71
3
 72
8
 73
4
 74
0
 40
0
 40
0
 40
0
 40
0
 40
1
 40
1
 40
1
 40
1
 10
196.421040
 20
339.246684
 30
0.0
 10
196.180540
 20
338.971255
 30
0.0
 10
195.954500
 20
338.689281
 30
0.0
 10
195.918490
 20
338.620077
 30
0.0
  0
SPLINE
  5
28e
100
AcDbEntity
  8
raster
 62
7
100
AcDbSpline
 70
8
 71
3
 72
8
 73
4
 74
0
 40
0
 40
0
 40
0
 40
0
 40
1
 40
1
 40
1
 40
1
 10
195.918490
 20
338.620077
 30
0.0
 10
195.763230
 20
338.321632
 30
0.0
 10
195.899690
 20
337.925395
 30
0.0
 10
196.209750
 20
337.774362
 30
0.0
  0
SPLINE
  5
28f
100
AcDbEntity
  8
raster
 62
7
100
AcDbSpline
 70
8
 71
3
 72
8
 73
4
 74
0
 40
0
 40
0
 40
0
 40
0
 40
1
 40
1
 40
1
 40
1
 10
196.209750
 20
337.774362
 30
0.0
 10
196.447720
 20
337.658486
 30
0.0
 10
196.532330
 20
337.657047
 30
0.0
 10
196.783850
 20
337.764862
 30
0.0
  0
SPLINE
  5
290
100
AcDbEntity
  8
raster
 62
7
100
AcDbSpline
 70
8
 71
3
 72
8
 73
4
 74
0
 40
0
 40
0
 40
0
 40
0
 40
1
 40
1
 40
1
 40
1
 10
196.783850
 20
337.764862
 30
0.0
 10
197.546090
 20
338.091717
 30
0.0
 10
198.125150
 20
339.127627
 30
0.0
 10
198.464080
 20
340.770719
 30
0.0
  0
SPLINE
  5
291
100
AcDbEntity
  8
raster
 62
7
100
AcDbSpline
 70
8
 71
3
 72
8
 73
4
 74
0
 40
0
 40
0
 40
0
 40
0
 40
1
 40
1
 40
1
 40
1
 10
198.464080
 20
340.770719
 30
0.0
 10
198.517280
 20
341.028999
 30
0.0
 10
198.614510
 20
341.338569
 30
0.0
 10
198.680140
 20
341.458537
 30
0.0
  0
LWPOLYLINE
  5
292
100
AcDbEntity
  8
raster
 62
7
100
AcDbPolyline
 90
5
 70
0
 10
196.475780
 20
341.335659
 30
0.0
 10
196.958140
 20
341.490144
 30
0.0
 10
197.177280
 20
341.471734
 30
0.0
 10
197.396440
 20
341.453324
 30
0.0
 10
197.378440
 20
341.222914
 30
0.0
  0
SPLINE
  5
293
100
AcDbEntity
  8
raster
 62
7
100
AcDbSpline
 70
8
 71
3
 72
8
 73
4
 74
0
 40
0
 40
0
 40
0
 40
0
 40
1
 40
1
 40
1
 40
1
 10
199.416990
 20
342.158177
 30
0.0
 10
200.144740
 20
342.725783
 30
0.0
 10
200.481080
 20
343.053939
 30
0.0
 10
200.773980
 20
343.482583
 30
0.0
  0
SPLINE
  5
294
100
AcDbEntity
  8
raster
 62
7
100
AcDbSpline
 70
8
 71
3
 72
8
 73
4
 74
0
 40
0
 40
0
 40
0
 40
0
 40
1
 40
1
 40
1
 40
1
 10
200.773980
 20
343.482583
 30
0.0
 10
200.891980
 20
343.655304
 30
0.0
 10
200.975350
 20
343.654730
 30
0.0
 10
201.044910
 20
343.738932
 30
0.0
  0
SPLINE
  5
295
100
AcDbEntity
  8
raster
 62
7
100
AcDbSpline
 70
8
 71
3
 72
8
 73
4
 74
0
 40
0
 40
0
 40
0
 40
0
 40
1
 40
1
 40
1
 40
1
 10
201.044910
 20
343.738932
 30
0.0
 10
201.395440
 20
344.265088
 30
0.0
 10
201.458080
 20
342.741264
 30
0.0
 10
201.449640
 20
342.461366
 30
0.0
  0
LWPOLYLINE
  5
296
100
AcDbEntity
  8
raster
 62
7
100
AcDbPolyline
 90
3
 70
0
 10
198.680140
 20
341.458537
 30
0.0
 10
198.799680
 20
341.676598
 30
0.0
 10
199.416990
 20
342.158177
 30
0.0
  0
SPLINE
  5
297
100
AcDbEntity
  8
raster
 62
7
100
AcDbSpline
 70
8
 71
3
 72
8
 73
4
 74
0
 40
0
 40
0
 40
0
 40
0
 40
1
 40
1
 40
1
 40
1
 10
201.328140
 20
340.762050
 30
0.0
 10
201.276940
 20
340.571967
 30
0.0
 10
201.122300
 20
340.183071
 30
0.0
 10
200.984400
 20
339.897941
 30
0.0
  0
LWPOLYLINE
  5
298
100
AcDbEntity
  8
raster
 62
7
100
AcDbPolyline
 90
3
 70
0
 10
201.449640
 20
342.461366
 30
0.0
 10
201.421540
 20
341.107533
 30
0.0
 10
201.328140
 20
340.762050
 30
0.0
  0
SPLINE
  5
299
100
AcDbEntity
  8
raster
 62
7
100
AcDbSpline
 70
8
 71
3
 72
8
 73
4
 74
0
 40
0
 40
0
 40
0
 40
0
 40
1
 40
1
 40
1
 40
1
 10
200.178250
 20
338.667855
 30
0.0
 10
199.244640
 20
337.471658
 30
0.0
 10
198.966860
 20
336.735988
 30
0.0
 10
199.168090
 20
335.992245
 30
0.0
  0
LWPOLYLINE
  5
29a
100
AcDbEntity
  8
raster
 62
7
100
AcDbPolyline
 90
3
 70
0
 10
200.984400
 20
339.897941
 30
0.0
 10
200.733560
 20
339.379579
 30
0.0
 10
200.178250
 20
338.667855
 30
0.0
  0
SPLINE
  5
29b
100
AcDbEntity
  8
raster
 62
7
100
AcDbSpline
 70
8
 71
3
 72
8
 73
4
 74
0
 40
0
 40
0
 40
0
 40
0
 40
1
 40
1
 40
1
 40
1
 10
199.406320
 20
335.660967
 30
0.0
 10
199.621800
 20
335.526096
 30
0.0
 10
199.788270
 20
335.519283
 30
0.0
 10
200.008210
 20
335.636007
 30
0.0
  0
SPLINE
  5
29c
100
AcDbEntity
  8
raster
 62
7
100
AcDbSpline
 70
8
 71
3
 72
8
 73
4
 74
0
 40
0
 40
0
 40
0
 40
0
 40
1
 40
1
 40
1
 40
1
 10
200.008210
 20
335.636007
 30
0.0
 10
200.216450
 20
335.746525
 30
0.0
 10
200.323730
 20
335.959150
 30
0.0
 10
200.392630
 20
336.398175
 30
0.0
  0
SPLINE
  5
29d
100
AcDbEntity
  8
raster
 62
7
100
AcDbSpline
 70
8
 71
3
 72
8
 73
4
 74
0
 40
0
 40
0
 40
0
 40
0
 40
1
 40
1
 40
1
 40
1
 10
200.392630
 20
336.398175
 30
0.0
 10
200.422530
 20
336.588859
 30
0.0
 10
200.518420
 20
336.889648
 30
0.0
 10
200.605590
 20
337.066289
 30
0.0
  0
SPLINE
  5
29e
100
AcDbEntity
  8
raster
 62
7
100
AcDbSpline
 70
8
 71
3
 72
8
 73
4
 74
0
 40
0
 40
0
 40
0
 40
0
 40
1
 40
1
 40
1
 40
1
 10
200.605590
 20
337.066289
 30
0.0
 10
200.798860
 20
337.457890
 30
0.0
 10
201.567890
 20
338.370221
 30
0.0
 10
201.705260
 20
338.370729
 30
0.0
  0
LWPOLYLINE
  5
29f
100
AcDbEntity
  8
raster
 62
7
100
AcDbPolyline
 90
4
 70
0
 10
199.168090
 20
335.992245
 30
0.0
 10
199.227290
 20
335.773395
 30
0.0
 10
199.406320
 20
335.661475
 30
0.0
 10
199.406320
 20
335.660967
 30
0.0
  0
SPLINE
  5
2a0
100
AcDbEntity
  8
raster
 62
7
100
AcDbSpline
 70
8
 71
3
 72
8
 73
4
 74
0
 40
0
 40
0
 40
0
 40
0
 40
1
 40
1
 40
1
 40
1
 10
201.867960
 20
338.212813
 30
0.0
 10
202.407790
 20
336.860730
 30
0.0
 10
203.696950
 20
336.064935
 30
0.0
 10
203.810270
 20
335.570570
 30
0.0
  0
SPLINE
  5
2a1
100
AcDbEntity
  8
raster
 62
7
100
AcDbSpline
 70
8
 71
3
 72
8
 73
4
 74
0
 40
0
 40
0
 40
0
 40
0
 40
1
 40
1
 40
1
 40
1
 10
203.810270
 20
335.570570
 30
0.0
 10
204.083980
 20
334.886315
 30
0.0
 10
204.552080
 20
335.442894
 30
0.0
 10
204.613620
 20
335.592130
 30
0.0
  0
LWPOLYLINE
  5
2a2
100
AcDbEntity
  8
raster
 62
7
100
AcDbPolyline
 90
3
 70
0
 10
201.705260
 20
338.370729
 30
0.0
 10
201.804860
 20
338.371238
 30
0.0
 10
201.867960
 20
338.212813
 30
0.0
  0
SPLINE
  5
2a3
100
AcDbEntity
  8
raster
 62
7
100
AcDbSpline
 70
8
 71
3
 72
8
 73
4
 74
0
 40
0
 40
0
 40
0
 40
0
 40
1
 40
1
 40
1
 40
1
 10
204.473420
 20
336.378209
 30
0.0
 10
204.425020
 20
336.508005
 30
0.0
 10
204.241710
 20
336.782861
 30
0.0
 10
204.066270
 20
336.988786
 30
0.0
  0
SPLINE
  5
2a4
100
AcDbEntity
  8
raster
 62
7
100
AcDbSpline
 70
8
 71
3
 72
8
 73
4
 74
0
 40
0
 40
0
 40
0
 40
0
 40
1
 40
1
 40
1
 40
1
 10
204.066270
 20
336.988786
 30
0.0
 10
203.461380
 20
337.698761
 30
0.0
 10
203.087180
 20
338.393591
 30
0.0
 10
202.857170
 20
339.234044
 30
0.0
  0
LWPOLYLINE
  5
2a5
100
AcDbEntity
  8
raster
 62
7
100
AcDbPolyline
 90
3
 70
0
 10
204.613620
 20
335.592130
 30
0.0
 10
204.561220
 20
336.142277
 30
0.0
 10
204.473420
 20
336.378209
 30
0.0
  0
SPLINE
  5
2a6
100
AcDbEntity
  8
raster
 62
7
100
AcDbSpline
 70
8
 71
3
 72
8
 73
4
 74
0
 40
0
 40
0
 40
0
 40
0
 40
1
 40
1
 40
1
 40
1
 10
203.836360
 20
341.750174
 30
0.0
 10
204.409690
 20
341.357180
 30
0.0
 10
204.995890
 20
340.935106
 30
0.0
 10
205.139170
 20
340.812239
 30
0.0
  0
SPLINE
  5
2a7
100
AcDbEntity
  8
raster
 62
7
100
AcDbSpline
 70
8
 71
3
 72
8
 73
4
 74
0
 40
0
 40
0
 40
0
 40
0
 40
1
 40
1
 40
1
 40
1
 10
205.139170
 20
340.812239
 30
0.0
 10
205.837910
 20
340.213045
 30
0.0
 10
206.371660
 20
339.168426
 30
0.0
 10
206.490530
 20
338.167367
 30
0.0
  0
SPLINE
  5
2a8
100
AcDbEntity
  8
raster
 62
7
100
AcDbSpline
 70
8
 71
3
 72
8
 73
4
 74
0
 40
0
 40
0
 40
0
 40
0
 40
1
 40
1
 40
1
 40
1
 10
206.490530
 20
338.167367
 30
0.0
 10
206.544730
 20
337.710853
 30
0.0
 10
206.716540
 20
337.248833
 30
0.0
 10
206.869900
 20
337.146937
 30
0.0
  0
SPLINE
  5
2a9
100
AcDbEntity
  8
raster
 62
7
100
AcDbSpline
 70
8
 71
3
 72
8
 73
4
 74
0
 40
0
 40
0
 40
0
 40
0
 40
1
 40
1
 40
1
 40
1
 10
206.869900
 20
337.146937
 30
0.0
 10
207.146070
 20
336.967638
 30
0.0
 10
207.398700
 20
336.964526
 30
0.0
 10
207.688130
 20
337.152437
 30
0.0
  0
SPLINE
  5
2aa
100
AcDbEntity
  8
raster
 62
7
100
AcDbSpline
 70
8
 71
3
 72
8
 73
4
 74
0
 40
0
 40
0
 40
0
 40
0
 40
1
 40
1
 40
1
 40
1
 10
207.688130
 20
337.152437
 30
0.0
 10
207.751030
 20
337.277129
 30
0.0
 10
207.813580
 20
337.401871
 30
0.0
 10
207.876410
 20
337.526558
 30
0.0
  0
SPLINE
  5
2ab
100
AcDbEntity
  8
raster
 62
7
100
AcDbSpline
 70
8
 71
3
 72
8
 73
4
 74
0
 40
0
 40
0
 40
0
 40
0
 40
1
 40
1
 40
1
 40
1
 10
207.876410
 20
337.526558
 30
0.0
 10
207.834610
 20
337.974968
 30
0.0
 10
207.787010
 20
338.419377
 30
0.0
 10
207.692340
 20
338.860685
 30
0.0
  0
SPLINE
  5
2ac
100
AcDbEntity
  8
raster
 62
7
100
AcDbSpline
 70
8
 71
3
 72
8
 73
4
 74
0
 40
0
 40
0
 40
0
 40
0
 40
1
 40
1
 40
1
 40
1
 10
207.692340
 20
338.860685
 30
0.0
 10
207.595940
 20
339.323310
 30
0.0
 10
207.464390
 20
339.739609
 30
0.0
 10
207.212800
 20
340.147520
 30
0.0
  0
LWPOLYLINE
  5
2ad
100
AcDbEntity
  8
raster
 62
7
100
AcDbPolyline
 90
7
 70
0
 10
202.857170
 20
339.234044
 30
0.0
 10
202.738750
 20
339.667283
 30
0.0
 10
202.714350
 20
341.012442
 30
0.0
 10
202.689650
 20
342.357866
 30
0.0
 10
202.741750
 20
342.411196
 30
0.0
 10
202.793650
 20
342.464786
 30
0.0
 10
203.836360
 20
341.750174
 30
0.0
  0
SPLINE
  5
2ae
100
AcDbEntity
  8
raster
 62
7
100
AcDbSpline
 70
8
 71
3
 72
8
 73
4
 74
0
 40
0
 40
0
 40
0
 40
0
 40
1
 40
1
 40
1
 40
1
 10
207.425230
 20
340.963013
 30
0.0
 10
208.364760
 20
340.816114
 30
0.0
 10
208.903900
 20
340.556790
 30
0.0
 10
209.299910
 20
340.060809
 30
0.0
  0
SPLINE
  5
2af
100
AcDbEntity
  8
raster
 62
7
100
AcDbSpline
 70
8
 71
3
 72
8
 73
4
 74
0
 40
0
 40
0
 40
0
 40
0
 40
1
 40
1
 40
1
 40
1
 10
209.299910
 20
340.060809
 30
0.0
 10
209.567110
 20
339.726139
 30
0.0
 10
209.800190
 20
339.581070
 30
0.0
 10
210.072390
 20
339.581070
 30
0.0
  0
LWPOLYLINE
  5
2b0
100
AcDbEntity
  8
raster
 62
7
100
AcDbPolyline
 90
5
 70
0
 10
207.212800
 20
340.147520
 30
0.0
 10
206.841010
 20
340.915733
 30
0.0
 10
206.899610
 20
340.975893
 30
0.0
 10
206.958310
 20
341.036053
 30
0.0
 10
207.425230
 20
340.963013
 30
0.0
  0
SPLINE
  5
2b1
100
AcDbEntity
  8
raster
 62
7
100
AcDbSpline
 70
8
 71
3
 72
8
 73
4
 74
0
 40
0
 40
0
 40
0
 40
0
 40
1
 40
1
 40
1
 40
1
 10
210.670350
 20
340.243403
 30
0.0
 10
210.670350
 20
340.612227
 30
0.0
 10
210.536860
 20
340.872023
 30
0.0
 10
210.138060
 20
341.280386
 30
0.0
  0
LWPOLYLINE
  5
2b2
100
AcDbEntity
  8
raster
 62
7
100
AcDbPolyline
 90
5
 70
0
 10
210.072390
 20
339.581070
 30
0.0
 10
210.288450
 20
339.581070
 30
0.0
 10
210.479260
 20
339.776802
 30
0.0
 10
210.670350
 20
339.972794
 30
0.0
 10
210.670350
 20
340.243403
 30
0.0
  0
SPLINE
  5
2b3
100
AcDbEntity
  8
raster
 62
7
100
AcDbSpline
 70
8
 71
3
 72
8
 73
4
 74
0
 40
0
 40
0
 40
0
 40
0
 40
1
 40
1
 40
1
 40
1
 10
209.396150
 20
341.843671
 30
0.0
 10
209.173900
 20
341.963233
 30
0.0
 10
208.795150
 20
342.114799
 30
0.0
 10
208.554350
 20
342.180485
 30
0.0
  0
LWPOLYLINE
  5
2b4
100
AcDbEntity
  8
raster
 62
7
100
AcDbPolyline
 90
3
 70
0
 10
210.138060
 20
341.280386
 30
0.0
 10
209.800210
 20
341.626398
 30
0.0
 10
209.396150
 20
341.843671
 30
0.0
  0
SPLINE
  5
2b5
100
AcDbEntity
  8
raster
 62
7
100
AcDbSpline
 70
8
 71
3
 72
8
 73
4
 74
0
 40
0
 40
0
 40
0
 40
0
 40
1
 40
1
 40
1
 40
1
 10
205.561210
 20
342.504948
 30
0.0
 10
204.249800
 20
342.986343
 30
0.0
 10
203.013190
 20
343.595533
 30
0.0
 10
202.820040
 20
345.164792
 30
0.0
  0
SPLINE
  5
2b6
100
AcDbEntity
  8
raster
 62
7
100
AcDbSpline
 70
8
 71
3
 72
8
 73
4
 74
0
 40
0
 40
0
 40
0
 40
0
 40
1
 40
1
 40
1
 40
1
 10
202.820040
 20
345.164792
 30
0.0
 10
202.789340
 20
345.415117
 30
0.0
 10
202.749740
 20
347.904322
 30
0.0
 10
202.731940
 20
350.716471
 30
0.0
  0
SPLINE
  5
2b7
100
AcDbEntity
  8
raster
 62
7
100
AcDbSpline
 70
8
 71
3
 72
8
 73
4
 74
0
 40
0
 40
0
 40
0
 40
0
 40
1
 40
1
 40
1
 40
1
 10
202.731940
 20
350.716471
 30
0.0
 10
202.714140
 20
353.520260
 30
0.0
 10
202.670140
 20
356.630853
 30
0.0
 10
202.633740
 20
357.628810
 30
0.0
  0
LWPOLYLINE
  5
2b8
100
AcDbEntity
  8
raster
 62
7
100
AcDbPolyline
 90
5
 70
0
 10
208.554350
 20
342.180485
 30
0.0
 10
208.116340
 20
342.300027
 30
0.0
 10
206.993950
 20
342.345477
 30
0.0
 10
205.871550
 20
342.391187
 30
0.0
 10
205.561210
 20
342.504948
 30
0.0
  0
SPLINE
  5
2b9
100
AcDbEntity
  8
raster
 62
7
100
AcDbSpline
 70
8
 71
3
 72
8
 73
4
 74
0
 40
0
 40
0
 40
0
 40
0
 40
1
 40
1
 40
1
 40
1
 10
202.600540
 20
358.821464
 30
0.0
 10
202.633440
 20
359.585650
 30
0.0
 10
203.397900
 20
359.546222
 30
0.0
 10
203.735970
 20
359.894596
 30
0.0
  0
SPLINE
  5
2ba
100
AcDbEntity
  8
raster
 62
7
100
AcDbSpline
 70
8
 71
3
 72
8
 73
4
 74
0
 40
0
 40
0
 40
0
 40
0
 40
1
 40
1
 40
1
 40
1
 10
203.735970
 20
359.894596
 30
0.0
 10
204.057720
 20
360.244421
 30
0.0
 10
204.257480
 20
361.338502
 30
0.0
 10
205.151850
 20
361.738907
 30
0.0
  0
LWPOLYLINE
  5
2bb
100
AcDbEntity
  8
raster
 62
7
100
AcDbPolyline
 90
2
 70
0
 10
202.633740
 20
357.628810
 30
0.0
 10
202.600540
 20
358.821464
 30
0.0
  0
SPLINE
  5
2bc
100
AcDbEntity
  8
raster
 62
7
100
AcDbSpline
 70
8
 71
3
 72
8
 73
4
 74
0
 40
0
 40
0
 40
0
 40
0
 40
1
 40
1
 40
1
 40
1
 10
205.811550
 20
361.768567
 30
0.0
 10
205.998870
 20
361.747417
 30
0.0
 10
206.644600
 20
361.557217
 30
0.0
 10
207.246530
 20
361.345837
 30
0.0
  0
LWPOLYLINE
  5
2bd
100
AcDbEntity
  8
raster
 62
7
100
AcDbPolyline
 90
3
 70
0
 10
205.151850
 20
361.738907
 30
0.0
 10
205.470900
 20
361.806957
 30
0.0
 10
205.811550
 20
361.768567
 30
0.0
  0
SPLINE
  5
2be
100
AcDbEntity
  8
raster
 62
7
100
AcDbSpline
 70
8
 71
3
 72
8
 73
4
 74
0
 40
0
 40
0
 40
0
 40
0
 40
1
 40
1
 40
1
 40
1
 10
210.025010
 20
361.054774
 30
0.0
 10
210.288580
 20
361.202278
 30
0.0
 10
210.400540
 20
361.365355
 30
0.0
 10
210.431320
 20
361.645645
 30
0.0
  0
LWPOLYLINE
  5
2bf
100
AcDbEntity
  8
raster
 62
7
100
AcDbPolyline
 90
5
 70
0
 10
207.246530
 20
361.345837
 30
0.0
 10
208.340860
 20
360.961471
 30
0.0
 10
209.098750
 20
360.960963
 30
0.0
 10
209.856370
 20
360.960454
 30
0.0
 10
210.025010
 20
361.054774
 30
0.0
  0
SPLINE
  5
2c0
100
AcDbEntity
  8
raster
 62
7
100
AcDbSpline
 70
8
 71
3
 72
8
 73
4
 74
0
 40
0
 40
0
 40
0
 40
0
 40
1
 40
1
 40
1
 40
1
 10
209.811820
 20
362.219188
 30
0.0
 10
209.369750
 20
362.143108
 30
0.0
 10
208.609550
 20
362.172008
 30
0.0
 10
208.200900
 20
362.280408
 30
0.0
  0
SPLINE
  5
2c1
100
AcDbEntity
  8
raster
 62
7
100
AcDbSpline
 70
8
 71
3
 72
8
 73
4
 74
0
 40
0
 40
0
 40
0
 40
0
 40
1
 40
1
 40
1
 40
1
 10
208.200900
 20
362.280408
 30
0.0
 10
208.000250
 20
362.333628
 30
0.0
 10
207.494960
 20
362.494412
 30
0.0
 10
207.078230
 20
362.637717
 30
0.0
  0
SPLINE
  5
2c2
100
AcDbEntity
  8
raster
 62
7
100
AcDbSpline
 70
8
 71
3
 72
8
 73
4
 74
0
 40
0
 40
0
 40
0
 40
0
 40
1
 40
1
 40
1
 40
1
 10
207.078230
 20
362.637717
 30
0.0
 10
206.661490
 20
362.781016
 30
0.0
 10
206.286070
 20
362.909628
 30
0.0
 10
206.244010
 20
362.923299
 30
0.0
  0
LWPOLYLINE
  5
2c3
100
AcDbEntity
  8
raster
 62
7
100
AcDbPolyline
 90
5
 70
0
 10
210.431320
 20
361.645645
 30
0.0
 10
210.459720
 20
361.904429
 30
0.0
 10
210.281830
 20
362.087024
 30
0.0
 10
210.103920
 20
362.269618
 30
0.0
 10
209.811820
 20
362.219188
 30
0.0
  0
SPLINE
  5
2c4
100
AcDbEntity
  8
raster
 62
7
100
AcDbSpline
 70
8
 71
3
 72
8
 73
4
 74
0
 40
0
 40
0
 40
0
 40
0
 40
1
 40
1
 40
1
 40
1
 10
206.232510
 20
363.028409
 30
0.0
 10
206.268210
 20
363.072539
 30
0.0
 10
206.504750
 20
363.193097
 30
0.0
 10
206.758070
 20
363.296390
 30
0.0
  0
SPLINE
  5
2c5
100
AcDbEntity
  8
raster
 62
7
100
AcDbSpline
 70
8
 71
3
 72
8
 73
4
 74
0
 40
0
 40
0
 40
0
 40
0
 40
1
 40
1
 40
1
 40
1
 10
206.758070
 20
363.296390
 30
0.0
 10
208.217220
 20
363.891384
 30
0.0
 10
209.192690
 20
364.583422
 30
0.0
 10
209.376050
 20
365.153606
 30
0.0
  0
LWPOLYLINE
  5
2c6
100
AcDbEntity
  8
raster
 62
7
100
AcDbPolyline
 90
3
 70
0
 10
206.244010
 20
362.923299
 30
0.0
 10
206.167710
 20
362.948009
 30
0.0
 10
206.232510
 20
363.028409
 30
0.0
  0
SPLINE
  5
2c7
100
AcDbEntity
  8
raster
 62
7
100
AcDbSpline
 70
8
 71
3
 72
8
 73
4
 74
0
 40
0
 40
0
 40
0
 40
0
 40
1
 40
1
 40
1
 40
1
 10
209.341750
 20
365.582377
 30
0.0
 10
209.226960
 20
365.823467
 30
0.0
 10
208.990030
 20
365.969264
 30
0.0
 10
208.808890
 20
365.910259
 30
0.0
  0
SPLINE
  5
2c8
100
AcDbEntity
  8
raster
 62
7
100
AcDbSpline
 70
8
 71
3
 72
8
 73
4
 74
0
 40
0
 40
0
 40
0
 40
0
 40
1
 40
1
 40
1
 40
1
 10
208.808890
 20
365.910259
 30
0.0
 10
208.743090
 20
365.888799
 30
0.0
 10
208.528650
 20
365.717947
 30
0.0
 10
208.332430
 20
365.530621
 30
0.0
  0
LWPOLYLINE
  5
2c9
100
AcDbEntity
  8
raster
 62
7
100
AcDbPolyline
 90
3
 70
0
 10
209.376050
 20
365.153606
 30
0.0
 10
209.444450
 20
365.366675
 30
0.0
 10
209.341750
 20
365.582377
 30
0.0
  0
SPLINE
  5
2ca
100
AcDbEntity
  8
raster
 62
7
100
AcDbSpline
 70
8
 71
3
 72
8
 73
4
 74
0
 40
0
 40
0
 40
0
 40
0
 40
1
 40
1
 40
1
 40
1
 10
207.239230
 20
364.817315
 30
0.0
 10
206.834130
 20
364.612255
 30
0.0
 10
206.442620
 20
364.444246
 30
0.0
 10
206.369370
 20
364.444246
 30
0.0
  0
LWPOLYLINE
  5
2cb
100
AcDbEntity
  8
raster
 62
7
100
AcDbPolyline
 90
3
 70
0
 10
208.332430
 20
365.530621
 30
0.0
 10
207.975790
 20
365.190125
 30
0.0
 10
207.239230
 20
364.817315
 30
0.0
  0
SPLINE
  5
2cc
100
AcDbEntity
  8
raster
 62
7
100
AcDbSpline
 70
8
 71
3
 72
8
 73
4
 74
0
 40
0
 40
0
 40
0
 40
0
 40
1
 40
1
 40
1
 40
1
 10
206.428290
 20
365.648582
 30
0.0
 10
206.627900
 20
366.244018
 30
0.0
 10
206.842350
 20
366.633574
 30
0.0
 10
207.239500
 20
367.122743
 30
0.0
  0
SPLINE
  5
2cd
100
AcDbEntity
  8
raster
 62
7
100
AcDbSpline
 70
8
 71
3
 72
8
 73
4
 74
0
 40
0
 40
0
 40
0
 40
0
 40
1
 40
1
 40
1
 40
1
 10
207.239500
 20
367.122743
 30
0.0
 10
207.368120
 20
367.281148
 30
0.0
 10
207.496780
 20
367.498640
 30
0.0
 10
207.525720
 20
367.605898
 30
0.0
  0
LWPOLYLINE
  5
2ce
100
AcDbEntity
  8
raster
 62
7
100
AcDbPolyline
 90
5
 70
0
 10
206.369370
 20
364.444246
 30
0.0
 10
206.236370
 20
364.444246
 30
0.0
 10
206.236370
 20
364.760302
 30
0.0
 10
206.236370
 20
365.076100
 30
0.0
 10
206.428290
 20
365.648582
 30
0.0
  0
SPLINE
  5
2cf
100
AcDbEntity
  8
raster
 62
7
100
AcDbSpline
 70
8
 71
3
 72
8
 73
4
 74
0
 40
0
 40
0
 40
0
 40
0
 40
1
 40
1
 40
1
 40
1
 10
206.831670
 20
368.274010
 30
0.0
 10
206.357970
 20
368.043315
 30
0.0
 10
205.692600
 20
367.024721
 30
0.0
 10
205.394160
 20
366.073409
 30
0.0
  0
SPLINE
  5
2d0
100
AcDbEntity
  8
raster
 62
7
100
AcDbSpline
 70
8
 71
3
 72
8
 73
4
 74
0
 40
0
 40
0
 40
0
 40
0
 40
1
 40
1
 40
1
 40
1
 10
205.394160
 20
366.073409
 30
0.0
 10
205.235910
 20
365.568989
 30
0.0
 10
205.198000
 20
365.362977
 30
0.0
 10
205.051830
 20
364.213829
 30
0.0
  0
SPLINE
  5
2d1
100
AcDbEntity
  8
raster
 62
7
100
AcDbSpline
 70
8
 71
3
 72
8
 73
4
 74
0
 40
0
 40
0
 40
0
 40
0
 40
1
 40
1
 40
1
 40
1
 10
205.051830
 20
364.213829
 30
0.0
 10
205.017530
 20
363.944541
 30
0.0
 10
204.965630
 20
363.642115
 30
0.0
 10
204.936500
 20
363.541775
 30
0.0
  0
LWPOLYLINE
  5
2d2
100
AcDbEntity
  8
raster
 62
7
100
AcDbPolyline
 90
7
 70
0
 10
207.525720
 20
367.605898
 30
0.0
 10
207.578420
 20
367.800842
 30
0.0
 10
207.499820
 20
367.994204
 30
0.0
 10
207.420920
 20
368.187313
 30
0.0
 10
207.229550
 20
368.281103
 30
0.0
 10
207.038180
 20
368.374633
 30
0.0
 10
206.831670
 20
368.274010
 30
0.0
  0
SPLINE
  5
2d3
100
AcDbEntity
  8
raster
 62
7
100
AcDbSpline
 70
8
 71
3
 72
8
 73
4
 74
0
 40
0
 40
0
 40
0
 40
0
 40
1
 40
1
 40
1
 40
1
 10
204.591570
 20
363.130347
 30
0.0
 10
203.831640
 20
362.534011
 30
0.0
 10
203.332700
 20
362.547530
 30
0.0
 10
202.966620
 20
362.487451
 30
0.0
  0
SPLINE
  5
2d4
100
AcDbEntity
  8
raster
 62
7
100
AcDbSpline
 70
8
 71
3
 72
8
 73
4
 74
0
 40
0
 40
0
 40
0
 40
0
 40
1
 40
1
 40
1
 40
1
 10
202.966620
 20
362.487451
 30
0.0
 10
202.420000
 20
362.395881
 30
0.0
 10
201.859940
 20
362.447231
 30
0.0
 10
201.740130
 20
362.956421
 30
0.0
  0
LWPOLYLINE
  5
2d5
100
AcDbEntity
  8
raster
 62
7
100
AcDbPolyline
 90
3
 70
0
 10
204.936500
 20
363.541775
 30
0.0
 10
204.883400
 20
363.359445
 30
0.0
 10
204.591570
 20
363.130347
 30
0.0
  0
SPLINE
  5
2d6
100
AcDbEntity
  8
raster
 62
7
100
AcDbSpline
 70
8
 71
3
 72
8
 73
4
 74
0
 40
0
 40
0
 40
0
 40
0
 40
1
 40
1
 40
1
 40
1
 10
201.710930
 20
364.023354
 30
0.0
 10
201.766430
 20
365.037769
 30
0.0
 10
201.969280
 20
365.786490
 30
0.0
 10
202.312250
 20
366.242608
 30
0.0
  0
SPLINE
  5
2d7
100
AcDbEntity
  8
raster
 62
7
100
AcDbSpline
 70
8
 71
3
 72
8
 73
4
 74
0
 40
0
 40
0
 40
0
 40
0
 40
1
 40
1
 40
1
 40
1
 10
202.312250
 20
366.242608
 30
0.0
 10
202.414190
 20
366.378179
 30
0.0
 10
202.726610
 20
366.735595
 30
0.0
 10
203.006730
 20
367.036567
 30
0.0
  0
SPLINE
  5
2d8
100
AcDbEntity
  8
raster
 62
7
100
AcDbSpline
 70
8
 71
3
 72
8
 73
4
 74
0
 40
0
 40
0
 40
0
 40
0
 40
1
 40
1
 40
1
 40
1
 10
203.006730
 20
367.036567
 30
0.0
 10
204.096780
 20
368.207743
 30
0.0
 10
204.776750
 20
369.385565
 30
0.0
 10
204.776750
 20
370.102852
 30
0.0
  0
LWPOLYLINE
  5
2d9
100
AcDbEntity
  8
raster
 62
7
100
AcDbPolyline
 90
3
 70
0
 10
201.740130
 20
362.956421
 30
0.0
 10
201.675630
 20
363.378622
 30
0.0
 10
201.710930
 20
364.023354
 30
0.0
  0
SPLINE
  5
2da
100
AcDbEntity
  8
raster
 62
7
100
AcDbSpline
 70
8
 71
3
 72
8
 73
4
 74
0
 40
0
 40
0
 40
0
 40
0
 40
1
 40
1
 40
1
 40
1
 10
203.650430
 20
369.960839
 30
0.0
 10
203.488560
 20
369.403029
 30
0.0
 10
203.356260
 20
369.206744
 30
0.0
 10
202.513450
 20
368.274919
 30
0.0
  0
SPLINE
  5
2db
100
AcDbEntity
  8
raster
 62
7
100
AcDbSpline
 70
8
 71
3
 72
8
 73
4
 74
0
 40
0
 40
0
 40
0
 40
0
 40
1
 40
1
 40
1
 40
1
 10
202.513450
 20
368.274919
 30
0.0
 10
201.765180
 20
367.447639
 30
0.0
 10
201.653070
 20
367.342989
 30
0.0
 10
201.587470
 20
367.410546
 30
0.0
  0
SPLINE
  5
2dc
100
AcDbEntity
  8
raster
 62
7
100
AcDbSpline
 70
8
 71
3
 72
8
 73
4
 74
0
 40
0
 40
0
 40
0
 40
0
 40
1
 40
1
 40
1
 40
1
 10
201.587470
 20
367.410546
 30
0.0
 10
201.566570
 20
367.432006
 30
0.0
 10
201.555970
 20
368.252956
 30
0.0
 10
201.563870
 20
369.234660
 30
0.0
  0
LWPOLYLINE
  5
2dd
100
AcDbEntity
  8
raster
 62
7
100
AcDbPolyline
 90
9
 70
0
 10
204.776750
 20
370.102852
 30
0.0
 10
204.776750
 20
370.328656
 30
0.0
 10
204.612600
 20
370.497061
 30
0.0
 10
204.448730
 20
370.665471
 30
0.0
 10
204.280370
 20
370.665471
 30
0.0
 10
204.112010
 20
370.665471
 30
0.0
 10
203.940280
 20
370.517290
 30
0.0
 10
203.768840
 20
370.369374
 30
0.0
 10
203.650430
 20
369.960839
 30
0.0
  0
SPLINE
  5
2de
100
AcDbEntity
  8
raster
 62
7
100
AcDbSpline
 70
8
 71
3
 72
8
 73
4
 74
0
 40
0
 40
0
 40
0
 40
0
 40
1
 40
1
 40
1
 40
1
 10
201.326720
 20
361.694236
 30
0.0
 10
201.992540
 20
361.694236
 30
0.0
 10
202.231590
 20
361.815415
 30
0.0
 10
202.231590
 20
361.328865
 30
0.0
  0
SPLINE
  5
2df
100
AcDbEntity
  8
raster
 62
7
100
AcDbSpline
 70
8
 71
3
 72
8
 73
4
 74
0
 40
0
 40
0
 40
0
 40
0
 40
1
 40
1
 40
1
 40
1
 10
202.231590
 20
361.328865
 30
0.0
 10
202.231590
 20
360.842340
 30
0.0
 10
202.000320
 20
360.666056
 30
0.0
 10
201.334500
 20
360.666056
 30
0.0
  0
SPLINE
  5
2e0
100
AcDbEntity
  8
raster
 62
7
100
AcDbSpline
 70
8
 71
3
 72
8
 73
4
 74
0
 40
0
 40
0
 40
0
 40
0
 40
1
 40
1
 40
1
 40
1
 10
201.334500
 20
360.666056
 30
0.0
 10
200.668680
 20
360.666056
 30
0.0
 10
200.393470
 20
360.812874
 30
0.0
 10
200.393470
 20
361.299399
 30
0.0
  0
SPLINE
  5
2e1
100
AcDbEntity
  8
raster
 62
7
100
AcDbSpline
 70
8
 71
3
 72
8
 73
4
 74
0
 40
0
 40
0
 40
0
 40
0
 40
1
 40
1
 40
1
 40
1
 10
200.393470
 20
361.299399
 30
0.0
 10
200.393470
 20
361.785925
 30
0.0
 10
200.660890
 20
361.694236
 30
0.0
 10
201.326720
 20
361.694236
 30
0.0
  0
LWPOLYLINE
  5
2e2
100
AcDbEntity
  8
raster
 62
7
100
AcDbPolyline
 90
5
 70
0
 10
201.563870
 20
369.234660
 30
0.0
 10
201.578270
 20
371.019362
 30
0.0
 10
201.413840
 20
371.188032
 30
0.0
 10
201.249410
 20
371.356701
 30
0.0
 10
201.101680
 20
371.356799
 30
0.0
  0
SPLINE
  5
2e3
100
AcDbEntity
  8
raster
 62
7
100
AcDbSpline
 70
8
 71
3
 72
8
 73
4
 74
0
 40
0
 40
0
 40
0
 40
0
 40
1
 40
1
 40
1
 40
1
 10
211.287980
 20
358.339214
 30
0.0
 10
210.612960
 20
358.335714
 30
0.0
 10
209.938340
 20
358.232922
 30
0.0
 10
209.294600
 20
358.026569
 30
0.0
  0
SPLINE
  5
2e4
100
AcDbEntity
  8
raster
 62
7
100
AcDbSpline
 70
8
 71
3
 72
8
 73
4
 74
0
 40
0
 40
0
 40
0
 40
0
 40
1
 40
1
 40
1
 40
1
 10
209.294600
 20
358.026569
 30
0.0
 10
206.865050
 20
357.247781
 30
0.0
 10
205.281670
 20
355.395399
 30
0.0
 10
204.920630
 20
352.909969
 30
0.0
  0
SPLINE
  5
2e5
100
AcDbEntity
  8
raster
 62
7
100
AcDbSpline
 70
8
 71
3
 72
8
 73
4
 74
0
 40
0
 40
0
 40
0
 40
0
 40
1
 40
1
 40
1
 40
1
 10
204.920630
 20
352.909969
 30
0.0
 10
204.460360
 20
349.741505
 30
0.0
 10
206.020760
 20
347.047669
 30
0.0
 10
208.902600
 20
346.035460
 30
0.0
  0
SPLINE
  5
2e6
100
AcDbEntity
  8
raster
 62
7
100
AcDbSpline
 70
8
 71
3
 72
8
 73
4
 74
0
 40
0
 40
0
 40
0
 40
0
 40
1
 40
1
 40
1
 40
1
 10
208.902600
 20
346.035460
 30
0.0
 10
209.386190
 20
345.865606
 30
0.0
 10
209.667650
 20
345.801725
 30
0.0
 10
210.445900
 20
345.684720
 30
0.0
  0
SPLINE
  5
2e7
100
AcDbEntity
  8
raster
 62
7
100
AcDbSpline
 70
8
 71
3
 72
8
 73
4
 74
0
 40
0
 40
0
 40
0
 40
0
 40
1
 40
1
 40
1
 40
1
 10
210.445900
 20
345.684720
 30
0.0
 10
210.816330
 20
345.629030
 30
0.0
 10
211.811650
 20
345.657260
 30
0.0
 10
212.345260
 20
345.738580
 30
0.0
  0
SPLINE
  5
2e8
100
AcDbEntity
  8
raster
 62
7
100
AcDbSpline
 70
8
 71
3
 72
8
 73
4
 74
0
 40
0
 40
0
 40
0
 40
0
 40
1
 40
1
 40
1
 40
1
 10
212.345260
 20
345.738580
 30
0.0
 10
213.883780
 20
345.973032
 30
0.0
 10
215.188000
 20
346.646849
 30
0.0
 10
216.199010
 20
347.729787
 30
0.0
  0
LWPOLYLINE
  5
2e9
100
AcDbEntity
  8
raster
 62
7
100
AcDbPolyline
 90
1
 70
1
 10
201.326720
 20
361.694236
 30
0.0
  0
SPLINE
  5
2ea
100
AcDbEntity
  8
raster
 62
7
100
AcDbSpline
 70
8
 71
3
 72
8
 73
4
 74
0
 40
0
 40
0
 40
0
 40
0
 40
1
 40
1
 40
1
 40
1
 10
216.965040
 20
348.730775
 30
0.0
 10
217.466670
 20
349.614575
 30
0.0
 10
217.687240
 20
350.339594
 30
0.0
 10
217.796740
 20
351.465757
 30
0.0
  0
LWPOLYLINE
  5
2eb
100
AcDbEntity
  8
raster
 62
7
100
AcDbPolyline
 90
3
 70
0
 10
216.199010
 20
347.729787
 30
0.0
 10
216.704080
 20
348.271002
 30
0.0
 10
216.965040
 20
348.730775
 30
0.0
  0
SPLINE
  5
2ec
100
AcDbEntity
  8
raster
 62
7
100
AcDbSpline
 70
8
 71
3
 72
8
 73
4
 74
0
 40
0
 40
0
 40
0
 40
0
 40
1
 40
1
 40
1
 40
1
 10
217.773140
 20
352.732890
 30
0.0
 10
217.727940
 20
353.097220
 30
0.0
 10
217.637960
 20
353.588478
 30
0.0
 10
217.573090
 20
353.824516
 30
0.0
  0
SPLINE
  5
2ed
100
AcDbEntity
  8
raster
 62
7
100
AcDbSpline
 70
8
 71
3
 72
8
 73
4
 74
0
 40
0
 40
0
 40
0
 40
0
 40
1
 40
1
 40
1
 40
1
 10
217.573090
 20
353.824516
 30
0.0
 10
217.426720
 20
354.356906
 30
0.0
 10
216.991340
 20
355.231401
 30
0.0
 10
216.623260
 20
355.732441
 30
0.0
  0
SPLINE
  5
2ee
100
AcDbEntity
  8
raster
 62
7
100
AcDbSpline
 70
8
 71
3
 72
8
 73
4
 74
0
 40
0
 40
0
 40
0
 40
0
 40
1
 40
1
 40
1
 40
1
 10
216.623260
 20
355.732441
 30
0.0
 10
216.282070
 20
356.196872
 30
0.0
 10
215.624270
 20
356.845106
 30
0.0
 10
215.179860
 20
357.154843
 30
0.0
  0
SPLINE
  5
2ef
100
AcDbEntity
  8
raster
 62
7
100
AcDbSpline
 70
8
 71
3
 72
8
 73
4
 74
0
 40
0
 40
0
 40
0
 40
0
 40
1
 40
1
 40
1
 40
1
 10
215.179860
 20
357.154843
 30
0.0
 10
214.054370
 20
357.939249
 30
0.0
 10
212.670160
 20
358.346865
 30
0.0
 10
211.287960
 20
358.339213
 30
0.0
  0
LWPOLYLINE
  5
2f0
100
AcDbEntity
  8
raster
 62
7
100
AcDbPolyline
 90
3
 70
0
 10
217.796740
 20
351.465757
 30
0.0
 10
217.855440
 20
352.070558
 30
0.0
 10
217.773140
 20
352.732890
 30
0.0
  0
LWPOLYLINE
  5
2f1
100
AcDbEntity
  8
raster
 62
7
100
AcDbPolyline
 90
1
 70
1
 10
211.287960
 20
358.339213
 30
0.0
  0
SPLINE
  5
2f2
100
AcDbEntity
  8
raster
 62
7
100
AcDbSpline
 70
8
 71
3
 72
8
 73
4
 74
0
 40
0
 40
0
 40
0
 40
0
 40
1
 40
1
 40
1
 40
1
 10
220.553070
 20
358.033135
 30
0.0
 10
219.968450
 20
357.919349
 30
0.0
 10
219.690760
 20
357.625820
 30
0.0
 10
219.593980
 20
357.019275
 30
0.0
  0
LWPOLYLINE
  5
2f3
100
AcDbEntity
  8
raster
 62
7
100
AcDbPolyline
 90
2
 70
0
 10
220.837320
 20
358.088575
 30
0.0
 10
220.553070
 20
358.033135
 30
0.0
  0
SPLINE
  5
2f4
100
AcDbEntity
  8
raster
 62
7
100
AcDbSpline
 70
8
 71
3
 72
8
 73
4
 74
0
 40
0
 40
0
 40
0
 40
0
 40
1
 40
1
 40
1
 40
1
 10
219.846770
 20
346.199399
 30
0.0
 10
219.945470
 20
346.098134
 30
0.0
 10
220.112020
 20
345.985842
 30
0.0
 10
220.217160
 20
345.949812
 30
0.0
  0
LWPOLYLINE
  5
2f5
100
AcDbEntity
  8
raster
 62
7
100
AcDbPolyline
 90
7
 70
0
 10
219.593980
 20
357.019275
 30
0.0
 10
219.539580
 20
356.678779
 30
0.0
 10
219.513580
 20
351.793642
 30
0.0
 10
219.538480
 20
346.908500
 30
0.0
 10
219.602980
 20
346.646035
 30
0.0
 10
219.667180
 20
346.383569
 30
0.0
 10
219.846770
 20
346.199399
 30
0.0
  0
SPLINE
  5
2f6
100
AcDbEntity
  8
raster
 62
7
100
AcDbSpline
 70
8
 71
3
 72
8
 73
4
 74
0
 40
0
 40
0
 40
0
 40
0
 40
1
 40
1
 40
1
 40
1
 10
220.217440
 20
345.949812
 30
0.0
 10
220.322590
 20
345.913762
 30
0.0
 10
220.587730
 20
345.889832
 30
0.0
 10
220.806700
 20
345.896482
 30
0.0
  0
LWPOLYLINE
  5
2f7
100
AcDbEntity
  8
raster
 62
7
100
AcDbPolyline
 90
2
 70
0
 10
220.217160
 20
345.949812
 30
0.0
 10
220.217440
 20
345.949812
 30
0.0
  0
SPLINE
  5
2f8
100
AcDbEntity
  8
raster
 62
7
100
AcDbSpline
 70
8
 71
3
 72
8
 73
4
 74
0
 40
0
 40
0
 40
0
 40
0
 40
1
 40
1
 40
1
 40
1
 10
221.410260
 20
346.069112
 30
0.0
 10
221.523180
 20
346.157512
 30
0.0
 10
221.659600
 20
346.312746
 30
0.0
 10
221.713590
 20
346.414071
 30
0.0
  0
LWPOLYLINE
  5
2f9
100
AcDbEntity
  8
raster
 62
7
100
AcDbPolyline
 90
3
 70
0
 10
220.806700
 20
345.896482
 30
0.0
 10
221.204860
 20
345.908582
 30
0.0
 10
221.410260
 20
346.069112
 30
0.0
  0
SPLINE
  5
2fa
100
AcDbEntity
  8
raster
 62
7
100
AcDbSpline
 70
8
 71
3
 72
8
 73
4
 74
0
 40
0
 40
0
 40
0
 40
0
 40
1
 40
1
 40
1
 40
1
 10
222.164280
 20
353.603858
 30
0.0
 10
222.226380
 20
353.569748
 30
0.0
 10
222.625840
 20
352.990648
 30
0.0
 10
223.051810
 20
352.316759
 30
0.0
  0
SPLINE
  5
2fb
100
AcDbEntity
  8
raster
 62
7
100
AcDbSpline
 70
8
 71
3
 72
8
 73
4
 74
0
 40
0
 40
0
 40
0
 40
0
 40
1
 40
1
 40
1
 40
1
 10
223.051810
 20
352.316759
 30
0.0
 10
223.971530
 20
350.861784
 30
0.0
 10
225.352900
 20
348.654071
 30
0.0
 10
225.938620
 20
347.703543
 30
0.0
  0
SPLINE
  5
2fc
100
AcDbEntity
  8
raster
 62
7
100
AcDbSpline
 70
8
 71
3
 72
8
 73
4
 74
0
 40
0
 40
0
 40
0
 40
0
 40
1
 40
1
 40
1
 40
1
 10
225.938620
 20
347.703543
 30
0.0
 10
226.169270
 20
347.329213
 30
0.0
 10
226.488690
 20
346.873741
 30
0.0
 10
226.648250
 20
346.691518
 30
0.0
  0
LWPOLYLINE
  5
2fd
100
AcDbEntity
  8
raster
 62
7
100
AcDbPolyline
 90
7
 70
0
 10
221.713590
 20
346.414071
 30
0.0
 10
221.811790
 20
346.598506
 30
0.0
 10
221.839890
 20
350.038125
 30
0.0
 10
221.867990
 20
353.477738
 30
0.0
 10
221.959790
 20
353.571798
 30
0.0
 10
222.051490
 20
353.665858
 30
0.0
 10
222.164280
 20
353.603858
 30
0.0
  0
SPLINE
  5
2fe
100
AcDbEntity
  8
raster
 62
7
100
AcDbSpline
 70
8
 71
3
 72
8
 73
4
 74
0
 40
0
 40
0
 40
0
 40
0
 40
1
 40
1
 40
1
 40
1
 10
227.265850
 20
346.181041
 30
0.0
 10
227.859370
 20
345.856378
 30
0.0
 10
228.709600
 20
345.798343
 30
0.0
 10
229.189650
 20
346.049679
 30
0.0
  0
SPLINE
  5
2ff
100
AcDbEntity
  8
raster
 62
7
100
AcDbSpline
 70
8
 71
3
 72
8
 73
4
 74
0
 40
0
 40
0
 40
0
 40
0
 40
1
 40
1
 40
1
 40
1
 10
229.189650
 20
346.049679
 30
0.0
 10
229.479170
 20
346.201266
 30
0.0
 10
229.677720
 20
346.458343
 30
0.0
 10
229.782270
 20
346.817100
 30
0.0
  0
LWPOLYLINE
  5
300
100
AcDbEntity
  8
raster
 62
7
100
AcDbPolyline
 90
3
 70
0
 10
226.648250
 20
346.691518
 30
0.0
 10
226.938400
 20
346.360220
 30
0.0
 10
227.265850
 20
346.181041
 30
0.0
  0
SPLINE
  5
301
100
AcDbEntity
  8
raster
 62
7
100
AcDbSpline
 70
8
 71
3
 72
8
 73
4
 74
0
 40
0
 40
0
 40
0
 40
0
 40
1
 40
1
 40
1
 40
1
 10
228.704740
 20
358.042940
 30
0.0
 10
228.194900
 20
358.041940
 30
0.0
 10
227.896880
 20
357.878490
 30
0.0
 10
227.685320
 20
357.484907
 30
0.0
  0
LWPOLYLINE
  5
302
100
AcDbEntity
  8
raster
 62
7
100
AcDbPolyline
 90
9
 70
0
 10
229.782270
 20
346.817100
 30
0.0
 10
229.869570
 20
347.116872
 30
0.0
 10
229.867570
 20
352.214559
 30
0.0
 10
229.865570
 20
357.312510
 30
0.0
 10
229.710670
 20
357.539768
 30
0.0
 10
229.555780
 20
357.767026
 30
0.0
 10
229.293720
 20
357.905480
 30
0.0
 10
229.031360
 20
358.043940
 30
0.0
 10
228.704740
 20
358.042940
 30
0.0
  0
SPLINE
  5
303
100
AcDbEntity
  8
raster
 62
7
100
AcDbSpline
 70
8
 71
3
 72
8
 73
4
 74
0
 40
0
 40
0
 40
0
 40
0
 40
1
 40
1
 40
1
 40
1
 10
227.205950
 20
349.968559
 30
0.0
 10
227.080770
 20
350.101385
 30
0.0
 10
226.072380
 20
351.698781
 30
0.0
 10
224.534090
 20
354.201614
 30
0.0
  0
SPLINE
  5
304
100
AcDbEntity
  8
raster
 62
7
100
AcDbSpline
 70
8
 71
3
 72
8
 73
4
 74
0
 40
0
 40
0
 40
0
 40
0
 40
1
 40
1
 40
1
 40
1
 10
224.534090
 20
354.201614
 30
0.0
 10
224.183610
 20
354.771873
 30
0.0
 10
223.614250
 20
355.679192
 30
0.0
 10
223.268880
 20
356.217778
 30
0.0
  0
LWPOLYLINE
  5
305
100
AcDbEntity
  8
raster
 62
7
100
AcDbPolyline
 90
7
 70
0
 10
227.685320
 20
357.484907
 30
0.0
 10
227.592420
 20
357.312033
 30
0.0
 10
227.564320
 20
353.631755
 30
0.0
 10
227.536220
 20
349.951482
 30
0.0
 10
227.438620
 20
349.888432
 30
0.0
 10
227.340920
 20
349.825112
 30
0.0
 10
227.205950
 20
349.968559
 30
0.0
  0
SPLINE
  5
306
100
AcDbEntity
  8
raster
 62
7
100
AcDbSpline
 70
8
 71
3
 72
8
 73
4
 74
0
 40
0
 40
0
 40
0
 40
0
 40
1
 40
1
 40
1
 40
1
 10
222.360290
 20
357.465201
 30
0.0
 10
221.990650
 20
357.818610
 30
0.0
 10
221.704010
 20
357.962143
 30
0.0
 10
221.228360
 20
358.031378
 30
0.0
  0
LWPOLYLINE
  5
307
100
AcDbEntity
  8
raster
 62
7
100
AcDbPolyline
 90
3
 70
0
 10
223.268880
 20
356.217778
 30
0.0
 10
222.640890
 20
357.196960
 30
0.0
 10
222.360290
 20
357.465201
 30
0.0
  0
LWPOLYLINE
  5
308
100
AcDbEntity
  8
raster
 62
7
100
AcDbPolyline
 90
2
 70
0
 10
221.228360
 20
358.031378
 30
0.0
 10
220.837320
 20
358.088575
 30
0.0
  0
SPLINE
  5
309
100
AcDbEntity
  8
raster
 62
7
100
AcDbSpline
 70
8
 71
3
 72
8
 73
4
 74
0
 40
0
 40
0
 40
0
 40
0
 40
1
 40
1
 40
1
 40
1
 10
178.822160
 20
357.950095
 30
0.0
 10
178.517730
 20
357.830777
 30
0.0
 10
178.259320
 20
357.542185
 30
0.0
 10
178.161910
 20
357.212355
 30
0.0
  0
LWPOLYLINE
  5
30a
100
AcDbEntity
  8
raster
 62
7
100
AcDbPolyline
 90
2
 70
0
 10
179.072450
 20
358.048355
 30
0.0
 10
178.822160
 20
357.950095
 30
0.0
  0
SPLINE
  5
30b
100
AcDbEntity
  8
raster
 62
7
100
AcDbSpline
 70
8
 71
3
 72
8
 73
4
 74
0
 40
0
 40
0
 40
0
 40
0
 40
1
 40
1
 40
1
 40
1
 10
178.165010
 20
349.653185
 30
0.0
 10
178.339990
 20
348.326948
 30
0.0
 10
178.948590
 20
347.271623
 30
0.0
 10
179.903610
 20
346.638132
 30
0.0
  0
SPLINE
  5
30c
100
AcDbEntity
  8
raster
 62
7
100
AcDbSpline
 70
8
 71
3
 72
8
 73
4
 74
0
 40
0
 40
0
 40
0
 40
0
 40
1
 40
1
 40
1
 40
1
 10
179.903610
 20
346.638132
 30
0.0
 10
180.598300
 20
346.177322
 30
0.0
 10
181.521000
 20
345.860127
 30
0.0
 10
182.439090
 20
345.766671
 30
0.0
  0
SPLINE
  5
30d
100
AcDbEntity
  8
raster
 62
7
100
AcDbSpline
 70
8
 71
3
 72
8
 73
4
 74
0
 40
0
 40
0
 40
0
 40
0
 40
1
 40
1
 40
1
 40
1
 10
182.439090
 20
345.766671
 30
0.0
 10
184.266080
 20
345.580697
 30
0.0
 10
186.183690
 20
346.300916
 30
0.0
 10
187.074580
 20
347.507498
 30
0.0
  0
SPLINE
  5
30e
100
AcDbEntity
  8
raster
 62
7
100
AcDbSpline
 70
8
 71
3
 72
8
 73
4
 74
0
 40
0
 40
0
 40
0
 40
0
 40
1
 40
1
 40
1
 40
1
 10
187.074580
 20
347.507498
 30
0.0
 10
187.552240
 20
348.154395
 30
0.0
 10
187.802670
 20
348.832808
 30
0.0
 10
187.950340
 20
349.881495
 30
0.0
  0
LWPOLYLINE
  5
30f
100
AcDbEntity
  8
raster
 62
7
100
AcDbPolyline
 90
5
 70
0
 10
178.161910
 20
357.212355
 30
0.0
 10
178.089310
 20
356.966708
 30
0.0
 10
178.089310
 20
353.596976
 30
0.0
 10
178.089310
 20
350.227242
 30
0.0
 10
178.165010
 20
349.653185
 30
0.0
  0
SPLINE
  5
310
100
AcDbEntity
  8
raster
 62
7
100
AcDbSpline
 70
8
 71
3
 72
8
 73
4
 74
0
 40
0
 40
0
 40
0
 40
0
 40
1
 40
1
 40
1
 40
1
 10
187.950010
 20
357.352660
 30
0.0
 10
187.909610
 20
357.469878
 30
0.0
 10
187.791110
 20
357.642783
 30
0.0
 10
187.686800
 20
357.736766
 30
0.0
  0
LWPOLYLINE
  5
311
100
AcDbEntity
  8
raster
 62
7
100
AcDbPolyline
 90
5
 70
0
 10
187.950340
 20
349.881495
 30
0.0
 10
188.023240
 20
350.400116
 30
0.0
 10
188.023510
 20
353.769849
 30
0.0
 10
188.023510
 20
357.139586
 30
0.0
 10
187.950010
 20
357.352660
 30
0.0
  0
SPLINE
  5
312
100
AcDbEntity
  8
raster
 62
7
100
AcDbSpline
 70
8
 71
3
 72
8
 73
4
 74
0
 40
0
 40
0
 40
0
 40
0
 40
1
 40
1
 40
1
 40
1
 10
187.174430
 20
357.976375
 30
0.0
 10
186.619820
 20
358.094539
 30
0.0
 10
186.041790
 20
357.941095
 30
0.0
 10
185.801180
 20
357.611968
 30
0.0
  0
LWPOLYLINE
  5
313
100
AcDbEntity
  8
raster
 62
7
100
AcDbPolyline
 90
3
 70
0
 10
187.686800
 20
357.736766
 30
0.0
 10
187.497120
 20
357.907535
 30
0.0
 10
187.174430
 20
357.976375
 30
0.0
  0
SPLINE
  5
314
100
AcDbEntity
  8
raster
 62
7
100
AcDbSpline
 70
8
 71
3
 72
8
 73
4
 74
0
 40
0
 40
0
 40
0
 40
0
 40
1
 40
1
 40
1
 40
1
 10
185.515910
 20
349.781400
 30
0.0
 10
185.087490
 20
348.493172
 30
0.0
 10
183.804300
 20
347.872575
 30
0.0
 10
182.262650
 20
348.207930
 30
0.0
  0
SPLINE
  5
315
100
AcDbEntity
  8
raster
 62
7
100
AcDbSpline
 70
8
 71
3
 72
8
 73
4
 74
0
 40
0
 40
0
 40
0
 40
0
 40
1
 40
1
 40
1
 40
1
 10
182.262650
 20
348.207930
 30
0.0
 10
181.395960
 20
348.396463
 30
0.0
 10
180.893650
 20
348.875072
 30
0.0
 10
180.568400
 20
349.822123
 30
0.0
  0
LWPOLYLINE
  5
316
100
AcDbEntity
  8
raster
 62
7
100
AcDbPolyline
 90
5
 70
0
 10
185.801180
 20
357.611968
 30
0.0
 10
185.666210
 20
357.427534
 30
0.0
 10
185.636510
 20
353.740956
 30
0.0
 10
185.606810
 20
350.054373
 30
0.0
 10
185.515910
 20
349.781400
 30
0.0
  0
LWPOLYLINE
  5
317
100
AcDbEntity
  8
raster
 62
7
100
AcDbPolyline
 90
10
 70
0
 10
180.568400
 20
349.822123
 30
0.0
 10
180.508400
 20
349.996832
 30
0.0
 10
180.477600
 20
353.596981
 30
0.0
 10
180.446800
 20
357.197124
 30
0.0
 10
180.329510
 20
357.427534
 30
0.0
 10
180.212220
 20
357.657944
 30
0.0
 10
179.958560
 20
357.819785
 30
0.0
 10
179.704900
 20
357.981362
 30
0.0
 10
179.388670
 20
358.014972
 30
0.0
 10
179.072450
 20
358.048355
 30
0.0
  0
SPLINE
  5
318
100
AcDbEntity
  8
raster
 62
7
100
AcDbSpline
 70
8
 71
3
 72
8
 73
4
 74
0
 40
0
 40
0
 40
0
 40
0
 40
1
 40
1
 40
1
 40
1
 10
190.839920
 20
357.922085
 30
0.0
 10
190.721960
 20
357.883395
 30
0.0
 10
190.527490
 20
357.760609
 30
0.0
 10
190.407520
 20
357.649370
 30
0.0
  0
LWPOLYLINE
  5
319
100
AcDbEntity
  8
raster
 62
7
100
AcDbPolyline
 90
4
 70
0
 10
193.973080
 20
358.044255
 30
0.0
 10
192.513680
 20
358.018225
 30
0.0
 10
191.054570
 20
357.992495
 30
0.0
 10
190.839920
 20
357.922085
 30
0.0
  0
SPLINE
  5
31a
100
AcDbEntity
  8
raster
 62
7
100
AcDbSpline
 70
8
 71
3
 72
8
 73
4
 74
0
 40
0
 40
0
 40
0
 40
0
 40
1
 40
1
 40
1
 40
1
 10
190.128320
 20
346.459318
 30
0.0
 10
190.290520
 20
346.165555
 30
0.0
 10
190.484330
 20
346.002072
 30
0.0
 10
190.752650
 20
345.932811
 30
0.0
  0
SPLINE
  5
31b
100
AcDbEntity
  8
raster
 62
7
100
AcDbSpline
 70
8
 71
3
 72
8
 73
4
 74
0
 40
0
 40
0
 40
0
 40
0
 40
1
 40
1
 40
1
 40
1
 10
190.752650
 20
345.932811
 30
0.0
 10
190.856900
 20
345.905921
 30
0.0
 10
191.073390
 20
345.890921
 30
0.0
 10
191.233590
 20
345.899711
 30
0.0
  0
LWPOLYLINE
  5
31c
100
AcDbEntity
  8
raster
 62
7
100
AcDbPolyline
 90
7
 70
0
 10
190.407520
 20
357.649370
 30
0.0
 10
190.189210
 20
357.447075
 30
0.0
 10
190.073590
 20
357.129437
 30
0.0
 10
189.957710
 20
356.811800
 30
0.0
 10
189.972910
 20
351.762457
 30
0.0
 10
189.988010
 20
346.713374
 30
0.0
 10
190.128320
 20
346.459318
 30
0.0
  0
SPLINE
  5
31d
100
AcDbEntity
  8
raster
 62
7
100
AcDbSpline
 70
8
 71
3
 72
8
 73
4
 74
0
 40
0
 40
0
 40
0
 40
0
 40
1
 40
1
 40
1
 40
1
 10
191.751580
 20
346.069681
 30
0.0
 10
191.876300
 20
346.154391
 30
0.0
 10
192.035630
 20
346.333891
 30
0.0
 10
192.105700
 20
346.468496
 30
0.0
  0
LWPOLYLINE
  5
31e
100
AcDbEntity
  8
raster
 62
7
100
AcDbPolyline
 90
3
 70
0
 10
191.233590
 20
345.899711
 30
0.0
 10
191.524860
 20
345.915721
 30
0.0
 10
191.751580
 20
346.069681
 30
0.0
  0
SPLINE
  5
31f
100
AcDbEntity
  8
raster
 62
7
100
AcDbSpline
 70
8
 71
3
 72
8
 73
4
 74
0
 40
0
 40
0
 40
0
 40
0
 40
1
 40
1
 40
1
 40
1
 10
193.973080
 20
349.829573
 30
0.0
 10
194.096560
 20
349.775483
 30
0.0
 10
194.270470
 20
349.661484
 30
0.0
 10
194.359460
 20
349.576040
 30
0.0
  0
SPLINE
  5
320
100
AcDbEntity
  8
raster
 62
7
100
AcDbSpline
 70
8
 71
3
 72
8
 73
4
 74
0
 40
0
 40
0
 40
0
 40
0
 40
1
 40
1
 40
1
 40
1
 10
194.359460
 20
349.576040
 30
0.0
 10
194.528520
 20
349.413742
 30
0.0
 10
195.260210
 20
348.421199
 30
0.0
 10
196.099730
 20
347.215440
 30
0.0
  0
SPLINE
  5
321
100
AcDbEntity
  8
raster
 62
7
100
AcDbSpline
 70
8
 71
3
 72
8
 73
4
 74
0
 40
0
 40
0
 40
0
 40
0
 40
1
 40
1
 40
1
 40
1
 10
196.099730
 20
347.215440
 30
0.0
 10
196.852310
 20
346.134566
 30
0.0
 10
197.085580
 20
345.945850
 30
0.0
 10
197.735060
 20
345.892351
 30
0.0
  0
LWPOLYLINE
  5
322
100
AcDbEntity
  8
raster
 62
7
100
AcDbPolyline
 90
9
 70
0
 10
192.105700
 20
346.468496
 30
0.0
 10
192.233080
 20
346.713360
 30
0.0
 10
192.251280
 20
348.286042
 30
0.0
 10
192.269280
 20
349.858723
 30
0.0
 10
192.419690
 20
349.918883
 30
0.0
 10
192.569800
 20
349.978783
 30
0.0
 10
193.159340
 20
349.953563
 30
0.0
 10
193.748600
 20
349.928093
 30
0.0
 10
193.973080
 20
349.829573
 30
0.0
  0
SPLINE
  5
323
100
AcDbEntity
  8
raster
 62
7
100
AcDbSpline
 70
8
 71
3
 72
8
 73
4
 74
0
 40
0
 40
0
 40
0
 40
0
 40
1
 40
1
 40
1
 40
1
 10
198.284750
 20
345.932291
 30
0.0
 10
198.396260
 20
345.970061
 30
0.0
 10
198.549940
 20
346.077244
 30
0.0
 10
198.626240
 20
346.170322
 30
0.0
  0
LWPOLYLINE
  5
324
100
AcDbEntity
  8
raster
 62
7
100
AcDbPolyline
 90
3
 70
0
 10
197.735060
 20
345.892351
 30
0.0
 10
198.082160
 20
345.863731
 30
0.0
 10
198.284750
 20
345.932291
 30
0.0
  0
SPLINE
  5
325
100
AcDbEntity
  8
raster
 62
7
100
AcDbSpline
 70
8
 71
3
 72
8
 73
4
 74
0
 40
0
 40
0
 40
0
 40
0
 40
1
 40
1
 40
1
 40
1
 10
198.746840
 20
347.135579
 30
0.0
 10
198.652940
 20
347.425580
 30
0.0
 10
198.208670
 20
348.125174
 30
0.0
 10
197.258260
 20
349.478838
 30
0.0
  0
SPLINE
  5
326
100
AcDbEntity
  8
raster
 62
7
100
AcDbSpline
 70
8
 71
3
 72
8
 73
4
 74
0
 40
0
 40
0
 40
0
 40
0
 40
1
 40
1
 40
1
 40
1
 10
197.258260
 20
349.478838
 30
0.0
 10
196.970190
 20
349.889133
 30
0.0
 10
196.731870
 20
350.258028
 30
0.0
 10
196.728770
 20
350.298808
 30
0.0
  0
SPLINE
  5
327
100
AcDbEntity
  8
raster
 62
7
100
AcDbSpline
 70
8
 71
3
 72
8
 73
4
 74
0
 40
0
 40
0
 40
0
 40
0
 40
1
 40
1
 40
1
 40
1
 10
196.728770
 20
350.298808
 30
0.0
 10
196.724770
 20
350.339578
 30
0.0
 10
196.899910
 20
350.497341
 30
0.0
 10
197.115990
 20
350.649288
 30
0.0
  0
SPLINE
  5
328
100
AcDbEntity
  8
raster
 62
7
100
AcDbSpline
 70
8
 71
3
 72
8
 73
4
 74
0
 40
0
 40
0
 40
0
 40
0
 40
1
 40
1
 40
1
 40
1
 10
197.115990
 20
350.649288
 30
0.0
 10
197.801060
 20
351.131004
 30
0.0
 10
198.316760
 20
351.874092
 30
0.0
 10
198.585490
 20
352.767389
 30
0.0
  0
LWPOLYLINE
  5
329
100
AcDbEntity
  8
raster
 62
7
100
AcDbPolyline
 90
5
 70
0
 10
198.626240
 20
346.170322
 30
0.0
 10
198.765140
 20
346.339521
 30
0.0
 10
198.802140
 20
346.594365
 30
0.0
 10
198.839440
 20
346.849473
 30
0.0
 10
198.746840
 20
347.135579
 30
0.0
  0
SPLINE
  5
32a
100
AcDbEntity
  8
raster
 62
7
100
AcDbSpline
 70
8
 71
3
 72
8
 73
4
 74
0
 40
0
 40
0
 40
0
 40
0
 40
1
 40
1
 40
1
 40
1
 10
198.561370
 20
355.238598
 30
0.0
 10
198.035700
 20
356.918940
 30
0.0
 10
196.855700
 20
357.743424
 30
0.0
 10
194.646440
 20
357.974109
 30
0.0
  0
LWPOLYLINE
  5
32b
100
AcDbEntity
  8
raster
 62
7
100
AcDbPolyline
 90
5
 70
0
 10
198.585490
 20
352.767389
 30
0.0
 10
198.687630
 20
353.107097
 30
0.0
 10
198.729130
 20
353.932058
 30
0.0
 10
198.687630
 20
354.835310
 30
0.0
 10
198.561370
 20
355.238598
 30
0.0
  0
LWPOLYLINE
  5
32c
100
AcDbEntity
  8
raster
 62
7
100
AcDbPolyline
 90
2
 70
0
 10
194.646440
 20
357.974109
 30
0.0
 10
193.973080
 20
358.044255
 30
0.0
  0
SPLINE
  5
32d
100
AcDbEntity
  8
raster
 62
7
100
AcDbSpline
 70
8
 71
3
 72
8
 73
4
 74
0
 40
0
 40
0
 40
0
 40
0
 40
1
 40
1
 40
1
 40
1
 10
171.971630
 20
357.866999
 30
0.0
 10
171.724670
 20
357.795649
 30
0.0
 10
171.333300
 20
357.642425
 30
0.0
 10
171.101770
 20
357.526239
 30
0.0
  0
LWPOLYLINE
  5
32e
100
AcDbEntity
  8
raster
 62
7
100
AcDbPolyline
 90
4
 70
0
 10
175.769240
 20
358.040155
 30
0.0
 10
174.094920
 20
358.018345
 30
0.0
 10
172.420580
 20
357.996785
 30
0.0
 10
171.971630
 20
357.866999
 30
0.0
  0
SPLINE
  5
32f
100
AcDbEntity
  8
raster
 62
7
100
AcDbSpline
 70
8
 71
3
 72
8
 73
4
 74
0
 40
0
 40
0
 40
0
 40
0
 40
1
 40
1
 40
1
 40
1
 10
170.287470
 20
356.910410
 30
0.0
 10
169.843850
 20
356.453957
 30
0.0
 10
169.593420
 20
356.013712
 30
0.0
 10
169.418180
 20
355.382128
 30
0.0
  0
LWPOLYLINE
  5
330
100
AcDbEntity
  8
raster
 62
7
100
AcDbPolyline
 90
3
 70
0
 10
171.101770
 20
357.526239
 30
0.0
 10
170.680590
 20
357.315006
 30
0.0
 10
170.287470
 20
356.910410
 30
0.0
  0
SPLINE
  5
331
100
AcDbEntity
  8
raster
 62
7
100
AcDbSpline
 70
8
 71
3
 72
8
 73
4
 74
0
 40
0
 40
0
 40
0
 40
0
 40
1
 40
1
 40
1
 40
1
 10
169.240540
 20
353.827312
 30
0.0
 10
169.208640
 20
353.209526
 30
0.0
 10
169.194340
 20
351.900520
 30
0.0
 10
169.209040
 20
350.918399
 30
0.0
  0
LWPOLYLINE
  5
332
100
AcDbEntity
  8
raster
 62
7
100
AcDbPolyline
 90
3
 70
0
 10
169.418180
 20
355.382128
 30
0.0
 10
169.298640
 20
354.950470
 30
0.0
 10
169.240540
 20
353.827312
 30
0.0
  0
SPLINE
  5
333
100
AcDbEntity
  8
raster
 62
7
100
AcDbSpline
 70
8
 71
3
 72
8
 73
4
 74
0
 40
0
 40
0
 40
0
 40
0
 40
1
 40
1
 40
1
 40
1
 10
169.358000
 20
348.649754
 30
0.0
 10
169.425200
 20
348.384086
 30
0.0
 10
169.560770
 20
347.995404
 30
0.0
 10
169.659360
 20
347.786174
 30
0.0
  0
LWPOLYLINE
  5
334
100
AcDbEntity
  8
raster
 62
7
100
AcDbPolyline
 90
3
 70
0
 10
169.209040
 20
350.918399
 30
0.0
 10
169.235940
 20
349.132649
 30
0.0
 10
169.358000
 20
348.649754
 30
0.0
  0
SPLINE
  5
335
100
AcDbEntity
  8
raster
 62
7
100
AcDbSpline
 70
8
 71
3
 72
8
 73
4
 74
0
 40
0
 40
0
 40
0
 40
0
 40
1
 40
1
 40
1
 40
1
 10
170.961050
 20
346.442326
 30
0.0
 10
171.432170
 20
346.192683
 30
0.0
 10
171.863850
 20
346.058433
 30
0.0
 10
172.504630
 20
345.962324
 30
0.0
  0
SPLINE
  5
336
100
AcDbEntity
  8
raster
 62
7
100
AcDbSpline
 70
8
 71
3
 72
8
 73
4
 74
0
 40
0
 40
0
 40
0
 40
0
 40
1
 40
1
 40
1
 40
1
 10
172.504630
 20
345.962324
 30
0.0
 10
173.449430
 20
345.820615
 30
0.0
 10
175.834840
 20
345.886904
 30
0.0
 10
176.365390
 20
346.069517
 30
0.0
  0
SPLINE
  5
337
100
AcDbEntity
  8
raster
 62
7
100
AcDbSpline
 70
8
 71
3
 72
8
 73
4
 74
0
 40
0
 40
0
 40
0
 40
0
 40
1
 40
1
 40
1
 40
1
 10
176.365390
 20
346.069517
 30
0.0
 10
176.474010
 20
346.106927
 30
0.0
 10
176.641310
 20
346.236844
 30
0.0
 10
176.736890
 20
346.358515
 30
0.0
  0
LWPOLYLINE
  5
338
100
AcDbEntity
  8
raster
 62
7
100
AcDbPolyline
 90
5
 70
0
 10
169.659360
 20
347.786174
 30
0.0
 10
169.838670
 20
347.405743
 30
0.0
 10
170.203440
 20
347.028204
 30
0.0
 10
170.568210
 20
346.650407
 30
0.0
 10
170.961050
 20
346.442326
 30
0.0
  0
SPLINE
  5
339
100
AcDbEntity
  8
raster
 62
7
100
AcDbSpline
 70
8
 71
3
 72
8
 73
4
 74
0
 40
0
 40
0
 40
0
 40
0
 40
1
 40
1
 40
1
 40
1
 10
176.816820
 20
347.831361
 30
0.0
 10
176.744920
 20
347.939372
 30
0.0
 10
176.614930
 20
348.081686
 30
0.0
 10
176.528080
 20
348.147723
 30
0.0
  0
LWPOLYLINE
  5
33a
100
AcDbEntity
  8
raster
 62
7
100
AcDbPolyline
 90
5
 70
0
 10
176.736890
 20
346.358515
 30
0.0
 10
176.910580
 20
346.579734
 30
0.0
 10
176.929080
 20
347.107551
 30
0.0
 10
176.947580
 20
347.635106
 30
0.0
 10
176.816820
 20
347.831361
 30
0.0
  0
SPLINE
  5
33b
100
AcDbEntity
  8
raster
 62
7
100
AcDbSpline
 70
8
 71
3
 72
8
 73
4
 74
0
 40
0
 40
0
 40
0
 40
0
 40
1
 40
1
 40
1
 40
1
 10
172.322480
 20
348.460922
 30
0.0
 10
171.985480
 20
348.631249
 30
0.0
 10
171.692470
 20
348.979894
 30
0.0
 10
171.612550
 20
349.305590
 30
0.0
  0
SPLINE
  5
33c
100
AcDbEntity
  8
raster
 62
7
100
AcDbSpline
 70
8
 71
3
 72
8
 73
4
 74
0
 40
0
 40
0
 40
0
 40
0
 40
1
 40
1
 40
1
 40
1
 10
171.612550
 20
349.305590
 30
0.0
 10
171.578450
 20
349.444491
 30
0.0
 10
171.550550
 20
349.828604
 30
0.0
 10
171.550550
 20
350.159185
 30
0.0
  0
LWPOLYLINE
  5
33d
100
AcDbEntity
  8
raster
 62
7
100
AcDbPolyline
 90
5
 70
0
 10
176.528080
 20
348.147723
 30
0.0
 10
176.370110
 20
348.267788
 30
0.0
 10
174.479430
 20
348.296968
 30
0.0
 10
172.588760
 20
348.326408
 30
0.0
 10
172.322480
 20
348.460922
 30
0.0
  0
SPLINE
  5
33e
100
AcDbEntity
  8
raster
 62
7
100
AcDbSpline
 70
8
 71
3
 72
8
 73
4
 74
0
 40
0
 40
0
 40
0
 40
0
 40
1
 40
1
 40
1
 40
1
 10
175.825100
 20
352.661966
 30
0.0
 10
175.753500
 20
352.765264
 30
0.0
 10
175.614900
 20
352.894949
 30
0.0
 10
175.517000
 20
352.949912
 30
0.0
  0
LWPOLYLINE
  5
33f
100
AcDbEntity
  8
raster
 62
7
100
AcDbPolyline
 90
13
 70
0
 10
171.550550
 20
350.159185
 30
0.0
 10
171.550550
 20
350.760305
 30
0.0
 10
171.643150
 20
350.839385
 30
0.0
 10
171.735750
 20
350.918465
 30
0.0
 10
173.509410
 20
350.947655
 30
0.0
 10
175.282800
 20
350.976835
 30
0.0
 10
175.507000
 20
351.091648
 30
0.0
 10
175.730910
 20
351.206462
 30
0.0
 10
175.859710
 20
351.436873
 30
0.0
 10
175.988790
 20
351.667282
 30
0.0
 10
175.972190
 20
352.070830
 30
0.0
 10
175.955590
 20
352.474114
 30
0.0
 10
175.825100
 20
352.661966
 30
0.0
  0
SPLINE
  5
340
100
AcDbEntity
  8
raster
 62
7
100
AcDbSpline
 70
8
 71
3
 72
8
 73
4
 74
0
 40
0
 40
0
 40
0
 40
0
 40
1
 40
1
 40
1
 40
1
 10
171.605200
 20
353.193692
 30
0.0
 10
171.533100
 20
353.310961
 30
0.0
 10
171.536400
 20
354.100686
 30
0.0
 10
171.610200
 20
354.455305
 30
0.0
  0
SPLINE
  5
341
100
AcDbEntity
  8
raster
 62
7
100
AcDbSpline
 70
8
 71
3
 72
8
 73
4
 74
0
 40
0
 40
0
 40
0
 40
0
 40
1
 40
1
 40
1
 40
1
 10
171.610200
 20
354.455305
 30
0.0
 10
171.716020
 20
354.961703
 30
0.0
 10
172.110470
 20
355.371068
 30
0.0
 10
172.681800
 20
355.567425
 30
0.0
  0
LWPOLYLINE
  5
342
100
AcDbEntity
  8
raster
 62
7
100
AcDbPolyline
 90
5
 70
0
 10
175.517000
 20
352.949912
 30
0.0
 10
175.338830
 20
353.049752
 30
0.0
 10
173.498660
 20
353.078632
 30
0.0
 10
171.658500
 20
353.107252
 30
0.0
 10
171.605200
 20
353.193692
 30
0.0
  0
SPLINE
  5
343
100
AcDbEntity
  8
raster
 62
7
100
AcDbSpline
 70
8
 71
3
 72
8
 73
4
 74
0
 40
0
 40
0
 40
0
 40
0
 40
1
 40
1
 40
1
 40
1
 10
176.348100
 20
355.814949
 30
0.0
 10
176.471180
 20
355.878109
 30
0.0
 10
176.631010
 20
356.020650
 30
0.0
 10
176.703340
 20
356.131534
 30
0.0
  0
LWPOLYLINE
  5
344
100
AcDbEntity
  8
raster
 62
7
100
AcDbPolyline
 90
5
 70
0
 10
172.681800
 20
355.567425
 30
0.0
 10
172.868960
 20
355.631795
 30
0.0
 10
174.496720
 20
355.665965
 30
0.0
 10
176.124460
 20
355.700135
 30
0.0
 10
176.348100
 20
355.814949
 30
0.0
  0
LWPOLYLINE
  5
345
100
AcDbEntity
  8
raster
 62
7
100
AcDbPolyline
 90
8
 70
0
 10
176.703340
 20
356.131534
 30
0.0
 10
176.834940
 20
356.333047
 30
0.0
 10
176.816440
 20
356.863228
 30
0.0
 10
176.797940
 20
357.393411
 30
0.0
 10
176.581880
 20
357.620404
 30
0.0
 10
176.365820
 20
357.847403
 30
0.0
 10
176.067270
 20
357.943823
 30
0.0
 10
175.769240
 20
358.040155
 30
0.0
  0
SPLINE
  5
346
100
AcDbEntity
  8
raster
 62
7
100
AcDbSpline
 70
8
 71
3
 72
8
 73
4
 74
0
 40
0
 40
0
 40
0
 40
0
 40
1
 40
1
 40
1
 40
1
 10
214.877110
 20
354.015705
 30
0.0
 10
215.008350
 20
353.786617
 30
0.0
 10
215.179860
 20
353.397726
 30
0.0
 10
215.258160
 20
353.151596
 30
0.0
  0
LWPOLYLINE
  5
347
100
AcDbEntity
  8
raster
 62
7
100
AcDbPolyline
 90
8
 70
0
 10
211.933070
 20
356.015321
 30
0.0
 10
212.406440
 20
355.898932
 30
0.0
 10
212.880090
 20
355.782542
 30
0.0
 10
213.325970
 20
355.539259
 30
0.0
 10
213.771830
 20
355.296235
 30
0.0
 10
214.205080
 20
354.864049
 30
0.0
 10
214.638600
 20
354.432126
 30
0.0
 10
214.877110
 20
354.015705
 30
0.0
  0
SPLINE
  5
348
100
AcDbEntity
  8
raster
 62
7
100
AcDbSpline
 70
8
 71
3
 72
8
 73
4
 74
0
 40
0
 40
0
 40
0
 40
0
 40
1
 40
1
 40
1
 40
1
 10
215.306880
 20
350.803085
 30
0.0
 10
214.903130
 20
349.453208
 30
0.0
 10
213.950260
 20
348.497387
 30
0.0
 10
212.608080
 20
348.095425
 30
0.0
  0
LWPOLYLINE
  5
349
100
AcDbEntity
  8
raster
 62
7
100
AcDbPolyline
 90
5
 70
0
 10
215.258160
 20
353.151596
 30
0.0
 10
215.400420
 20
352.704172
 30
0.0
 10
215.405420
 20
351.926502
 30
0.0
 10
215.410420
 20
351.148833
 30
0.0
 10
215.306880
 20
350.803085
 30
0.0
  0
SPLINE
  5
34a
100
AcDbEntity
  8
raster
 62
7
100
AcDbSpline
 70
8
 71
3
 72
8
 73
4
 74
0
 40
0
 40
0
 40
0
 40
0
 40
1
 40
1
 40
1
 40
1
 10
210.467390
 20
347.975363
 30
0.0
 10
209.970110
 20
348.072923
 30
0.0
 10
209.517620
 20
348.243542
 30
0.0
 10
209.043910
 20
348.512113
 30
0.0
  0
LWPOLYLINE
  5
34b
100
AcDbEntity
  8
raster
 62
7
100
AcDbPolyline
 90
6
 70
0
 10
212.608080
 20
348.095425
 30
0.0
 10
212.607800
 20
348.095161
 30
0.0
 10
212.102720
 20
347.944093
 30
0.0
 10
211.485410
 20
347.920453
 30
0.0
 10
210.868080
 20
347.896813
 30
0.0
 10
210.467390
 20
347.975363
 30
0.0
  0
SPLINE
  5
34c
100
AcDbEntity
  8
raster
 62
7
100
AcDbSpline
 70
8
 71
3
 72
8
 73
4
 74
0
 40
0
 40
0
 40
0
 40
0
 40
1
 40
1
 40
1
 40
1
 10
208.279840
 20
349.132411
 30
0.0
 10
207.847170
 20
349.580796
 30
0.0
 10
207.549440
 20
350.073793
 30
0.0
 10
207.360600
 20
350.654124
 30
0.0
  0
LWPOLYLINE
  5
34d
100
AcDbEntity
  8
raster
 62
7
100
AcDbPolyline
 90
3
 70
0
 10
209.043910
 20
348.512113
 30
0.0
 10
208.679140
 20
348.718877
 30
0.0
 10
208.279840
 20
349.132411
 30
0.0
  0
SPLINE
  5
34e
100
AcDbEntity
  8
raster
 62
7
100
AcDbSpline
 70
8
 71
3
 72
8
 73
4
 74
0
 40
0
 40
0
 40
0
 40
0
 40
1
 40
1
 40
1
 40
1
 10
208.278030
 20
354.717457
 30
0.0
 10
208.880770
 20
355.336041
 30
0.0
 10
209.544520
 20
355.700599
 30
0.0
 10
210.436960
 20
355.903139
 30
0.0
  0
LWPOLYLINE
  5
34f
100
AcDbEntity
  8
raster
 62
7
100
AcDbPolyline
 90
9
 70
0
 10
207.360600
 20
350.654124
 30
0.0
 10
207.240500
 20
351.023518
 30
0.0
 10
207.209300
 20
351.604668
 30
0.0
 10
207.177800
 20
352.185558
 30
0.0
 10
207.271800
 20
352.703920
 30
0.0
 10
207.365800
 20
353.222541
 30
0.0
 10
207.620580
 20
353.763232
 30
0.0
 10
207.875090
 20
354.303924
 30
0.0
 10
208.278030
 20
354.717457
 30
0.0
  0
LWPOLYLINE
  5
350
100
AcDbEntity
  8
raster
 62
7
100
AcDbPolyline
 90
4
 70
0
 10
210.436960
 20
355.903139
 30
0.0
 10
210.924080
 20
356.013748
 30
0.0
 10
211.429150
 20
356.014748
 30
0.0
 10
211.933070
 20
356.015321
 30
0.0
  0
SPLINE
  5
351
100
AcDbEntity
  8
raster
 62
7
100
AcDbSpline
 70
8
 71
3
 72
8
 73
4
 74
0
 40
0
 40
0
 40
0
 40
0
 40
1
 40
1
 40
1
 40
1
 10
195.326680
 20
355.594187
 30
0.0
 10
195.738670
 20
355.398785
 30
0.0
 10
196.085090
 20
355.051889
 30
0.0
 10
196.249000
 20
354.670441
 30
0.0
  0
LWPOLYLINE
  5
352
100
AcDbEntity
  8
raster
 62
7
100
AcDbPolyline
 90
4
 70
0
 10
192.406770
 20
355.795415
 30
0.0
 10
193.695000
 20
355.776245
 30
0.0
 10
194.983230
 20
355.757075
 30
0.0
 10
195.326680
 20
355.594187
 30
0.0
  0
SPLINE
  5
353
100
AcDbEntity
  8
raster
 62
7
100
AcDbSpline
 70
8
 71
3
 72
8
 73
4
 74
0
 40
0
 40
0
 40
0
 40
0
 40
1
 40
1
 40
1
 40
1
 10
196.377390
 20
353.979205
 30
0.0
 10
196.382390
 20
353.753147
 30
0.0
 10
196.350890
 20
353.444819
 30
0.0
 10
196.308390
 20
353.294015
 30
0.0
  0
LWPOLYLINE
  5
354
100
AcDbEntity
  8
raster
 62
7
100
AcDbPolyline
 90
3
 70
0
 10
196.249000
 20
354.670441
 30
0.0
 10
196.369390
 20
354.390111
 30
0.0
 10
196.377390
 20
353.979205
 30
0.0
  0
SPLINE
  5
355
100
AcDbEntity
  8
raster
 62
7
100
AcDbSpline
 70
8
 71
3
 72
8
 73
4
 74
0
 40
0
 40
0
 40
0
 40
0
 40
1
 40
1
 40
1
 40
1
 10
196.008490
 20
352.760152
 30
0.0
 10
195.752110
 20
352.461229
 30
0.0
 10
195.428410
 20
352.251450
 30
0.0
 10
195.034540
 20
352.128822
 30
0.0
  0
LWPOLYLINE
  5
356
100
AcDbEntity
  8
raster
 62
7
100
AcDbPolyline
 90
3
 70
0
 10
196.308390
 20
353.294015
 30
0.0
 10
196.231290
 20
353.019729
 30
0.0
 10
196.008490
 20
352.760152
 30
0.0
  0
LWPOLYLINE
  5
357
100
AcDbEntity
  8
raster
 62
7
100
AcDbPolyline
 90
10
 70
0
 10
195.034540
 20
352.128822
 30
0.0
 10
194.758710
 20
352.042912
 30
0.0
 10
193.602920
 20
352.042404
 30
0.0
 10
192.446850
 20
352.041404
 30
0.0
 10
192.353950
 20
352.146755
 30
0.0
 10
192.261050
 20
352.252108
 30
0.0
 10
192.261050
 20
353.921472
 30
0.0
 10
192.261050
 20
355.590837
 30
0.0
 10
192.333950
 20
355.693038
 30
0.0
 10
192.406770
 20
355.795415
 30
0.0
  0
SPLINE
  5
358
100
AcDbEntity
  8
raster
 62
7
100
AcDbSpline
 70
8
 71
3
 72
8
 73
4
 74
0
 40
0
 40
0
 40
0
 40
0
 40
1
 40
1
 40
1
 40
1
 10
163.896030
 20
351.950219
 30
0.0
 10
163.766860
 20
352.085607
 30
0.0
 10
162.297250
 20
354.856543
 30
0.0
 10
161.022240
 20
357.368390
 30
0.0
  0
SPLINE
  5
359
100
AcDbEntity
  8
raster
 62
7
100
AcDbSpline
 70
8
 71
3
 72
8
 73
4
 74
0
 40
0
 40
0
 40
0
 40
0
 40
1
 40
1
 40
1
 40
1
 10
161.022240
 20
357.368390
 30
0.0
 10
160.648870
 20
358.103969
 30
0.0
 10
160.018050
 20
359.305636
 30
0.0
 10
159.620440
 20
360.038743
 30
0.0
  0
LWPOLYLINE
  5
35a
100
AcDbEntity
  8
raster
 62
7
100
AcDbPolyline
 90
10
 70
0
 10
165.176080
 20
362.187928
 30
0.0
 10
164.908590
 20
362.005334
 30
0.0
 10
164.641430
 20
361.822739
 30
0.0
 10
164.471320
 20
361.471405
 30
0.0
 10
164.301540
 20
361.120070
 30
0.0
 10
164.282940
 20
356.545626
 30
0.0
 10
164.264740
 20
351.970830
 30
0.0
 10
164.144940
 20
351.893030
 30
0.0
 10
164.025120
 20
351.814870
 30
0.0
 10
163.896030
 20
351.950219
 30
0.0
  0
SPLINE
  5
35b
100
AcDbEntity
  8
raster
 62
7
100
AcDbSpline
 70
8
 71
3
 72
8
 73
4
 74
0
 40
0
 40
0
 40
0
 40
0
 40
1
 40
1
 40
1
 40
1
 10
157.700950
 20
362.093811
 30
0.0
 10
156.907370
 20
362.275820
 30
0.0
 10
156.278750
 20
362.081151
 30
0.0
 10
155.927220
 20
361.544609
 30
0.0
  0
LWPOLYLINE
  5
35c
100
AcDbEntity
  8
raster
 62
7
100
AcDbPolyline
 90
5
 70
0
 10
159.620440
 20
360.038743
 30
0.0
 10
158.897430
 20
361.371609
 30
0.0
 10
158.513010
 20
361.683862
 30
0.0
 10
158.128280
 20
361.996121
 30
0.0
 10
157.700950
 20
362.093811
 30
0.0
  0
SPLINE
  5
35d
100
AcDbEntity
  8
raster
 62
7
100
AcDbSpline
 70
8
 71
3
 72
8
 73
4
 74
0
 40
0
 40
0
 40
0
 40
0
 40
1
 40
1
 40
1
 40
1
 10
155.723460
 20
346.587167
 30
0.0
 10
155.864010
 20
346.217769
 30
0.0
 10
156.086820
 20
345.976667
 30
0.0
 10
156.420200
 20
345.832991
 30
0.0
  0
SPLINE
  5
35e
100
AcDbEntity
  8
raster
 62
7
100
AcDbSpline
 70
8
 71
3
 72
8
 73
4
 74
0
 40
0
 40
0
 40
0
 40
0
 40
1
 40
1
 40
1
 40
1
 10
156.420200
 20
345.832991
 30
0.0
 10
157.045240
 20
345.563624
 30
0.0
 10
157.805950
 20
345.889131
 30
0.0
 10
158.108400
 20
346.555549
 30
0.0
  0
LWPOLYLINE
  5
35f
100
AcDbEntity
  8
raster
 62
7
100
AcDbPolyline
 90
7
 70
0
 10
155.927220
 20
361.544609
 30
0.0
 10
155.745910
 20
361.268228
 30
0.0
 10
155.648810
 20
360.702330
 30
0.0
 10
155.551710
 20
360.136432
 30
0.0
 10
155.569610
 20
353.540663
 30
0.0
 10
155.587310
 20
346.944898
 30
0.0
 10
155.723460
 20
346.587167
 30
0.0
  0
SPLINE
  5
360
100
AcDbEntity
  8
raster
 62
7
100
AcDbSpline
 70
8
 71
3
 72
8
 73
4
 74
0
 40
0
 40
0
 40
0
 40
0
 40
1
 40
1
 40
1
 40
1
 10
158.344530
 20
356.176555
 30
0.0
 10
158.485290
 20
356.318549
 30
0.0
 10
158.604520
 20
356.221295
 30
0.0
 10
158.844900
 20
355.769093
 30
0.0
  0
SPLINE
  5
361
100
AcDbEntity
  8
raster
 62
7
100
AcDbSpline
 70
8
 71
3
 72
8
 73
4
 74
0
 40
0
 40
0
 40
0
 40
0
 40
1
 40
1
 40
1
 40
1
 10
158.844900
 20
355.769093
 30
0.0
 10
158.965540
 20
355.542170
 30
0.0
 10
159.721790
 20
354.112535
 30
0.0
 10
160.525410
 20
352.591812
 30
0.0
  0
SPLINE
  5
362
100
AcDbEntity
  8
raster
 62
7
100
AcDbSpline
 70
8
 71
3
 72
8
 73
4
 74
0
 40
0
 40
0
 40
0
 40
0
 40
1
 40
1
 40
1
 40
1
 10
160.525410
 20
352.591812
 30
0.0
 10
163.627880
 20
346.720954
 30
0.0
 10
163.797360
 20
346.439348
 30
0.0
 10
164.461760
 20
346.058922
 30
0.0
  0
LWPOLYLINE
  5
363
100
AcDbEntity
  8
raster
 62
7
100
AcDbPolyline
 90
5
 70
0
 10
158.108400
 20
346.555549
 30
0.0
 10
158.214430
 20
346.789300
 30
0.0
 10
158.233330
 20
351.436213
 30
0.0
 10
158.251930
 20
356.083125
 30
0.0
 10
158.344530
 20
356.176555
 30
0.0
  0
SPLINE
  5
364
100
AcDbEntity
  8
raster
 62
7
100
AcDbSpline
 70
8
 71
3
 72
8
 73
4
 74
0
 40
0
 40
0
 40
0
 40
0
 40
1
 40
1
 40
1
 40
1
 10
166.159900
 20
346.026983
 30
0.0
 10
166.506340
 20
346.245329
 30
0.0
 10
166.620870
 20
346.415706
 30
0.0
 10
166.771430
 20
346.936401
 30
0.0
  0
LWPOLYLINE
  5
365
100
AcDbEntity
  8
raster
 62
7
100
AcDbPolyline
 90
5
 70
0
 10
164.461760
 20
346.058922
 30
0.0
 10
164.814140
 20
345.857145
 30
0.0
 10
165.358730
 20
345.861245
 30
0.0
 10
165.903620
 20
345.865345
 30
0.0
 10
166.159900
 20
346.026983
 30
0.0
  0
SPLINE
  5
366
100
AcDbEntity
  8
raster
 62
7
100
AcDbSpline
 70
8
 71
3
 72
8
 73
4
 74
0
 40
0
 40
0
 40
0
 40
0
 40
1
 40
1
 40
1
 40
1
 10
166.737780
 20
361.452987
 30
0.0
 10
166.668080
 20
361.593181
 30
0.0
 10
166.498180
 20
361.803102
 30
0.0
 10
166.360100
 20
361.919415
 30
0.0
  0
LWPOLYLINE
  5
367
100
AcDbEntity
  8
raster
 62
7
100
AcDbPolyline
 90
5
 70
0
 10
166.771430
 20
346.936401
 30
0.0
 10
166.899240
 20
347.378675
 30
0.0
 10
166.881940
 20
354.288478
 30
0.0
 10
166.864640
 20
361.197919
 30
0.0
 10
166.737780
 20
361.452987
 30
0.0
  0
LWPOLYLINE
  5
368
100
AcDbEntity
  8
raster
 62
7
100
AcDbPolyline
 90
4
 70
0
 10
166.360100
 20
361.919415
 30
0.0
 10
166.108950
 20
362.130785
 30
0.0
 10
165.642530
 20
362.159565
 30
0.0
 10
165.176080
 20
362.187928
 30
0.0
  0
ENDSEC
  0
SECTION
  2
OBJECTS
  0
DICTIONARY
  5
C
330
0
100
AcDbDictionary
  3
ACAD_GROUP
350
D
  3
ACAD_MLINESTYLE
350
17
  0
DICTIONARY
  5
D
330
C
100
AcDbDictionary
  0
DICTIONARY
  5
1A
330
C
100
AcDbDictionary
  0
DICTIONARY
  5
17
330
C
100
AcDbDictionary
  3
STANDARD
350
18
  0
DICTIONARY
  5
19
330
C
100
AcDbDictionary
  0
ENDSEC
  0
EOF
